<svg width="51" height="50" viewBox="0 0 51 50" fill="none" xmlns="http://www.w3.org/2000/svg">
<circle cx="25.5" cy="25" r="25" fill="#62B9F7" fill-opacity="0.31"/>
<path d="M36.75 22.4999C36.75 31.2499 25.5 38.7499 25.5 38.7499C25.5 38.7499 14.25 31.2499 14.25 22.4999C14.25 19.5162 15.4353 16.6547 17.545 14.5449C19.6548 12.4351 22.5163 11.2499 25.5 11.2499C28.4837 11.2499 31.3452 12.4351 33.455 14.5449C35.5647 16.6547 36.75 19.5162 36.75 22.4999Z" stroke="white" stroke-width="2" stroke-linecap="round" stroke-linejoin="round"/>
<path d="M25.5 26.2499C27.5711 26.2499 29.25 24.5709 29.25 22.4999C29.25 20.4288 27.5711 18.7499 25.5 18.7499C23.4289 18.7499 21.75 20.4288 21.75 22.4999C21.75 24.5709 23.4289 26.2499 25.5 26.2499Z" stroke="white" stroke-width="2" stroke-linecap="round" stroke-linejoin="round"/>
</svg>
