<svg width="51" height="51" viewBox="0 0 51 51" fill="none" xmlns="http://www.w3.org/2000/svg">
<circle cx="25.5" cy="25.5" r="25" fill="#62B9F7" fill-opacity="0.31"/>
<g clip-path="url(#clip0_365_1229)">
<path d="M29.3123 16.75C30.5332 16.9882 31.6553 17.5853 32.5349 18.4649C33.4145 19.3445 34.0116 20.4666 34.2498 21.6875M29.3123 11.75C31.8489 12.0318 34.2143 13.1677 36.0201 14.9713C37.8259 16.7748 38.9648 19.1388 39.2498 21.675M37.9998 31.65V35.4C38.0012 35.7481 37.9299 36.0927 37.7904 36.4117C37.651 36.7307 37.4464 37.017 37.1899 37.2523C36.9334 37.4877 36.6305 37.6669 36.3007 37.7784C35.9709 37.8899 35.6215 37.9313 35.2748 37.9C31.4283 37.4821 27.7335 36.1677 24.4873 34.0625C21.4671 32.1433 18.9065 29.5827 16.9873 26.5625C14.8748 23.3015 13.5601 19.5887 13.1498 15.725C13.1186 15.3793 13.1596 15.031 13.2704 14.702C13.3812 14.3731 13.5593 14.0709 13.7933 13.8145C14.0272 13.5582 14.3121 13.3534 14.6295 13.2132C14.947 13.0729 15.2902 13.0003 15.6373 13H19.3873C19.9939 12.994 20.582 13.2088 21.042 13.6044C21.502 14 21.8024 14.5493 21.8873 15.15C22.0456 16.3501 22.3391 17.5284 22.7623 18.6625C22.9305 19.1099 22.9669 19.5961 22.8672 20.0636C22.7675 20.5311 22.5359 20.9601 22.1998 21.3L20.6123 22.8875C22.3917 26.0169 24.9829 28.6081 28.1123 30.3875L29.6998 28.8C30.0397 28.4639 30.4687 28.2323 30.9362 28.1326C31.4037 28.0329 31.8899 28.0693 32.3373 28.2375C33.4714 28.6607 34.6497 28.9542 35.8498 29.1125C36.457 29.1982 37.0115 29.504 37.408 29.9719C37.8044 30.4397 38.015 31.037 37.9998 31.65Z" stroke="white" stroke-width="2" stroke-linecap="round" stroke-linejoin="round"/>
</g>
<defs>
<clipPath id="clip0_365_1229">
<rect width="30" height="30" fill="white" transform="translate(10.5 10.5)"/>
</clipPath>
</defs>
</svg>
