<svg width="377" height="22" viewBox="0 0 377 22" fill="none" xmlns="http://www.w3.org/2000/svg">
<path d="M8.83172 7.00393C16.5839 4.99468 22.0669 6.07968 29.3746 5.80314C39.4275 5.42335 51.4528 4.59443 63.076 3.86301C70.0591 3.42188 76.8951 3.01278 83.0669 2.73131C95.5131 2.16271 108.165 1.75245 120.543 1.42451C121.178 1.40751 121.562 1.54841 121.849 1.54099C122.95 1.51255 124.351 1.44926 125.808 1.38094C127.94 1.2808 130.191 1.1703 131.788 1.13677C137.443 1.01227 147.282 0.748555 152.465 0.790243C154.666 0.805558 156.922 0.788163 157.784 1.13726C158.587 1.14093 159.02 0.803389 159.23 0.78165C159.232 0.781932 159.234 0.782215 159.237 0.782497C159.912 0.71448 161.623 0.915954 161.999 0.895321C162.055 0.892135 161.705 0.65914 162.62 0.715901C162.701 0.720757 162.629 0.884293 163.398 0.873904C163.599 0.870843 166.168 0.580842 166.903 0.55494C169.349 0.466635 175.198 0.585119 178.124 0.551902C178.571 0.547054 178.828 0.449327 179.301 0.442702C179.545 0.439169 179.912 0.538527 179.987 0.537208C180.316 0.530071 181.75 0.0478751 181.242 0.976906C182.743 0.903983 182.298 0.602858 182.33 0.404084C183.96 0.360403 184.749 0.789331 185.171 0.324555C186.304 0.323119 187.437 0.322402 188.569 0.322407C195.453 0.322441 202.337 0.349038 209.221 0.401807C209.223 0.326615 209.226 0.251423 209.228 0.176232C211.591 0.478597 212.402 -0.0273948 213.75 0.411777C214.582 0.317737 215.414 0.224076 216.246 0.130797C227.964 0.331663 239.666 0.413407 251.33 0.537627C260.944 0.639991 270.532 0.771172 280.077 1.02103C280.968 1.04444 281.187 1.21009 282.657 1.25079C284.28 1.29567 286.569 1.17333 288.708 1.23798C290.585 1.29408 293.35 1.52902 295.441 1.61876C295.913 1.63868 296.258 1.54825 296.311 1.5505C296.624 1.5644 296.634 1.72525 296.937 1.73948C297.3 1.75614 297.742 1.65146 298.161 1.67236C299.726 1.74941 301.434 1.76567 301.633 1.77515C302.587 1.82246 302.793 1.98656 302.871 1.99094C303.933 2.04631 303.54 1.89123 303.804 1.90849C305.176 1.99913 306.134 2.38611 308.025 2.11409C307.969 2.24335 307.913 2.37262 307.858 2.50189C309.293 2.6272 308.356 2.2448 308.652 2.19227C308.772 2.17276 311.867 2.32843 312.105 2.34399C312.936 2.39746 312.952 2.5726 313.024 2.57761C313.097 2.58276 313.514 2.56448 314.051 2.55628C314.787 2.54501 315.748 2.55282 316.365 2.66468C317.627 2.89401 316.12 3.19051 316.432 3.26927C316.485 3.2825 317.815 3.29784 317.989 3.41583C318.181 3.54283 317.033 3.49545 317.048 3.54625C317.06 3.58093 318.956 3.90166 318.584 4.05295C318.284 4.20715 315.705 3.89364 315.154 3.95114C315.063 3.96061 315.226 4.1721 315.146 4.17656C315.064 4.18045 314.616 4.16898 313.991 4.14926C312.158 4.09083 308.794 3.96547 308.592 3.93338C308.906 3.85118 309.219 3.76904 309.533 3.68694C309.121 3.66253 308.708 3.6382 308.296 3.61396C308.885 3.56019 309.475 3.5066 310.064 3.45319C309.22 2.65225 306.565 3.33792 306.444 3.71811C306.391 3.89383 307.98 4.40719 306.477 4.62019C306.702 4.67375 306.928 4.72732 307.153 4.78093C307.624 4.72272 308.094 4.66462 308.565 4.60664C308.255 4.54826 307.945 4.48993 307.635 4.43164C307.752 4.38238 307.868 4.33313 307.985 4.28389C308.863 4.22964 309.741 4.17578 310.619 4.12232C311.067 4.17827 310.968 4.33234 311.276 4.37419C314.089 4.75996 313.503 4.55187 313.978 4.47711C314.152 4.44989 314.468 4.4406 315.143 4.48525C315.5 4.58359 315.857 4.68202 316.214 4.78049C316.101 4.42585 317.211 4.68844 318.569 4.59083C318.403 4.69766 318.237 4.8045 318.071 4.91135C320.032 4.92699 323.979 5.65986 322.933 4.99171C323.379 5.06339 323.826 5.13517 324.273 5.20705C324.656 5.12059 325.039 5.0342 325.423 4.94789C325.946 4.98145 326.469 5.01514 326.993 5.04898C326.993 5.10437 326.993 5.15976 326.993 5.21514C326.575 5.19783 326.157 5.18059 325.74 5.16345C326.046 5.34503 326.353 5.52665 326.659 5.70833C326.969 5.69335 327.278 5.67841 327.587 5.66353C326.301 5.44945 328.017 5.2613 328.439 5.05666C329.534 5.02108 330.217 5.34001 330.582 5.36889C330.753 5.38234 332.799 4.96181 331.981 5.48671C333.026 5.46446 334.07 5.44277 335.114 5.42162C335.519 5.48285 335.925 5.54416 336.33 5.60556C335.435 5.82611 337.981 6.25651 336.09 6.27894C334.678 6.29633 334.342 6.03729 333.673 6.00917C333.071 5.98359 332.745 6.13365 332.089 6.11213C327.678 5.96493 324.085 5.7846 319.901 5.54467C319.074 5.4971 318.318 5.54798 317.763 5.51498C317.136 5.47749 317.93 5.30222 317.128 5.32116C316.286 5.34151 316.098 5.50266 315.876 5.49749C315.738 5.49408 315.307 5.32606 314.904 5.31071C314.605 5.2993 314.28 5.29175 313.948 5.28703C312.443 5.26551 310.778 5.30243 310.586 5.29472C310.32 5.28223 305.648 4.97836 305.425 4.94675C305.306 4.92912 305.572 4.37915 304.52 4.93876C304.198 4.93869 303.876 4.93866 303.554 4.9387C303.61 4.8289 303.666 4.7191 303.722 4.60931C301.801 4.96728 302.465 4.7528 300.626 4.72452C296.225 4.65677 289.737 4.36312 284.924 4.27004C283.849 4.24925 283.436 4.3716 282.165 4.34695C280.983 4.32306 277.909 3.84485 278.566 4.41461C275.949 3.86941 275.507 4.68459 274.204 4.13815C274.043 4.20916 273.882 4.28019 273.721 4.35123C272.3 3.99608 271.853 4.26798 270.293 4.27127C269.621 4.27299 270.403 3.94876 269.038 4.2987C268.779 4.26462 268.521 4.23057 268.262 4.19655C268.324 4.11522 268.386 4.03388 268.449 3.95255C266.94 3.98707 266.844 3.94223 267.009 4.25521C266.283 4.18322 265.557 4.11152 264.831 4.04009C264.739 4.13975 264.646 4.23941 264.554 4.33908C264.899 4.52728 281.415 4.62398 283.718 4.60891C286.407 4.9111 291.832 4.78311 294.009 4.90661C294.88 4.95567 295.258 5.1972 296.525 5.26511C297.792 5.33298 299.394 5.17668 300.069 5.19166C302.321 5.23491 312.973 5.66174 305.717 5.68984C305.922 5.80904 306.126 5.92827 306.33 6.04751C309.223 5.76795 308.172 5.96576 310.559 6.09212C311.564 6.14549 313.966 5.98549 313.813 6.48885C311.942 6.51283 309.964 6.27748 308.34 6.22652C308.179 6.22139 306.249 6.3849 305.261 6.28754C304.371 6.19903 305.002 5.73543 303.041 6.21289C301.616 5.63224 300.765 6.08681 300.383 6.12538C299.721 6.19243 299.658 5.92774 299.001 5.87561C298.285 5.81839 297.785 5.97663 297.687 5.97459C296.704 5.94535 291.581 5.81046 291.349 5.69881C291.557 5.65848 291.764 5.61818 291.972 5.57789C290.643 5.46284 290.913 5.7396 290.563 5.76122C290.302 5.75248 290.042 5.74378 289.781 5.73511C289.886 5.68251 289.991 5.62994 290.096 5.57736C288.524 5.54295 289.721 5.77125 287.491 5.70157C286.075 5.65736 284.618 5.40441 284.48 5.41633C284.439 5.41971 284.881 5.57527 284.303 5.5785C283.347 5.58347 281.695 5.53542 281.515 5.33575C281.046 5.35086 281.081 5.5426 281.019 5.54528C280.747 5.55563 276.069 5.50056 275.231 5.49256C272.909 5.4667 270.328 5.36596 267.811 5.34314C267.552 5.34071 267.72 5.22195 267.461 5.22025C267.044 5.21722 264.905 5.36398 264.585 5.37117C263.789 5.38765 261.696 5.26959 261.365 5.31898C261.318 5.32595 262.004 5.50486 261.197 5.54035C260.301 5.57969 260.787 5.36662 260.739 5.36344C258.92 5.25223 257.767 5.3858 256.523 5.3934C256.12 5.39576 255.379 5.21524 254.81 5.25491C254.744 5.2594 254.871 5.41635 254.807 5.42285C253.946 5.48916 253.147 5.18865 252.776 5.16392C251.867 5.1035 252.359 5.32355 252.311 5.32427C252.007 5.32269 251.651 5.29935 251.255 5.27596C250.861 5.25273 250.429 5.22945 249.97 5.22736C245.862 5.20922 242.507 5.17664 238.141 5.11279C237.592 5.10489 236.943 4.94836 236.859 4.94727C236.6 4.94562 236.672 5.122 235.922 5.11016C234.342 5.08462 232.875 5.07898 231.31 5.0618C230.995 5.05832 230.862 4.89441 230.622 4.88884C229.816 4.87133 227.064 5.27644 227.023 4.74616C225.42 5.20409 224.361 4.79277 223.074 4.78972C220.023 4.7812 215.248 4.85862 212.208 4.79317C211.568 4.77898 211.268 4.64269 210.912 4.63487C210.273 4.61975 206.622 4.69423 206.431 4.67356C206.056 4.63267 206.28 4.03372 204.353 4.55683C203.222 4.5953 203.356 4.34969 203.122 4.33676C201.3 4.2408 199.529 4.79414 199.859 4.291C197.737 4.43325 196.364 4.71666 195.496 4.25083C195.508 4.47994 194.511 4.62162 193.309 4.54056C194.538 4.14969 194.384 3.90334 197.363 3.96209C197.41 3.96305 197.321 4.12908 197.368 4.13004C197.793 4.13964 198.68 4.05295 199.405 4.05986C200.13 4.06682 199.728 4.18124 200.018 4.17827C200.283 4.17531 200.274 4.01675 200.658 4.01354C201.905 4.00428 203.009 3.95881 203.718 3.95507C204.165 3.95284 204.665 4.09166 205.012 4.09137C206.353 4.08874 209.195 3.98024 210.901 3.99816C211.257 4.00222 211.108 4.15828 211.885 4.1725C211.976 4.17418 212.308 4.01168 212.989 3.9793C213.67 3.94694 214.198 4.02923 214.635 4.01354C215.001 4.00048 214.848 3.85517 215.598 3.84836C216.223 3.84026 223.304 3.97729 223.688 4.00528C224.241 4.04193 224.502 4.24701 224.84 4.22438C224.899 4.21945 225.001 4.02366 225.207 4.01095C228.602 3.79832 236.115 4.13455 239.992 4.18209C243.845 4.22679 247.559 4.25212 251.271 4.27872C255.368 4.30819 259.468 4.33922 263.757 4.4028C263.904 4.3716 264.05 4.34042 264.197 4.30925C263.37 4.29094 262.544 4.27299 261.717 4.25541C261.714 4.16288 261.71 4.07035 261.707 3.97782C260.59 3.94128 260.733 4.16289 260.762 4.29537C260.35 4.23139 259.937 4.1675 259.525 4.10369C259.163 4.41875 256.408 4.15354 254.986 4.12989C254.06 4.11383 252.958 4.21828 252.47 4.20078C251.44 4.16424 251.47 3.96605 251.39 3.96155C251.372 3.96069 251.333 3.96245 251.276 3.96613C250.888 3.99103 249.678 4.1044 248.774 4.08494C247.24 4.05243 247.079 3.74453 244.974 3.97453C242.285 3.77916 239.302 3.82218 236.402 3.81734C236.957 3.54096 234.355 3.78054 233.183 3.76543C226.031 3.66817 217.241 3.50083 209.995 3.38383C209.064 3.36881 208.36 3.20233 207.841 3.20771C207.56 3.21048 207.437 3.40641 207.046 3.38051C206.978 3.37554 206.93 3.19224 206.202 3.16489C204.392 3.09506 199.884 3.40991 198.742 3.06288C195.357 3.10328 191.973 3.15006 188.589 3.20326C185.784 3.24736 182.979 3.29588 180.175 3.34884C180.019 3.27554 179.862 3.20227 179.706 3.129C178.535 3.52258 173.884 3.35069 171.618 3.40023C167.629 3.48461 162.542 3.68476 159.047 3.76192C158.287 3.7785 157.663 3.68152 156.944 3.69732C156.635 3.70429 156.253 3.85233 155.931 3.85928C152.319 3.93892 147.422 3.89983 143.781 3.99137C137.703 4.14273 131.887 4.29258 125.904 4.47421C123.748 4.53974 121.571 4.60952 119.353 4.6855C100.584 5.32916 81.8994 6.25968 63.271 7.34185C53.8978 7.88637 44.5387 8.46934 35.1898 9.0737C34.8154 9.09791 34.8231 8.93523 34.5329 8.95379C32.8194 9.0614 29.0043 9.45974 27.0702 9.59068C25.5292 9.69411 23.0658 9.62448 22.5537 9.91189C28.0538 9.88861 33.8345 9.45838 39.5407 9.18852C39.9464 9.16926 40.0068 9.31947 40.0569 9.319C40.983 9.31193 40.3865 9.13851 41.724 9.04186C42.1711 9.00851 46.3331 9.235 45.8108 8.779C46.8127 8.90861 53.7922 8.57778 55.1348 8.43631C55.5424 8.39236 55.2445 8.26497 55.3252 8.25284C55.6756 8.20002 55.8466 8.38994 56.1618 8.37651C57.0019 8.33909 59.1279 8.05334 59.5337 8.03136C60.2275 7.99258 61.9569 7.98409 63.3044 7.93925C63.7698 7.92371 64.1896 7.90374 64.5056 7.87635C65.6334 7.77886 65.4105 7.5823 66.3865 7.50953C67.1558 7.45297 66.3265 7.67366 68.0486 7.63324C68.9021 7.61247 71.8765 7.32881 72.601 7.29149C73.3252 7.25367 74.1374 7.33651 75.1358 7.27578C76.5741 7.18802 79.7013 6.96211 81.1642 6.85129C81.2515 6.84477 81.4567 6.67233 81.6723 6.66525C82.119 6.65039 81.9946 6.85704 82.3326 6.86107C82.6706 6.86319 88.5088 6.56398 89.5011 6.52334C90.1848 6.49344 90.6516 6.35299 91.0295 6.33712C91.3261 6.32498 91.3652 6.49031 91.6678 6.4787C91.7615 6.47452 92.5521 6.29421 93.3487 6.26269C94.1016 6.23254 96.9642 6.24769 97.2952 6.23545C97.5107 6.22692 97.2695 6.11834 97.9068 6.09434C98.4875 6.07285 98.8753 6.21086 99.2064 6.19937C99.9745 6.17249 100.828 6.00603 101.642 5.97237C103.985 5.87618 103.872 6.07244 104.013 6.07286C104.403 6.07466 104.553 5.89391 104.68 5.88527C105.22 5.84928 106.543 5.76561 107.024 5.74045C107.623 5.70901 107.884 5.86528 108.521 5.84173C108.996 5.82366 109.949 5.62577 111.032 5.57802C113.474 5.46932 116.379 5.33634 118.778 5.26178C119.493 5.23936 119.608 5.38727 119.827 5.3839C120.977 5.36642 121.615 5.17616 121.943 5.16769C123.009 5.13993 124.459 5.15267 125.926 5.17165C127.678 5.19419 129.456 5.22577 130.638 5.20372C131.523 5.1863 135.39 4.95415 137.575 4.91941C137.825 4.91509 137.594 5.04007 137.872 5.01416C138.536 4.95214 138.468 4.71186 138.805 4.71041C138.968 4.71047 139.343 4.83725 139.818 4.83871C142.279 4.84645 143.967 4.70031 145.089 4.68121C155.866 4.49761 166.854 4.37485 176.918 4.28317C178.04 4.27273 179.429 4.11364 181.125 4.23689C181.178 4.31157 181.23 4.38626 181.283 4.46094C181.342 4.38648 181.4 4.31202 181.459 4.23756C183.377 4.17939 184.102 4.07791 186.062 4.15626C186.231 4.1628 186.749 4.50206 187.064 4.07334C188.399 4.2755 188.314 4.19608 188.596 4.11359C188.724 4.07595 188.929 4.03772 189.381 4.0257C190.821 3.98739 192.222 4.07442 193.619 4.08878C194.385 4.23735 191.175 4.60672 190.965 4.60743C190.628 4.60811 190.276 4.39833 189.951 4.38915C189.462 4.37515 188.981 4.41351 188.598 4.42989C188.228 4.44571 187.949 4.44103 187.843 4.34886C186.601 4.558 188.148 4.44669 187.994 4.62804C187.163 4.55945 186.333 4.49125 185.502 4.42343C185.084 5.03846 180.491 4.28142 180.814 4.7458C180.449 4.65598 180.083 4.56624 179.717 4.47657C178.124 5.0786 177.179 4.67647 175.043 4.52774C175.198 4.60075 175.353 4.67377 175.507 4.74681C175.464 4.77839 173.582 4.92118 174.252 4.59403C172.326 5.03843 172.399 4.33854 170.675 4.86716C169.648 4.94626 170.262 4.64384 168.421 4.67534C167.331 4.69398 165.98 4.86797 164.761 4.89814C164.481 4.9046 164.356 4.73665 164.106 4.74068C163.856 4.7448 163.737 4.91339 163.435 4.92256C162.81 4.94182 161.998 4.83857 161.607 4.85656C161.257 4.87219 160.76 5.02771 159.917 5.0658C156.972 5.2007 157.858 4.97528 157.392 4.9127C156.89 4.84661 156.536 5.12979 155.539 5.11707C155.439 5.11564 155.695 4.93831 155.37 4.95141C155.108 4.96186 154.98 5.15161 154.112 5.20385C153.768 5.22331 148.402 5.37681 147.585 5.40033C146.332 5.4332 143.538 5.34039 142.242 5.37384C141.742 5.38615 141.212 5.54977 140.681 5.56214C138.922 5.60281 136.106 5.6641 133.876 5.71919C131.867 5.76755 128.332 5.5398 127.241 5.87343C126.748 5.89524 126.32 5.90619 125.948 5.90937C124.195 5.92454 123.692 5.76609 123.517 5.7687C122.942 5.77748 122.681 5.95558 121.957 5.98699C112.574 6.38516 100.214 6.75239 91.3295 7.16827C82.0165 7.59912 72.6831 8.09547 63.3436 8.63764C52.016 9.29519 40.6798 10.0202 29.3574 10.7763C29.3073 10.8552 29.2572 10.9341 29.2072 11.013C31.6513 10.8898 34.529 10.8235 36.9407 10.6922C40.16 10.5149 44.914 9.89501 47.3069 10.2611C46.3525 10.3659 44.7805 10.2684 44.8252 10.5304C46.5375 10.4403 48.2498 10.352 49.962 10.2655C49.9034 10.1468 49.8449 10.0281 49.7863 9.90943C51.571 9.76387 53.4003 9.67984 55.1927 9.5559C55.5041 9.53454 55.2769 9.43701 55.5481 9.42037C55.8516 9.40199 55.6525 9.52676 55.7094 9.52429C56.4767 9.48005 56.7015 9.35264 56.7953 9.34876C57.0357 9.33918 56.8553 9.4585 57.5496 9.44838C58.8375 9.43009 59.7407 9.08934 59.4667 9.58657C59.8813 9.56267 60.2959 9.53888 60.7106 9.51519C60.8105 9.37841 60.9104 9.24164 61.0103 9.10488C61.967 9.2465 62.7233 9.19982 63.3705 9.11823C64.4694 8.97975 65.2536 8.74053 66.1663 9.15388C66.625 9.01623 67.0838 8.87871 67.5427 8.74132C67.8118 8.85775 68.081 8.97422 68.35 9.09073C68.3951 8.97584 68.4401 8.86094 68.4851 8.74605C70.995 8.69351 73.6547 8.41934 76.0518 8.31049C77.7216 8.23486 78.1237 8.25921 79.602 8.17748C82.8903 7.99703 79.6348 8.3792 82.3795 8.48663C82.2306 8.35597 82.0816 8.22533 81.9327 8.09469C82.3829 8.02236 82.8331 7.95014 83.2833 7.87806C83.6039 7.97513 83.9243 8.07226 84.2447 8.16945C85.615 7.52119 86.5429 7.94887 86.7331 7.93998C86.8868 7.9319 87.3988 7.55662 89.067 7.77772C88.359 7.33002 90.3292 7.71745 90.4853 7.71346C90.6337 7.70855 92.526 7.51686 93.2962 7.48781C93.9022 7.46455 95.1984 7.5115 96.1001 7.46796C96.8962 7.42947 96.8085 7.27038 96.8666 7.2662C97.8462 7.21118 97.2373 7.36351 97.9462 7.33984C98.655 7.31623 99.199 7.15486 99.3525 7.16091C99.4297 7.16431 99.1787 7.32645 99.5316 7.32648C100.479 7.32708 102.185 7.12479 103.268 7.08565C103.652 7.07154 104.141 7.18086 104.569 7.16796C105.224 7.14776 105.524 6.96514 105.905 6.95539C106.038 6.95248 106.893 7.18327 107.943 7.10278C108.142 7.08706 108.709 6.50668 109.519 7.26807C109.575 7.15457 109.631 7.04107 109.687 6.92758C113.202 6.52124 114.215 7.39168 115.754 6.53426C118.318 6.53503 116.571 6.90843 116.854 6.94653C117.036 6.97047 117.868 6.85596 117.96 6.85777C118.122 6.86182 118.098 6.96306 118.276 6.95645C121.537 6.82813 120.083 6.68774 121.112 6.5334C123.56 6.1677 125.498 6.74054 121.218 6.68822C121.219 6.74417 121.221 6.80013 121.223 6.85609C122.274 6.7676 124.946 6.70834 124.063 7.02049C123.367 7.26424 117.027 7.32906 120.625 7.52356C121.442 7.56771 121.858 7.34371 123.281 7.69218C124.215 7.6838 124.333 7.16929 125.603 7.3346C125.39 7.1631 125.177 6.99161 124.963 6.82016C125.288 6.76611 125.627 6.73107 125.973 6.70887C127.458 6.61354 129.066 6.75503 130.137 6.64276C130.585 6.59542 132.181 5.70029 131.828 6.55955C132.583 6.48421 136.149 6.542 136.809 6.44901C136.968 6.42659 137.163 5.96853 139.472 6.06668C139.633 6.11919 139.795 6.17172 139.956 6.22426C137.853 6.44262 141.579 6.51493 140.579 6.96942C140.231 6.78526 138.557 6.71072 138.285 6.62101C137.822 6.46628 139.184 6.21542 137.443 6.31983C136.363 7.06511 139.495 6.6529 139.033 7.34595C141.312 6.96964 141.548 7.26773 142.066 7.26735C144.28 7.26425 145.671 7.15944 147.761 7.19168C148.267 7.03994 144.482 6.92492 144.015 6.99728C145.727 6.46101 142.759 6.5088 141.515 6.8346C141.406 6.68753 141.297 6.54046 141.188 6.3934C142.82 6.43378 144.411 6.43721 146.023 6.27701C146.129 6.33055 146.236 6.3841 146.342 6.43766C145.982 6.53028 145.622 6.62297 145.261 6.71574C146.607 6.82257 145.792 6.40446 147.589 6.74623C147.641 6.57641 147.693 6.40659 147.744 6.23677C149.461 6.2542 151.177 6.27332 152.894 6.29414C153.78 5.93709 157.083 5.99905 156.487 6.44861C157.82 6.45422 156.171 6.25243 157.417 6.12235C157.96 6.06588 159.022 6.03347 159.286 6.14657C159.181 6.56528 157.593 6.64615 157.117 6.9416C157.41 7.02544 164.795 6.60017 164.144 7.10065C164.735 7.14977 164.46 6.9029 165.523 6.82184C168.502 6.59487 173.127 7.02884 175.521 6.37855C172.696 6.06599 171.867 6.44454 169.706 6.48911C168.326 6.5138 159.912 6.71115 161.784 6.24041C161.476 6.30167 161.168 6.36299 160.86 6.42436C160.545 6.29865 160.23 6.17299 159.915 6.0474C160.796 6.01284 161.676 5.97874 162.557 5.94507C162.769 6.07238 162.981 6.19971 163.194 6.32707C163.289 6.23205 163.385 6.13704 163.48 6.04204C163.851 6.01739 164.221 5.99282 164.592 5.96833C164.49 6.08229 164.387 6.19625 164.285 6.31022C164.857 6.3202 165.428 6.33037 166 6.34073C165.844 6.19307 165.688 6.04542 165.531 5.89779C168.222 5.81865 167.312 5.92678 168.809 6.18546C169.924 6.1983 168.037 5.93644 170.394 5.83007C173.135 5.70823 171.342 6.18965 174.892 6.04721C174.942 5.97173 174.992 5.89625 175.043 5.82077C175.824 5.88622 176.606 5.95203 177.388 6.01818C177.283 5.92624 177.179 5.83431 177.075 5.74238C178.687 5.76 180.906 5.56011 181.444 5.92035C179.808 5.76046 179.831 6.39833 180.257 6.51116C180.728 6.63524 184.67 6.59126 188.612 6.53016C192.021 6.47636 195.43 6.40929 196.595 6.39758C199.806 6.36489 202.231 6.56386 205.163 6.24744C203.176 5.98863 196.188 6.21982 194.863 6.0505C194.732 6.03366 194.766 5.44882 193.926 6.11064C192.313 6.05243 190.515 6.10152 188.61 6.15317C187.304 6.18855 185.948 6.22513 184.567 6.22902C184.67 6.05987 184.772 5.89071 184.874 5.72156C186.661 6.01264 188.329 5.47044 188.607 5.71733C188.654 5.75914 188.661 5.82357 188.622 5.91853C189.038 5.91565 189.453 5.91287 189.868 5.91018C189.867 5.79756 189.867 5.68493 189.866 5.57231C190.492 5.56826 191.118 5.56443 191.744 5.56082C191.745 5.67345 191.745 5.78607 191.746 5.8987C192.264 5.89571 192.783 5.89287 193.301 5.89018C193.355 5.7776 193.408 5.66502 193.461 5.55245C195.015 5.77605 200.307 5.13472 197.982 5.81336C198.711 5.81085 199.441 5.80864 200.17 5.80672C200.167 5.72438 200.165 5.64203 200.162 5.55968C200.475 5.54779 200.789 5.53595 201.102 5.52417C200.999 5.59895 200.896 5.67373 200.793 5.74852C202.229 5.61149 203.592 6.00195 204.535 5.74313C203.912 5.68744 203.29 5.63197 202.668 5.57672C203.861 5.68136 206.059 5.45822 206.256 5.45777C206.856 5.45645 207.172 5.6229 207.822 5.63146C208.409 5.63883 208.328 5.51091 208.437 5.51545C211.601 5.64802 210.394 6.33993 211.873 5.52205C212.03 5.6343 212.187 5.74655 212.344 5.85882C212.553 5.76579 212.763 5.67279 212.972 5.57981C213.906 5.59056 214.841 5.6018 215.775 5.61352C215.464 5.47257 215.153 5.33168 214.841 5.19084C216.242 5.13234 216.894 5.41556 217.03 5.42243C217.414 5.44015 217.59 5.26468 217.709 5.2648C223.417 5.30519 219.949 5.4447 222.798 6.12112C223.816 5.86736 222.789 5.60104 222.646 5.33609C223.998 5.46782 224.42 5.39726 225.847 5.42148C226.218 5.42799 226.617 5.57333 226.851 5.57694C227.054 5.58007 227.689 5.43326 228.177 5.43639C228.989 5.44148 230.069 5.54047 231.181 5.54798C232.106 5.55351 234.938 5.47309 236.912 5.49375C237.754 5.50294 237.557 5.62753 237.775 5.63019C237.865 5.63119 238.524 5.48681 239.064 5.49251C243.084 5.53604 247.196 5.67238 251.247 5.74905C251.637 5.75643 252.027 5.76325 252.416 5.76939C255.536 5.81884 258.71 5.75417 261.835 5.82831C262.501 5.84431 262.146 5.94871 262.437 5.95843C262.536 5.96145 262.66 5.76936 263.687 5.86843C264.058 5.9042 263.628 6.03137 263.994 6.04562C264.171 6.05253 264.25 5.88357 265.291 5.86644C267.182 5.83518 268.193 6.08507 268.361 6.08194C268.68 6.0759 268.59 5.93283 269.012 5.93715C271.074 5.95836 272.794 5.9747 274.633 6.00743C275.492 6.02073 281.415 6.14416 281.74 6.1799C282.466 6.25576 281.781 6.5319 282.714 6.54705C282.977 6.47962 283.24 6.41222 283.504 6.34486C283.09 6.27688 282.676 6.20899 282.263 6.14119C283.403 6.26657 284.702 6.1685 285.549 6.19737C285.705 6.20284 287.14 6.37703 287.874 6.38377C287.561 6.43007 287.247 6.47643 286.934 6.52283C287.042 6.57316 287.151 6.6235 287.261 6.67384C288.73 6.64439 290.282 6.69193 291.787 6.74761C292.33 6.76751 292.143 6.87655 292.692 6.89724C295.891 7.02029 295.098 6.51837 298.147 7.5117C297.11 7.39607 293.317 7.39096 292.766 7.34501C292.382 7.3123 290.916 6.51151 291.439 7.30374C288.367 7.20879 291.048 6.85985 288.176 6.86925C288.23 6.96559 288.285 7.06194 288.339 7.15829C287.336 7.18888 286.595 7.2157 285.991 7.03142C285.774 7.4846 282.38 7.12117 280.512 7.10367C277.813 7.07644 274.762 7.11277 272.09 7.07018C271.169 7.05536 270.652 6.86349 270.537 6.8614C270.368 6.85884 269.89 7.00574 269.553 6.9993C268.294 6.97467 264.471 6.62646 263.51 7.04568C270.998 7.19808 278.482 7.38016 285.968 7.59153C285.033 7.34765 292.606 7.5473 292.99 7.57267C293.345 7.5932 293.041 7.73507 293.146 7.74748C293.931 7.83644 294.609 7.63841 294.859 7.64624C295.049 7.65224 295.43 7.76701 296.108 7.78625C296.232 7.78987 296.27 7.68229 296.403 7.68622C297.286 7.71435 298.158 7.74406 299.045 7.77254C299.099 7.77536 299.317 7.94142 299.541 7.94907C299.765 7.95646 299.992 7.80521 300.049 7.80659C300.757 7.83111 301.969 7.97503 302.643 7.99915C302.877 8.00706 302.718 7.8853 302.98 7.89535C303.786 7.92572 303.513 8.14411 304.51 8.11992C304.845 8.11177 304.829 7.93698 305.468 7.98225C305.92 8.01442 305.86 8.32281 305.931 8.33659C306.03 8.35358 307.6 8.16395 308.103 8.38536C306.968 8.8811 309.323 8.45714 309.219 8.22723C309.836 8.30659 310.452 8.38614 311.069 8.4659C311.282 8.41643 311.495 8.36698 311.708 8.31756C312.489 8.42759 313.175 8.4937 313.825 8.53794C315.246 8.63475 316.494 8.62683 318.177 8.74746C318.295 8.75585 320.359 8.96527 320.259 9.04211C319.015 9.13104 317.78 9.08889 316.997 8.80199C315.73 9.22129 315.67 8.88091 313.813 8.83812C313.732 8.83626 313.647 8.83496 313.558 8.83434C312.852 8.82972 312.797 8.9604 312.716 8.95903C309.97 8.92125 305.578 8.82207 303.743 8.37191C303.221 8.45879 305.082 8.56464 304.356 8.6168C303.958 8.641 294.452 8.45393 297.502 8.10737C297.187 8.10957 296.871 8.11183 296.556 8.11414C296.227 8.52532 294.664 8.37962 294.855 7.96558C294.703 8.04683 294.552 8.12808 294.401 8.20935C294.106 8.27288 293.757 8.30103 293.27 8.30913C291.402 8.33286 280.317 7.87538 279.724 7.92609C279.708 8.02531 279.692 8.12453 279.676 8.22375C284.573 8.46434 289.332 8.35202 294.666 8.80383C294.514 8.70561 294.362 8.60739 294.21 8.50919C296.337 8.70627 298.464 8.9057 300.591 9.10747C298.329 9.20082 294.738 9.22817 292.373 9.01736C291.953 8.97973 292.266 8.85889 292.169 8.84018C291.918 8.79155 291.639 9.00915 290.731 9.00392C289.822 8.9984 287.546 8.77185 287.337 8.77058C286.933 8.76825 285.838 8.99582 285.152 8.97342C284.251 8.94377 284.86 8.8006 284.679 8.79218C283.931 8.75565 283.258 8.81657 282.672 8.78886C281.802 8.7475 279.999 8.41827 279.38 8.81585C280.002 8.85086 280.623 8.88608 281.245 8.92151C277.868 8.98028 275.244 8.38627 271.911 8.71581C271.145 9.19849 273.891 9.19515 271.565 9.35441C271.987 9.35703 272.408 9.35974 272.83 9.36256C272.931 9.26011 273.033 9.15766 273.134 9.05523C273.858 9.14732 274.582 9.23969 275.306 9.33234C275.101 9.23387 274.896 9.13542 274.692 9.03699C277.267 9.02889 279.869 9.00098 280.754 9.52686C280.811 9.40689 280.867 9.28692 280.923 9.16695C283.309 9.37709 286.909 8.96444 286.22 9.62089C286.334 9.58831 286.449 9.55573 286.563 9.52316C288.003 9.70248 287.394 9.40563 287.938 9.3897C288.093 9.38493 290.896 9.61196 289.646 9.77572C292.38 10.0105 291.555 9.35455 292.31 9.34956C294.055 9.71508 297.221 9.3466 295.88 9.79854C296.141 9.82536 296.401 9.85221 296.661 9.8791C297.532 9.51783 298.363 9.98499 299.287 10.1626C299.602 10.1817 299.917 10.2009 300.231 10.2201C300.446 10.0963 300.662 9.97259 300.877 9.84885C303.819 10.5711 302.939 8.83751 304.244 10.3141C304.03 10.3924 303.816 10.4706 303.602 10.549C303.101 10.5724 302.599 10.5961 302.098 10.6198C304.113 10.7258 306.129 10.8339 308.143 10.944C310.278 11.3576 311.658 11.1563 313.719 11.3316C314.115 11.3653 314.535 11.4129 314.991 11.4814C315.259 11.4536 315.526 11.4257 315.794 11.3979C315.51 11.7113 314.48 11.6239 316.397 11.8434C316.553 12.0787 315.253 12.0581 314.667 11.8599C314.526 11.8116 315.747 11.6826 314.382 11.6243C313.684 11.5945 314.461 11.7793 313.702 11.784C313.453 11.7855 313.039 11.7677 312.353 11.7168C312.454 11.7766 312.555 11.8365 312.656 11.8963C312.354 11.8833 312.053 11.8705 311.752 11.8576C311.488 11.7182 311.225 11.5788 310.962 11.4395C310.266 11.6011 309.87 11.8487 308.298 11.7362C308.728 11.6705 308.158 11.3896 307.379 11.3662C307.376 11.4599 307.372 11.5535 307.369 11.6472C305.481 11.6406 306.142 11.3887 304.566 11.5486C304.412 11.4687 304.258 11.3887 304.103 11.3088C303.238 11.5857 300.087 11.689 300.676 11.2481C299.778 11.6658 297.933 11.4034 297.255 11.0237C297.199 11.115 297.143 11.2064 297.087 11.2977C296.72 11.3048 296.353 11.312 295.985 11.3192C295.783 11.2564 295.58 11.1937 295.377 11.1309C295.115 11.179 294.854 11.2271 294.592 11.2753C294.438 11.177 294.284 11.0787 294.13 10.9805C293.709 11.0794 293.287 11.1784 292.866 11.2775C292.613 11.1952 292.359 11.1129 292.106 11.0306C292.073 11.2243 289.539 11.1916 288.835 11.0434C288.623 11.0939 288.41 11.1443 288.198 11.1948C288.097 11.0991 287.997 11.0034 287.897 10.9077C287.738 10.9773 287.579 11.047 287.42 11.1166C287.06 11.032 286.701 10.9475 286.341 10.8631C284.854 11.276 284.818 10.8761 284.481 10.8694C283.856 10.8571 281.724 11.0842 281.368 11.0603C281.014 11.036 280.847 10.8683 280.561 10.8454C275.843 10.4664 277.774 10.9554 276.825 11.0003C276.312 11.0253 275.954 10.8641 275.502 10.8698C274.728 10.8781 270.823 10.9875 270.599 10.9634C270.273 10.9275 271.059 10.2271 269.992 10.3879C269.948 10.7724 267.685 10.3327 268.735 10.894C267.8 10.826 266.866 10.7585 265.931 10.6914C266.028 11.1507 264.88 10.8321 263.623 10.8319C261.842 10.83 257.829 11.0551 257.984 10.5895C257.555 10.6894 257.127 10.7894 256.698 10.8894C254.841 10.762 253.004 10.7595 251.167 10.7648C250.12 10.7678 249.073 10.7733 248.022 10.7598C239.425 10.6485 230.1 10.4527 221.544 10.3163C221.133 10.3096 221.193 10.1568 220.896 10.1519C219.34 10.1264 215.295 10.2192 213.116 10.1815C212.418 10.1693 212.078 10.0194 211.857 10.0121C211.105 9.98667 211.282 10.1838 210.936 10.1777C210.39 10.1675 207.502 9.98276 206.507 9.96439C206.014 9.95504 205.432 10.1118 204.855 10.064C204.806 10.0601 204.897 9.8988 204.855 9.89602C203.804 9.87734 204.436 10.0161 204.081 10.0091C201.546 9.95967 198.836 9.96336 196.085 9.94156C195.402 9.93589 194.356 9.82708 193.77 9.81936C193.546 9.81672 193.948 9.93696 193.175 9.93081C192.91 9.92874 192.819 9.77016 192.52 9.76147C191.231 9.72527 190.804 10.2391 189.694 9.8351C189.373 9.84127 189.017 9.85008 188.635 9.86071C186.481 9.92043 183.547 10.0403 181.891 10.0587C181.43 10.0636 181.205 9.97181 180.766 9.97783C180.454 9.98203 179.907 10.1331 179.42 10.1399C178.934 10.1467 178.165 10.0162 177.229 10.0318C176.245 10.0479 175.02 10.1449 174.798 10.1471C174.53 10.1504 174.403 9.97691 174.135 9.98244C173.324 9.99789 171.155 10.1983 170.111 10.2317C168.989 10.2671 168.314 10.1922 167.93 10.1996C167.575 10.2071 167.163 10.3611 167.001 10.3648C166.749 10.3709 166.687 10.1992 166.366 10.2055C165.842 10.2164 165.304 10.3334 164.519 10.3488C151.527 10.6069 138.767 10.832 126.109 11.1133C124.989 11.1382 123.869 11.1636 122.75 11.1895C121.216 11.2251 120.354 11.3742 118.093 11.3958C117.176 11.4046 117.556 11.2133 116.844 11.2716C116.526 11.2978 116.612 11.435 116.21 11.4558C114.434 11.5468 112.36 11.4917 111.59 11.5223C111.285 11.5342 110.942 11.706 110.316 11.7315C105.653 11.9224 100.131 12.0986 95.114 12.3438C92.457 12.4728 88.4375 12.7348 85.389 12.89C78.1864 13.2545 70.5175 13.6282 63.6449 14.0166C62.4795 14.0824 61.337 14.1484 60.2236 14.2146C48.6283 14.9039 37.1041 15.7957 25.5319 16.4529C30.9672 16.4464 38.3298 15.9115 44.3561 15.5694C50.6748 15.2084 57.1406 14.8178 63.6682 14.4325C75.122 13.7559 86.7675 13.0976 98.1397 12.6253C104.352 12.3654 112.184 12.0574 118.99 11.9184C119.298 11.9119 119.934 11.7681 120.601 11.759C120.743 11.7572 122.506 11.9227 123.098 11.9061C122.525 11.5275 124.855 11.8067 125.571 11.7751C125.729 11.768 125.916 11.7544 126.129 11.737C127.137 11.6544 128.724 11.4869 130.473 11.5284C132.396 11.574 131.87 11.7422 131.977 11.7487C132.657 11.7911 132.887 11.5385 133.407 11.499C135.529 11.3333 146.467 11.1999 149.519 11.1497C150.308 11.1348 150.334 11.2907 150.511 11.2874C150.982 11.2784 151.649 11.1097 152.403 11.0952C153.762 11.0692 155.33 11.1858 156.078 11.172C157.867 11.1387 161.259 10.9031 163.585 10.8621C164.239 10.8504 164.202 11.0138 164.498 11.0084C165.801 10.984 169.192 10.7414 170.811 10.7182C173.438 10.6794 176.145 10.7517 178.815 10.6697C178.985 10.7405 179.155 10.8113 179.325 10.8821C179.591 10.8032 179.858 10.7243 180.124 10.6454C182.946 10.653 185.8 10.5784 188.64 10.5186C190.346 10.4826 192.047 10.4519 193.733 10.4475C194.25 10.4456 196.814 10.5734 197.241 10.5727C197.597 10.5714 197.946 10.3904 198.473 10.4151C199.211 10.4495 198.518 10.794 199.723 10.6926C200.047 10.6652 199.733 10.5194 200.384 10.4721C200.599 10.4554 204.774 10.3889 204.999 10.3998C205.373 10.4166 205.707 10.7304 205.803 10.7371C206.305 10.7723 206.284 10.5313 206.62 10.5093C207.614 10.4431 208.912 10.606 209.073 10.6026C211.026 10.5587 214.674 10.3738 216.723 10.4954C217.006 10.5123 216.971 10.6917 217.021 10.6977C217.342 10.736 217.542 10.5324 217.847 10.5289C219.491 10.5119 222.064 10.6623 223.716 10.7075C223.906 10.7125 224.309 10.6167 224.648 10.6284C226.568 10.6962 225.944 10.85 226.053 10.8574C226.312 10.876 226.768 10.7052 227.457 10.6995C229.231 10.6834 232.633 10.7378 234.535 10.7709C235.96 10.796 235.936 10.9952 236.029 11.0001C236.229 11.0094 236.786 10.8561 237.724 10.8485C239.529 10.8334 239.322 10.9879 240.063 10.9899C240.126 10.9906 240.019 10.8361 240.842 10.8304C242.433 10.8188 246.004 11.0175 247.706 11.0354C248.36 11.0423 248.516 10.8969 249.186 10.9043C249.677 10.9094 250.452 10.9543 251.163 11.0017C251.991 11.0568 252.732 11.1152 252.834 11.1167C252.887 11.1176 253.008 10.9496 253.32 10.9548C253.663 10.9606 253.999 11.0538 254.254 11.0576C255.71 11.0797 258.224 10.8292 257.516 11.4229C257.985 11.2817 258.455 11.1406 258.924 10.9996C261.972 11.0867 264.935 11.0871 267.957 11.1229C268.636 11.1311 269.201 11.2586 269.775 11.266C270.348 11.273 272.882 11.1418 273.305 11.1487C274.059 11.1595 278.347 11.2461 278.88 11.2744C279.92 11.3271 280.924 11.6044 281.349 11.5667C281.69 11.5364 281.38 11.3868 282.029 11.3642C283.153 11.325 285.055 11.5592 285.398 11.5662C285.544 11.5692 285.273 11.4512 286.644 11.4823C287.383 11.4988 287.776 11.6316 288.045 11.6388C288.128 11.6406 288.009 11.4401 289.47 11.5095C290.48 11.5579 290.906 11.7226 291.012 11.7264C291.171 11.7322 291.56 11.5818 292.199 11.6069C293.692 11.6662 296.415 11.9375 297.832 11.9979C298.106 12.0096 298.019 11.8109 299.113 11.8647C299.894 11.9034 299.753 12.0545 300.045 12.0704C300.509 12.0954 301.207 11.9279 302.233 11.9688C303.525 12.0157 313.095 12.5587 313.589 12.633C313.616 12.6368 313.643 12.6403 313.669 12.6437C313.982 12.6832 314.321 12.7041 314.47 12.7876C314.325 12.8632 314.181 12.9389 314.036 13.0145C313.891 12.9806 313.766 12.9536 313.659 12.9324C312.686 12.7406 313.121 13.0226 312.769 13.0282C312.204 13.0367 310.081 12.9167 309.564 12.9703C309.38 12.9897 309.793 13.1777 308.806 13.231C307.747 13.288 307.288 12.9635 306.852 13.3692C305.371 12.849 303.914 13.2948 305.645 13.4877C306.254 13.5554 310.259 13.781 313.619 13.9708C315.584 14.0812 317.329 14.1783 318.044 14.216C319.615 14.2983 322.566 14.2919 324.498 14.4047C325.634 14.4705 328.433 14.6113 328.305 14.8301C329.313 14.9015 328.255 14.6331 328.468 14.6113C328.914 14.5651 332.055 14.8558 332.651 14.8766C335.591 14.9771 339.314 14.8976 342.155 15.3155C342.019 15.369 341.884 15.4225 341.748 15.4761C341.102 15.5551 338.132 15.2594 337.783 15.5315C342.136 15.7318 346.486 15.9414 350.839 16.1606C350.771 15.911 356.167 16.1905 356.416 16.3155C356.315 16.4289 356.215 16.5423 356.114 16.6557C353.088 16.0485 353.331 16.6568 351.299 16.2375C350.465 16.191 350.707 16.3993 350.294 16.4158C346.187 16.5813 350.249 16.0106 347.11 16.0308C348.038 16.3607 345.469 16.3383 344.319 16.3194C344.057 16.3141 340.628 16.079 340.22 16.065C337.927 15.9824 333.986 15.9592 331.717 15.7044C329.925 15.6071 328.93 15.7667 327.3 15.7441C326.063 15.7272 326.423 15.6002 325.841 15.574C324.621 15.5189 324.201 15.9347 323.445 15.2994C322.614 15.3404 321.784 15.3818 320.954 15.4236C320.958 15.3299 320.961 15.2362 320.965 15.1426C320.445 15.1216 319.926 15.1008 319.406 15.0801C319.25 15.1674 319.093 15.2546 318.936 15.3419C317.293 15.1489 317.99 14.9506 317.692 14.6732C317.337 14.6411 316.981 14.6089 316.625 14.5769C316.341 14.7698 316.058 14.9627 315.774 15.1557C315.042 15.1198 314.31 15.0842 313.579 15.0489C312.72 15.0074 311.861 14.9663 311.002 14.9256C310.903 14.8285 310.803 14.7313 310.704 14.6342C310.697 14.7274 310.69 14.8207 310.684 14.9139C307.988 14.8338 305.295 14.7575 302.599 14.6849C301.876 14.8096 306.191 15.0721 306.517 15.0936C308.333 15.2062 313.167 15.2351 313.161 15.5691C313.273 15.5487 313.408 15.5322 313.561 15.5194C314.95 15.4021 317.805 15.5898 318.747 15.8964C317.142 15.8149 315.536 15.7347 313.93 15.6558C313.978 15.7694 314.025 15.8829 314.073 15.9965C313.884 15.9462 313.709 15.9009 313.548 15.8604C312.016 15.4766 311.596 15.5179 309.721 15.8343C309.725 15.6846 309.728 15.5349 309.732 15.3852C308.279 15.8527 305.774 14.8804 305.679 15.5204C304.917 15.4415 304.155 15.3629 303.392 15.2846C301.74 15.3076 304.284 15.8849 297.833 15.4781C297.388 15.4502 297.486 15.2895 296.816 15.2792C296.623 15.2765 295.511 15.4787 293.398 15.3885C293.068 15.3744 293.048 15.2316 292.706 15.2031C291.916 15.1359 290.333 15.3695 291.062 14.9333C287.933 14.7065 289.22 15.121 288.245 15.2417C287.594 15.322 287.733 15.055 287.17 15.1003C286.475 15.1568 286.976 15.4434 284.204 15.2403C284.516 15.2303 284.828 15.2205 285.14 15.2107C284.985 15.1321 284.83 15.0535 284.676 14.975C283.087 15.109 283.243 14.8533 282.485 15.2498C281.338 15.0328 280.342 14.9913 278.765 14.9844C275.703 14.9726 277.261 15.4608 273.783 14.7704C273.215 14.8418 272.647 14.9133 272.079 14.9849C271.154 14.7847 271.911 14.5786 270.524 14.5015C271.6 14.9675 268.674 14.7398 268.171 15.1226C268.121 15.0278 268.071 14.9329 268.021 14.838C267.711 14.8312 267.401 14.8244 267.091 14.8177C267.088 14.8929 267.085 14.968 267.083 15.0432C266.671 14.9779 266.259 14.9127 265.847 14.8477C265.535 14.9156 265.223 14.9836 264.911 15.0516C264.404 14.8838 263.896 14.716 263.389 14.5484C263.068 14.5312 262.748 14.514 262.428 14.4968C262.527 14.6108 262.626 14.7248 262.725 14.8388C262.314 14.7931 261.903 14.7474 261.491 14.7019C261.967 14.8951 261.662 15.1043 260.379 15.0738C259.321 15.0491 260.521 14.688 258.242 14.8049C258.083 14.8134 257.797 15.081 255.645 15.0851C253.065 15.091 254.321 14.9148 253.861 14.9C253.771 14.8973 252.981 15.0216 252.243 15.0292C251.824 15.0336 251.422 14.916 251.367 14.9154C251.257 14.9158 251.18 14.9442 251.1 14.9768C250.992 15.0208 250.878 15.0723 250.673 15.0723C249.764 15.0714 248.545 14.9757 247.655 14.9705C247.25 14.9679 246.868 15.0555 246.688 15.0541C246.408 15.0511 246.054 14.9038 245.771 14.9004C244.724 14.8885 243.131 15.3394 242.653 14.6776C241.64 15.2671 239.543 14.5129 239.692 14.9192C237.007 14.7314 229.835 15.1612 230.051 14.4856C228.524 15.0539 228.664 14.6346 228.026 14.6384C227.313 14.6425 227.682 14.758 227.115 14.7487C225.792 14.7272 224.529 14.6705 223.212 14.6605C223.419 14.5686 223.627 14.4768 223.834 14.3849C222.452 14.3469 222.926 14.5662 221.516 14.6003C218.922 14.6634 220.016 14.4962 219.634 14.2502C219.735 14.4859 216.677 14.4368 216.366 14.4053C216.181 14.3858 216.995 14.0846 215.122 14.1768C215.224 14.2705 215.326 14.3642 215.428 14.4579C214.576 14.3272 212.258 14.4843 211.865 14.4524C211.685 14.4375 210.719 13.6825 209.834 14.2779C209.728 14.1844 209.621 14.0908 209.514 13.9973C208.532 14.1088 207.55 14.2208 206.568 14.3334C206.412 14.1651 206.255 13.9969 206.098 13.8287C205.786 13.8288 205.475 13.829 205.163 13.8292C205.37 13.9785 205.577 14.1278 205.784 14.2771C203.86 14.2102 201.51 14.4506 201.113 13.9477C200.701 14.0421 200.289 14.1366 199.878 14.2311C199.609 14.0642 199.34 13.8973 199.071 13.7305C197.163 13.7789 197.132 13.8914 195.828 14.0754C195.878 13.9443 195.929 13.8132 195.979 13.6822C195.017 13.8698 193.261 14.0493 191.873 14.0805C191.213 14.0948 190.078 13.9216 189.923 13.939C189.824 13.9505 189.176 14.2394 188.666 14.2995C188.366 14.335 188.114 14.291 188.05 14.0641C185.772 14.3523 184.767 14.0839 183.842 14.0986C183.241 14.1084 182.969 14.2581 182.29 14.2796C181.319 14.3107 180.341 14.2493 179.78 14.2652C179.46 14.2747 179.402 14.4189 179.181 14.4257C178.136 14.4588 178.746 14.3054 177.645 14.3271C177.543 14.3299 176.74 14.5139 175.832 14.5021C175.324 14.4956 174.008 14.3147 173.893 14.3167C173.379 14.3267 173.795 14.7149 172.033 14.283C172.085 14.3572 172.137 14.4314 172.189 14.5056C170.018 14.7245 169.671 14.3962 169.231 14.3792C169.175 14.3781 168.648 14.5147 168.331 14.5016C167.796 14.4791 167.578 14.3057 167.459 14.2997C167.042 14.2788 165.638 14.378 164.717 14.222C164.918 14.7212 161.703 14.9529 160.98 14.3969C160.412 14.5191 159.845 14.6415 159.277 14.7641C159.018 14.675 158.759 14.586 158.499 14.497C158.344 14.5933 158.189 14.6896 158.034 14.7859C157.2 14.5956 156.366 14.4058 155.532 14.2163C155.483 14.4234 155.434 14.6304 155.386 14.8374C155.153 14.8186 154.92 14.7997 154.687 14.7809C154.503 14.6208 154.318 14.4607 154.133 14.3007C153.843 14.3378 153.553 14.3749 153.263 14.4121C153.194 14.532 153.124 14.6519 153.055 14.7719C151.496 14.9409 152.274 13.7934 149.32 14.8511C148.855 14.7679 148.39 14.6847 147.925 14.6018C147.412 15.068 146.427 14.8151 145.637 14.8847C145.081 14.9338 145.116 15.1136 144.357 15.1357C143.598 15.1578 143.621 14.9846 143.561 14.9849C142.942 14.9892 142.479 15.1529 142.024 15.1338C141.956 15.131 141.78 14.9302 141.2 14.9316C140.621 14.9333 140.278 15.1601 139.414 15.1412C138.972 15.1317 138.84 14.9623 138.448 14.9573C136.578 14.9317 134.722 15.8581 133.292 14.8599C132.98 15 130.704 15.5258 129.724 15.5286C128.199 15.5317 128.78 15.3107 128.173 15.2916C128.085 15.2887 127.623 15.3712 126.344 15.3983C126.301 15.3992 126.268 15.404 126.242 15.4113C126.134 15.4421 126.166 15.5169 126.139 15.5189C124.649 15.5624 121.752 15.5646 120.115 15.6033C119.968 15.6065 119.214 15.9522 117.902 15.5657C115.99 15.9492 112.344 15.3942 109.826 15.9694C109.475 15.9927 109.044 15.8943 108.888 15.9041C107.549 15.9907 108.054 16.3186 105.004 15.9279C105.256 16.0956 104.554 16.2834 103.552 16.3099C102.045 16.35 103.101 15.9763 101.892 16.0523C101.896 16.1456 101.9 16.2389 101.904 16.3323C99.1098 16.195 98.5725 16.6172 95.7803 16.7389C94.7761 16.7826 93.2828 16.641 93.0433 16.6511C92.9507 16.6557 91.8621 16.9295 91.7573 16.936C91.1667 16.9691 90.8285 16.8804 90.3184 16.9029C88.6327 16.9768 86.6355 17.3634 86.9745 16.815C86.5163 16.9488 86.0582 17.0827 85.6002 17.2167C83.8227 16.7318 82.5513 17.5776 82.1576 17.0442C81.8501 17.1732 81.5426 17.3023 81.2351 17.4314C75.4489 17.6701 69.6643 17.9292 63.8798 18.2088C62.156 18.2921 60.4326 18.3773 58.7089 18.4643C58.4208 18.6582 55.1451 18.7883 54.9757 18.7713C54.1978 18.6926 54.9885 18.2571 53.4214 18.44C53.2576 18.6198 53.0939 18.7996 52.9301 18.9794C50.9577 19.1546 51.8978 18.9285 51.1109 18.8614C50.7863 18.9022 50.8996 19.0271 50.4592 19.0638C48.0705 19.2621 43.166 19.5799 40.5519 19.7638C40.0248 19.8007 40.0962 19.6727 39.9324 19.6832C39.4822 19.714 38.604 19.9275 37.7006 19.988C32.1135 20.3581 24.1939 20.8319 18.5629 21.1261C18.1804 21.1457 18.1222 21.0029 17.864 21.015C17.5062 21.0323 16.7177 21.2109 16.3413 21.227C15.9867 21.2427 15.7517 21.1488 15.3722 21.1647C13.6356 21.236 11.3219 21.6041 9.44349 21.4228C9.28561 21.4072 7.29752 20.9723 7.2504 20.9374C6.9743 20.7289 8.67167 20.2306 5.80984 20.122C8.32024 19.627 7.48804 19.1712 4.17461 19.1841C5.82083 18.9851 7.46735 18.7879 9.11417 18.5924C9.1117 18.5308 9.10924 18.4693 9.10678 18.4078C7.57888 18.2226 6.07839 18.24 3.7893 18.3973C3.856 18.3347 3.92272 18.2721 3.98943 18.2096C5.98646 17.762 8.41963 17.5158 9.92831 17.008C7.6486 16.8986 5.36835 16.7925 3.08758 16.6898C3.19669 16.6358 3.30581 16.5819 3.41494 16.5279C4.48768 16.3234 6.8465 16.0655 7.73695 15.886C11.1381 15.2003 4.70694 15.8152 5.74448 15.4797C9.37091 15.198 12.9982 14.9247 16.6258 14.6597C16.7391 14.4532 2.74629 15.0351 2.84399 14.4738C3.98096 14.3433 5.11805 14.2137 6.25528 14.0849C5.73569 13.9831 5.21603 13.8815 4.69629 13.78C4.8327 13.7236 4.96912 13.6672 5.10555 13.6109C7.02076 13.3455 8.93645 13.0825 10.8526 12.8218C5.00951 13.3905 2.2854 13.5365 0.791893 12.5292C0.947533 12.4877 1.10437 12.446 1.26062 12.4045C2.58597 13.0003 8.55114 12.2911 11.7223 11.9069C11.0578 11.7511 8.26898 12.1296 7.66733 12.0535C7.49677 12.0313 8.07046 11.8423 7.67603 11.8C6.6452 11.6893 2.29659 11.7947 2.9067 11.5118C3.29922 11.3266 10.2505 10.566 11.6116 10.4796C8.4042 10.4581 5.11506 10.6417 1.89294 10.5764C3.87283 9.95712 5.61531 9.25464 9.29802 8.9401C10.4025 8.61047 2.57573 8.90036 2.3841 8.78841C3.72267 8.53869 5.06158 8.29012 6.40083 8.04268C5.26161 8.17099 4.12251 8.30013 2.98353 8.43009C2.9764 8.38364 2.96926 8.3372 2.96213 8.29075C5.90289 7.83413 8.57908 7.22078 11.9693 6.98562C11.8409 6.74663 9.81544 6.92856 8.83172 7.00393ZM333.055 16.3324C333.114 16.5408 331.878 16.4522 331.181 16.4178C331.284 16.4598 331.387 16.5018 331.49 16.5438C330.005 16.4392 327.239 16.242 327.119 16.6366C326.056 16.6412 326.539 16.3144 326.199 16.2605C326.066 16.239 324.672 16.3826 323.574 16.0915C323.311 16.0816 323.047 16.0717 322.784 16.0619C322.727 16.1906 322.671 16.3192 322.615 16.4479C322.254 16.2742 321.894 16.1005 321.533 15.9269C325.371 16.0545 329.212 16.1897 333.049 16.3321C333.051 16.3322 333.053 16.3323 333.055 16.3324ZM294.791 15.0499C293.397 14.932 291.258 14.7506 291.68 15.122C292.563 15.1298 293.448 15.1382 294.331 15.1468C294.484 15.1145 294.638 15.0822 294.791 15.0499ZM155.689 13.8783C154.514 13.5483 153.445 13.8748 151.638 13.849C151.641 13.9234 151.645 13.9979 151.649 14.0724C152.384 13.8777 154.339 13.9567 155.689 13.8783ZM367.797 16.7264C368.052 16.7684 368.308 16.8104 368.563 16.8525C367.495 17.1939 367.324 16.9015 366.139 16.8747C366.068 16.8732 366.088 16.9662 366.063 16.9654C365.773 16.9555 365.512 16.8305 365.25 16.8178C364.746 16.7934 364.329 16.8825 363.436 16.8299C362.745 16.7888 362.748 16.6129 362.505 16.6042C362.298 16.5972 360.223 16.9698 358.915 16.6914C356.427 16.1582 367.035 16.6411 367.797 16.7264ZM375.212 17.4816C374.964 17.4688 374.716 17.456 374.468 17.4432C375.229 17.2167 373.721 17.17 372.616 17.1122C372.665 16.8551 374.996 17.1009 376.046 17.0853C375.769 17.2174 375.49 17.3495 375.212 17.4816ZM343.868 15.2574C344.84 15.2777 344.662 15.5932 344.617 15.6875C344.308 15.6726 343.999 15.6577 343.69 15.6429C343.749 15.5144 343.808 15.3859 343.868 15.2574ZM351.177 15.5049C350.864 15.709 348.751 15.6994 347.75 15.6684C347.707 15.6663 347.987 15.5593 347.28 15.5357C347.067 15.5285 344.959 15.8653 345.442 15.3902C347.353 15.4265 349.263 15.4647 351.174 15.5048C351.175 15.5048 351.176 15.5048 351.177 15.5049ZM353.299 15.7428C352.899 15.7914 352.498 15.8401 352.097 15.8888C351.897 15.7753 351.697 15.6619 351.497 15.5484C351.95 15.5453 352.404 15.5423 352.857 15.5393C353.005 15.6071 353.152 15.6749 353.299 15.7428ZM54.263 16.1443C54.3619 16.2489 54.4608 16.3535 54.5597 16.4581C54.9213 16.504 56.6319 15.9214 56.0758 15.8612C55.4715 15.9553 54.8672 16.0497 54.263 16.1443ZM46.9053 16.3645C46.5401 16.3318 46.175 16.2991 45.8098 16.2665C45.4057 16.4796 45.0017 16.6929 44.5979 16.9063C46.4122 16.9165 48.3432 16.9419 47.9988 16.4104C48.4123 16.3845 48.8258 16.3588 49.2393 16.3332C48.9052 16.5826 48.9568 16.6545 50.0477 16.7322C50.2648 16.4007 51.3937 16.4931 52.6704 16.3459C51.7375 16.3838 50.8047 16.4223 49.872 16.4613C49.8685 16.4054 49.8651 16.3495 49.8616 16.2937C51.9397 16.1861 49.3365 15.9899 47.9975 16.297C47.8862 16.2292 47.775 16.1615 47.6637 16.0938C47.4109 16.184 47.1581 16.2743 46.9053 16.3645ZM197.223 11.5445C196.965 11.4891 196.707 11.4338 196.449 11.3785C195.452 12.1161 197.485 11.4116 198.936 11.9878C198.456 11.5482 200.665 11.5602 200.791 11.5306C200.537 11.3828 200.282 11.235 200.028 11.0872C199.093 11.2392 198.158 11.3916 197.223 11.5445ZM189.907 11.0759C190.312 11.2383 189.64 11.3375 188.646 11.3918C187.435 11.4577 185.745 11.4577 184.935 11.4203C184.576 11.4034 183.935 11.2081 183.677 11.2358C183.521 11.3114 183.364 11.387 183.208 11.4626C183.02 11.2074 180.144 11.523 179.011 11.6735C178.904 11.5813 178.796 11.489 178.688 11.3967C178.275 11.4382 177.862 11.4799 177.449 11.5216C177.5 11.4279 177.551 11.3342 177.602 11.2406C177.29 11.356 176.979 11.4715 176.667 11.5871C175.441 11.7258 176.192 11.2095 175.271 11.3788C174.248 11.567 175.932 11.849 175.903 12.0461C176.735 11.9854 178.625 11.8509 179.469 11.8367C179.954 11.8288 179.408 12.1863 181.494 11.7608C181.953 11.8508 182.412 11.9409 182.871 12.0311C183.711 11.8734 184.551 11.716 185.391 11.5591C185.549 11.6884 185.707 11.8176 185.865 11.9469C185.955 11.9664 187.898 11.6553 187.793 11.5582C188.017 11.6273 188.308 11.6795 188.648 11.7189C189.508 11.8183 190.684 11.836 191.904 11.8381C192.068 11.7662 192.232 11.6943 192.395 11.6225C190.748 11.7851 191.871 11.5504 191.378 11.4174C191.094 11.3407 190.226 11.1922 189.907 11.0759ZM65.7088 15.1987C64.2493 15.449 64.0451 15.4658 63.7253 15.4512C63.4435 15.4384 63.072 15.4012 61.6731 15.4806C61.8912 15.6371 62.1092 15.7936 62.3272 15.9502C62.7475 15.837 63.2499 15.7624 63.7394 15.7032C64.9393 15.558 66.0622 15.5053 65.7116 15.1986C65.7107 15.1986 65.7097 15.1987 65.7088 15.1987ZM36.5312 17.5473C38.1033 17.3396 37.2934 17.1307 39.2896 16.914C39.2906 16.9139 39.2915 16.9138 39.2925 16.9138C38.2561 16.9634 37.2197 17.0137 36.1834 17.0647C36.2994 17.2256 36.4153 17.3864 36.5312 17.5473ZM128.928 12.8724C130.447 12.9006 130.145 12.7783 131.529 13.0003C133.569 12.6239 131.836 12.7184 131.827 12.43C131.361 12.528 130.895 12.6262 130.429 12.7245C129.286 12.4881 130.359 12.3207 130.358 12.2948C130.357 12.2948 130.356 12.2948 130.355 12.2949C130.353 12.2083 130.389 12.189 129.952 12.1494C129.611 12.3904 129.269 12.6314 128.928 12.8724ZM135.411 12.3305C134.896 12.5364 134.669 12.7886 136.039 12.8742C136.04 12.8742 136.041 12.8741 136.042 12.8741C136.14 12.4429 137.461 12.7533 138.058 12.7089C138.214 12.6583 138.369 12.6077 138.525 12.557C137.487 12.4809 136.449 12.4054 135.411 12.3305ZM158.286 11.4136C158.301 11.8865 157.154 11.9527 158.777 12.3588C159.091 12.3446 159.404 12.3305 159.718 12.3164C159.922 12.2089 160.126 12.1014 160.33 11.9939C164.324 12.7821 165.486 11.3022 158.77 11.9653C158.769 11.9657 158.768 11.966 158.767 11.9663C158.607 11.7821 158.447 11.5978 158.286 11.4136ZM151.278 11.5924C151.233 11.8418 151.187 12.0912 151.142 12.3406C150.251 11.7603 149.128 12.3561 147.395 11.9725C147.241 12.0515 147.087 12.1306 146.933 12.2096C146.285 12.0558 139.959 12.1626 141.339 12.5115C141.941 12.6632 143.238 12.4048 143.35 12.4073C143.731 12.4168 144.232 12.6182 144.873 12.5906C145.243 12.5744 146.019 12.3053 146.776 12.2884C148.468 12.2504 151.57 12.8563 153.781 12.1746C153.943 12.2462 154.105 12.3178 154.266 12.3895C155.916 12.3111 155.36 12.0847 156.902 12.3381C157.94 11.1363 150.729 12.5186 152.216 11.5327C152.215 11.5327 152.214 11.5328 152.213 11.5328C151.901 11.5526 151.59 11.5725 151.278 11.5924ZM105.84 13.3102C105.732 13.1022 103.831 13.5043 104.261 12.9794C103.643 13.1808 103.025 13.3823 102.408 13.5842C102.414 13.6311 102.421 13.6781 102.428 13.7251C103.047 13.6629 103.666 13.601 104.286 13.5394C104.291 13.6141 104.296 13.6888 104.302 13.7635C105.216 13.4552 109.081 13.4251 108.974 13.6952C109.176 13.5755 109.378 13.4559 109.58 13.3363C111.438 13.5718 113.015 13.1898 115.037 13.416C115.19 13.3178 115.343 13.2196 115.495 13.1214C115.599 13.1927 115.703 13.2639 115.807 13.3352C116.541 13.3189 117.274 13.303 118.007 13.2874C120.385 12.9047 115.731 12.6728 115.169 12.7381C115.095 12.7469 115.113 12.9402 114.647 12.9872C113.819 13.0688 109.167 13.0461 107.737 13.2301C107.719 13.1021 107.702 12.9741 107.685 12.8461C107.07 13.0006 106.455 13.1553 105.84 13.3102ZM167.175 11.7705C167.282 11.8998 167.389 12.029 167.496 12.1583C169.304 12.0006 170.445 12.0995 169.975 11.6732C169.974 11.6732 169.973 11.6732 169.972 11.6732C169.04 11.7052 168.108 11.7376 167.175 11.7705ZM301.71 13.194C301.671 12.9325 300.809 12.806 299.685 12.9554C299.737 13.0327 299.788 13.1099 299.839 13.1872C300.429 12.9852 301.143 13.3949 302.943 13.4049C302.947 13.2741 302.952 13.1434 302.956 13.0126C302.541 13.073 302.125 13.1335 301.71 13.194ZM165.613 11.7379C165.059 11.5921 163.518 12.0853 164.537 12.0919C165.316 12.0968 165.91 11.8161 165.613 11.7379ZM30.3031 17.7211C30.7131 17.7199 31.123 17.7187 31.5329 17.7177C31.7378 17.5919 31.9427 17.4661 32.1476 17.3403C32.1467 17.3404 32.1457 17.3405 32.1448 17.3405C31.5308 17.4672 30.9169 17.594 30.3031 17.7211ZM123.743 13.054C124.551 13.0188 125.359 12.9839 126.166 12.9494C126.745 12.9247 127.324 12.9002 127.902 12.8759C127.914 12.8029 127.926 12.73 127.937 12.657C127.073 12.849 126.527 12.8161 126.16 12.7627C125.941 12.7307 125.785 12.6914 125.664 12.6887C125.665 12.6886 125.667 12.6886 125.668 12.6885C124.626 12.6635 123.634 12.6527 122.647 12.5978C123.012 12.7498 123.378 12.9019 123.743 13.054ZM118.975 12.7523C119.226 13.2572 119.533 13.3059 121.651 12.8754C121.565 12.815 121.478 12.7547 121.392 12.6943C120.289 12.7683 119.649 12.9084 119.834 12.6346C119.548 12.6738 119.261 12.713 118.975 12.7523ZM140.7 12.2755C140.44 12.1185 138.415 12.3348 138.527 12.4144C138.572 12.4455 141.207 12.5827 140.7 12.2755ZM317.121 13.6414C316.655 13.5857 316.189 13.5302 315.723 13.4748C316.347 13.4431 316.971 13.4117 317.595 13.3804C317.437 13.4674 317.279 13.5544 317.121 13.6414ZM322.283 13.1172C322.613 13.1962 321.511 13.6125 323.499 13.8131C322.048 13.7631 320.598 13.7142 319.148 13.6664C319.83 13.6189 320.513 13.5717 321.196 13.5247C321.083 13.3875 320.97 13.2503 320.856 13.1132C321.332 13.1144 321.807 13.1158 322.283 13.1172ZM323.826 13.5187C323.059 13.1357 327.174 13.2808 327.555 13.3407C327.64 13.3545 328.035 13.6373 328.182 13.7007C327.561 13.6745 326.94 13.6485 326.318 13.6226C326.523 13.715 326.727 13.8073 326.931 13.8997C326.203 13.8976 325.475 13.8957 324.747 13.8941C325.061 13.8231 325.376 13.7521 325.69 13.6813C325.069 13.6269 324.447 13.5727 323.826 13.5187ZM307.322 12.9686C307.841 12.9959 308.361 13.0234 308.881 13.051C308.782 12.9165 308.682 12.782 308.583 12.6474C308.272 12.6362 307.961 12.625 307.65 12.6139C307.54 12.7321 307.431 12.8504 307.322 12.9686ZM317.925 13.1969C317.144 13.7967 315.133 12.3402 317.525 12.9438C317.766 13.0051 317.999 13.1389 317.925 13.1969ZM329.094 13.4818C330.73 13.0928 330.321 14.0901 328.808 13.7276C328.732 13.7085 328.971 13.5105 329.094 13.4818ZM341.216 14.0138C341.346 14.0234 341.56 14.362 342.824 14.1096C343.028 14.1568 343.233 14.2041 343.437 14.2513C342.948 14.3797 338.813 14.2765 339.399 13.9786C340.031 14.003 340.562 13.9729 341.216 14.0138ZM337.27 12.6144C336.65 12.5951 336.029 12.576 335.408 12.5571C335.608 12.6691 335.808 12.7811 336.008 12.8931C335.702 12.9073 335.395 12.9214 335.089 12.9357C334.575 12.7349 334.062 12.5343 333.548 12.3339C334.897 12.3656 336.247 12.3983 337.597 12.4319C337.488 12.4927 337.379 12.5536 337.27 12.6144ZM320.788 11.6513C321.976 11.8283 323.444 11.7504 325.383 11.8534C325.383 11.8538 325.384 11.8541 325.385 11.8545C325.482 11.86 325.648 12.0084 325.959 12.0271C326.224 12.0414 331.466 12.1115 331.047 12.334C329.013 12.4602 328.27 12.1022 327.761 12.6135C327.667 12.4971 327.573 12.3807 327.479 12.2643C325.539 11.9874 324.967 12.353 323.867 12.4502C323.875 12.3658 323.883 12.2814 323.891 12.197C323.161 12.1584 322.43 12.1201 321.7 12.082C321.801 12.1418 321.902 12.2016 322.003 12.2614C321.744 12.2509 321.486 12.2404 321.227 12.23C320.608 11.954 319.812 11.8636 320.788 11.6513ZM340.078 12.8841C340.681 12.2684 346.247 12.9733 348.806 12.9673C347.447 13.2867 345.384 12.9192 343.923 12.8453C341.099 12.7031 343.04 13.0326 342.556 13.1133C342.317 13.1532 340.735 12.6664 340.078 12.8841ZM316.423 11.5913C317.83 11.6978 318.624 11.5812 319.834 11.8652C319.73 11.908 319.626 11.9507 319.522 11.9935C319.107 11.9334 315.709 11.6653 316.423 11.5913ZM352.537 13.323C349.828 12.955 351.141 13.6035 349.748 13.0973C350.681 13.1162 351.613 13.1355 352.546 13.1552C352.543 13.2111 352.54 13.267 352.537 13.323ZM162.458 9.37387C161.31 9.37846 160.026 9.28398 159.345 9.53855C160.125 9.5619 160.905 9.58562 161.686 9.60967C161.943 9.53103 162.201 9.45243 162.458 9.37387ZM195.175 6.65942C194.913 6.60248 193.876 6.77879 193.767 6.77939C193.564 6.78041 193.619 6.69574 193.616 6.67371C192.287 6.69592 193.515 6.95122 192.532 7.0134C192.364 7.02348 190.053 6.90761 189.114 6.92492C188.947 6.92793 188.78 6.93052 188.615 6.93275C187.348 6.94981 186.162 6.94634 185.684 6.95419C184.773 6.96881 183.082 7.17958 181.584 7.20419C180.966 7.21398 180.749 7.05891 180.128 7.06912C176.142 7.13262 168.295 7.45219 164.758 7.4121C163.884 7.40124 163.047 7.20924 162.585 7.23379C162.222 7.31509 161.859 7.39647 161.496 7.47792C160.363 6.82054 159.999 7.42909 158.792 7.51412C158.025 7.56802 157.663 7.37429 157.56 7.3767C156.876 7.39346 156.541 7.49537 156.005 7.52151C155.403 7.55057 154.535 7.47726 154.32 7.49793C154.188 7.51171 154.616 7.76905 152.279 7.81198C149.897 7.85616 147.544 7.87994 145.122 7.92439C145.949 8.70997 146.631 8.14324 147.62 8.09155C147.885 8.07769 147.719 8.20922 147.95 8.19841C148.602 8.16847 149.848 8.01561 150.389 8.03453C150.972 8.05488 150.779 8.35517 151.516 8.23033C151.554 8.22391 151.433 8.10411 151.606 8.07997C153.35 7.84128 153.926 8.04213 156.136 8.00539C157.599 7.97692 166.49 7.70555 166.796 7.78471C168.394 8.18573 159.026 8.34013 157.93 8.33185C157.547 8.32711 157.946 8.1846 157.596 8.1652C157.448 8.1576 156.121 8.43999 154.806 8.48748C153.216 8.54429 150.013 8.43592 148.497 8.47632C140.976 8.67425 133.513 8.83378 126.045 9.02585C120.57 9.16669 115.092 9.32509 109.585 9.52981C109.307 9.54022 108.948 9.70801 108.043 9.74239C93.4391 10.2949 78.3733 10.9077 63.5187 11.7634C61.206 11.8965 58.8987 12.0353 56.5985 12.1805C52.876 12.4155 49.1939 12.7861 45.4303 12.9098C44.9714 13.0518 44.5126 13.1939 44.0538 13.3362C45.24 13.1701 47.4403 13.2869 47.6394 13.2784C47.7111 13.275 48.1551 13.1199 48.8841 13.0814C49.9093 13.0269 50.3654 13.1093 50.4495 13.1041C50.7101 13.0885 50.5322 12.9821 50.7812 12.9673C52.6377 12.8587 54.0721 12.7392 55.776 12.637C57.7008 12.5221 58.6893 12.6834 60.0772 12.3636C60.2412 12.4478 60.4053 12.5319 60.5693 12.6161C60.9616 12.4386 62.1193 12.2833 63.5406 12.154C65.8295 11.9454 68.8022 11.8062 70.3621 11.7367C71.1598 11.7011 71.0286 11.8725 71.2965 11.8583C71.4676 11.8492 71.3887 11.6376 73.4771 11.5709C74.5284 11.5378 74.8118 11.6801 75.3382 11.648C75.6242 11.6303 75.5698 11.4777 75.981 11.4567C78.3587 11.3357 80.303 11.2898 82.6327 11.206C83.2876 11.1824 83.3011 11.3115 83.4475 11.3027C83.9864 11.2711 84.914 11.0071 86.2851 10.9435C88.5417 10.8379 93.0405 10.6368 94.8909 10.6644C95.1627 10.6684 95.3941 10.814 95.5935 10.8032C95.8953 10.7862 96.0069 10.6192 96.0599 10.616C97.0698 10.57 96.4685 10.7466 97.1435 10.6813C97.5073 10.6461 97.8797 10.4452 98.7266 10.3888C99.8448 10.3146 99.6335 10.5432 100.1 10.5019C100.149 10.4964 100.158 10.3433 100.617 10.3194C102.36 10.2296 104.887 10.0937 106.536 10.0308C107.01 10.0125 107.367 10.1016 108.027 10.0782C109.359 10.0273 116.926 9.68981 117.549 9.73082C117.614 9.73479 116.949 9.98285 118.022 9.93938C118.33 9.83506 118.638 9.7308 118.947 9.6266C119.473 9.75899 119.999 9.89155 120.525 10.0243C120.489 9.50622 123.552 9.32647 123.538 9.85786C123.874 9.86862 124.21 9.87945 124.547 9.89034C125.031 9.61637 125.408 9.59588 126.06 9.51724C126.332 9.48448 126.651 9.44164 127.047 9.36623C127.26 9.47205 127.474 9.5779 127.688 9.68377C127.739 9.60733 127.79 9.53089 127.84 9.45446C128.573 9.83811 129.743 9.39592 129.886 9.3895C130.438 9.36426 130.855 9.45531 131.114 9.44449C132.08 9.40556 134.169 9.20447 135.301 9.23972C135.354 9.24166 135.306 9.41644 135.628 9.4291C136.209 9.45205 136.258 9.19665 137.039 9.47414C137.193 9.39514 137.347 9.31616 137.501 9.23718C137.668 9.27152 137.835 9.30587 138.001 9.34025C138.978 9.29471 139.955 9.24973 140.932 9.20531C140.05 9.52134 141.078 9.65923 142.039 9.40436C142.364 9.31795 142.069 9.14641 142.178 9.11667C142.326 9.07532 146.715 9.06209 147.008 9.17206C147.214 9.11103 147.421 9.05003 147.627 8.98905C147.735 9.09928 147.842 9.20952 147.95 9.31976C148.063 9.27782 148.177 9.23588 148.291 9.19395C149.436 9.36626 152.39 8.8486 152.928 8.87398C153.216 8.88733 152.967 9.3723 154.342 9.29566C154.387 9.1629 154.432 9.03014 154.477 8.89738C154.792 8.87224 155.106 8.84715 155.421 8.82212C156.012 8.82227 156.877 9.03432 156.908 9.19004C157.091 9.0928 157.274 8.99559 157.457 8.89839C157.958 9.19412 160.601 9.03784 161.662 8.82678C161.975 8.91355 162.288 9.00037 162.601 9.08725C163.017 8.96827 163.433 8.84939 163.85 8.7306C164.818 8.68117 163.797 8.88389 164.004 8.89607C164.442 8.92078 166.662 8.57162 166.522 8.96575C166.825 8.96208 167.129 8.95846 167.432 8.9549C167.587 8.84061 167.741 8.72632 167.896 8.61205C168.422 8.99047 169.322 8.84064 171.173 8.95633C171.327 8.86538 171.481 8.77444 171.635 8.68351C172.209 8.80216 172.782 8.921 173.356 9.04003C173.471 8.89142 173.587 8.74282 173.702 8.59422C173.951 8.56994 174.199 8.54569 174.448 8.52148C174.957 8.84479 175.86 8.47786 176.324 8.60848C177 8.79918 176.482 9.04127 175.231 9.10184C175.328 9.34007 179.052 9.18762 179.911 9.16218C179.854 9.11589 179.797 9.0696 179.739 9.02332C178.861 9.06946 177.983 9.11604 177.105 9.16305C176.362 8.56771 178.75 8.70265 179.844 8.61403C179.944 8.60559 180.509 8.37095 181.613 8.38165C182.041 8.38584 183.712 8.70495 184.03 8.72095C186.602 8.8521 184.708 8.38974 187.226 8.78892C186.823 8.5464 187.577 8.63928 188.627 8.66388C188.948 8.67141 189.297 8.67255 189.649 8.65572C189.905 8.64318 192.075 8.3701 192.221 8.36276C193.135 8.31606 192.141 8.60482 193.464 8.52406C193.622 8.44871 193.781 8.37336 193.94 8.29804C194.248 8.29651 194.555 8.29504 194.863 8.29362C196.735 8.94953 197.167 8.45916 197.832 8.3939C198.1 8.36761 197.755 8.54208 198.451 8.50313C198.713 8.48865 199.003 8.34348 199.708 8.33135C201.914 8.29403 202.663 8.91003 204.69 8.26536C205.002 8.35816 205.313 8.45102 205.624 8.54392C205.834 8.43214 206.044 8.32039 206.254 8.20866C207.861 8.53229 207.281 8.20067 207.862 8.20464C209.394 8.2145 212.531 8.28294 212.804 8.55105C214.128 7.93999 215.708 8.63704 216.229 8.6149C216.539 8.54138 216.85 8.46792 217.16 8.39451C217.524 8.4707 217.888 8.54697 218.252 8.62331C218.077 8.01984 219.961 8.62054 220.142 8.63064C220.351 8.64027 223.254 8.4771 224.334 8.48771C225.412 8.49764 227.29 8.67439 227.456 8.67607C227.646 8.67739 229.483 8.52748 230.919 8.5418C232.176 8.55125 239.613 8.86303 239.147 8.59124C238.661 8.51117 237.969 8.4388 237.37 8.39728C235.512 8.26343 224.595 8.0336 221.806 7.9828C216.209 7.86758 210.375 7.87027 204.753 7.81707C204.422 7.81401 204.372 7.65788 204.088 7.65469C203.657 7.65062 202.565 7.80863 202.14 7.80612C200.555 7.79543 198.626 7.7758 197.777 7.77496C195.879 7.77384 194.577 7.68587 193.141 7.67809C192.692 7.67575 190.421 7.88211 188.863 7.81139C188.783 7.79937 188.702 7.78736 188.621 7.77536C188.419 7.74538 188.218 7.71542 188.016 7.68549C188.173 7.67429 188.381 7.65961 188.62 7.64312C189.6 7.57545 191.113 7.47789 191.898 7.46128C193.352 7.43109 194.111 7.55429 194.648 7.54952C195.097 7.54547 197.394 7.39155 198.44 7.38502C198.765 7.38284 198.832 7.54643 199.11 7.54502C200.618 7.53637 202.602 7.52795 203.91 7.36585C203.376 7.41853 206.71 7.51613 206.885 7.51614C207.184 7.51606 207.509 7.36275 208.121 7.36294C209.298 7.36357 209.148 7.68393 210.619 7.36488C210.983 7.45875 211.347 7.5527 211.71 7.64672C211.733 7.21874 216.33 7.81044 217.639 7.29769C217.674 7.2375 211.699 7.05455 211.205 7.04732C208.245 6.99097 203.866 7.09773 200.994 7.03024C200.13 7.00924 197.41 6.75841 197.205 6.76436C196.875 6.77293 197.174 6.92032 197.031 6.92615C194.107 7.0485 195.565 6.74423 195.175 6.65942ZM323.907 11.4969C323.02 11.4427 322.134 11.389 321.248 11.3356C321.316 11.2445 321.384 11.1534 321.452 11.0624C321.857 11.1152 322.262 11.1682 322.667 11.2212C322.982 11.178 323.296 11.1349 323.611 11.0918C323.71 11.2269 323.808 11.3619 323.907 11.4969ZM326.11 11.1958C326.881 11.181 326.91 11.3802 327.087 11.3973C327.616 11.449 328.078 11.3887 328.592 11.4135C327.98 11.8572 326.727 11.5887 326.11 11.1958ZM310.224 10.4019C310.396 10.4307 311.536 10.9783 312.871 10.5577C313.161 10.6129 313.452 10.6682 313.742 10.7235C314.432 10.8548 315.121 10.9863 315.811 11.1181C315.175 11.0063 314.442 10.959 313.734 10.9412C312.588 10.9124 311.506 10.9609 310.999 10.9366C310.688 10.9217 310.634 10.7645 310.386 10.7528C308.952 10.6877 307.545 10.9894 307.417 10.4705C308.768 10.6681 310.003 10.3662 310.224 10.4019ZM318.873 10.9142C319.098 11.0306 319.323 11.147 319.548 11.2635C318.719 11.2305 317.891 11.1979 317.062 11.1656C317.29 11.0657 317.518 10.9658 317.747 10.8659C318.122 10.882 318.497 10.898 318.873 10.9142ZM255.076 8.7365C255.588 8.74669 256.1 8.75702 256.612 8.76749C256.585 8.6887 255.999 8.67857 255.785 8.62192C255.786 8.62194 255.787 8.62196 255.788 8.62197C255.548 8.55802 255.653 8.45902 255.217 8.40687C255.17 8.51675 255.123 8.62662 255.076 8.7365ZM43.4133 13.0407C42.5564 13.0862 34.6508 13.6112 35.3437 13.8534C35.6928 13.9722 38.3875 13.6669 39.1849 13.6169C40.2598 13.5482 43.1816 13.6679 43.4133 13.0407ZM29.4088 13.9268C29.2919 14.219 34.2343 13.922 34.7141 13.8413C34.6088 13.8078 34.4446 13.7284 34.3065 13.7173C33.6335 13.6643 30.4791 13.929 29.4088 13.9268ZM226.423 7.5651C226.821 7.71177 227.219 7.85854 227.617 8.00539C227.513 7.81745 227.41 7.6295 227.306 7.44157C227.011 7.4827 226.717 7.52387 226.423 7.5651ZM187.696 7.77472C181.044 7.81407 174.395 7.87829 167.744 7.96776C168.328 7.8813 168.912 7.79503 169.496 7.70896C175.228 7.65499 181.338 7.66808 186.872 7.50643C187.147 7.59582 187.421 7.68524 187.696 7.77472ZM308.382 9.49175C306.679 9.42776 305.253 9.51508 303.406 9.23292C305.18 9.08185 306.043 9.44019 307.769 9.18932C307.77 9.18935 307.771 9.18939 307.772 9.18942C307.975 9.29017 308.179 9.39095 308.382 9.49175ZM270.355 8.31656C270.875 8.19754 271.396 8.07866 271.917 7.95992C271.294 7.94538 270.671 7.93106 270.048 7.91694C270.15 8.05014 270.252 8.18335 270.355 8.31656ZM129.674 8.11009C128.857 8.26573 127.446 8.26925 126.021 8.26692C124.352 8.26404 122.663 8.25329 121.888 8.46408C121.795 8.48969 122.661 8.60649 121.278 8.93248C122.327 8.84056 123.068 8.75823 123.139 8.53503C123.454 8.59985 123.768 8.66472 124.083 8.72965C124.599 8.65662 125.115 8.58374 125.631 8.51102C125.592 8.68943 125.61 8.71566 126.032 8.62761C126.134 8.60636 126.26 8.57846 126.414 8.54446C126.778 8.58892 127.143 8.63346 127.507 8.67808C127.658 8.58036 127.809 8.48265 127.96 8.38496C128.278 8.50562 128.596 8.62634 128.914 8.74712C130.134 8.56958 129.381 8.33955 129.674 8.11009ZM135.913 7.98729C135.621 7.94323 127.365 8.33953 131.132 8.66926C132.107 8.62703 133.082 8.58536 134.058 8.54424C133.229 7.84089 135.907 8.41631 136.125 8.42603C137.172 8.46863 138.5 8.2611 139.258 8.25056C139.911 8.24165 140.301 8.36202 140.76 8.34709C142.322 8.29608 144.789 8.23244 145.122 7.92439C143.907 7.94669 142.674 7.9733 141.411 8.01232C140.076 8.05373 138.893 7.79969 136.395 8.25564C135.773 8.23058 135.988 7.99767 135.913 7.98729ZM273.476 8.02699C273.407 8.32669 276.562 8.33148 276.585 8.21328C276.593 8.14352 275.566 8.1197 275.42 8.08968C275.419 8.08965 275.418 8.08963 275.417 8.08961C275.356 8.07654 275.669 7.96868 275.187 7.92475C274.617 7.95866 274.047 7.99274 273.476 8.02699ZM55.6734 11.6071C55.2372 11.4579 45.5184 12.116 45.2373 12.2205C45.1609 12.2479 45.2741 12.3151 45.2461 12.3599C47.4992 11.9768 50.7408 12.0594 52.8948 11.9485C53.4953 11.9173 53.3087 11.8084 53.3426 11.8041C53.344 11.804 53.3454 11.8039 53.3468 11.8038C53.6875 11.7829 55.2424 11.9835 55.6734 11.6071ZM118.775 8.70513C119.191 8.73832 119.606 8.77161 120.021 8.805C120.123 8.70814 120.225 8.61127 120.327 8.51442C120.326 8.51445 120.325 8.51448 120.324 8.51451C119.808 8.5779 119.292 8.64144 118.775 8.70513ZM104.426 8.92296C104.529 8.98468 104.632 9.04641 104.735 9.10815C105.778 9.07625 106.82 9.045 107.862 9.01441C107.759 9.05549 107.655 9.09658 107.551 9.13767C109.13 9.1767 109.774 8.92164 110.615 8.92371C110.614 8.92375 110.613 8.92378 110.612 8.92382C110.702 8.92434 110.816 9.05719 111.153 9.04945C111.923 9.03148 114.133 9.00298 114.395 8.85599C114.949 8.54121 110.51 8.84092 109.682 8.85972C109.307 8.86752 108.852 8.76468 108.624 8.77048C108.375 8.7773 108.041 8.95193 107.433 8.9702C107.255 8.97513 105.277 8.86096 104.426 8.92296ZM86.0461 9.91259C86.3742 10.0456 87.038 9.87134 87.2855 9.88416C87.3446 9.88715 86.8927 10.0323 87.4492 10.0437C87.6023 9.95193 87.7553 9.86014 87.9084 9.76836C87.2876 9.8162 86.6668 9.86428 86.0461 9.91259ZM278.779 8.01589C278.689 7.98161 276.995 7.95023 276.913 7.9685C275.892 8.21322 279.4 8.27276 278.779 8.01589ZM321.508 9.12167C320.745 8.69398 329.967 9.46473 330.862 9.48737C330.806 9.73211 328.621 9.38898 329.757 9.77758C328.667 9.54324 325.626 9.51381 324.914 9.43048C324.482 9.37978 324.381 9.16201 324.316 9.15253C324.06 9.1176 321.776 9.27099 321.508 9.12167ZM338.485 9.99758C337.609 9.91026 336.734 9.82331 335.858 9.73676C336.895 9.75567 337.932 9.77513 338.969 9.79513C338.808 9.86261 338.646 9.93009 338.485 9.99758ZM339.594 9.93656C339.577 9.69564 342.547 10.0177 343.333 10.0004C342.431 10.3652 340.978 9.91178 339.594 9.93656ZM290.027 7.70899C288.658 7.51013 288.047 8.22283 289.726 7.95409C289.777 7.94508 290.084 7.71908 290.027 7.70899ZM129.219 7.09577C129.003 7.09769 126.497 6.97122 125.984 7.04873C125.941 7.05515 125.912 7.06297 125.899 7.07238C125.741 7.19058 125.806 7.2538 125.991 7.28788C126.417 7.36629 127.48 7.29069 127.929 7.37569C128.97 7.57348 127.456 7.80701 129.974 7.59421C129.873 7.67207 129.772 7.74994 129.671 7.82782C131.147 7.80927 130.649 7.30516 130.912 7.23073C130.993 7.20806 131.917 7.22506 132.083 7.18727C134.151 6.71008 129.436 7.09163 129.219 7.09577ZM256.025 6.84763C253.294 6.58034 254.465 6.92268 251.659 6.85678C251.562 7.01907 255.667 6.9847 256.025 6.84763ZM155.858 6.73908C153.031 6.85877 150.699 6.69239 148.068 7.04025C148.249 7.4778 156.593 6.83672 155.858 6.73908ZM23.0422 12.3525C34.0797 12.3413 46.729 11.2475 58.43 10.5582C59.7052 10.4831 59.8375 10.6526 60.2978 10.6069C60.5993 10.5772 60.5383 10.4383 60.94 10.4147C61.7736 10.3658 62.6052 10.3169 63.4349 10.2681C77.0544 9.46749 90.1602 8.68342 103.285 8.23916C104.163 8.20866 108.44 8.3486 109.334 7.85545C110.01 7.48027 106.956 7.86814 106.445 7.88536C106.061 7.89795 106.038 7.73458 105.782 7.74394C105.511 7.75396 105.74 7.85727 105.424 7.87127C104.089 7.93129 102.629 7.94569 101.422 8.00441C89.5824 8.5783 78.0626 9.10159 66.2885 9.73104C64.8633 9.80771 65.149 9.66046 65.0772 9.66379C65.0763 9.66417 65.0754 9.66455 65.0744 9.66493C64.5237 9.69451 63.9675 9.72618 63.4064 9.75966C56.1803 10.1899 48.1434 10.9233 40.6315 11.311C34.9306 11.5934 29.2294 11.8961 23.5299 12.2191C23.3673 12.2636 23.2048 12.308 23.0422 12.3525ZM135.271 7.38734C134.546 6.91127 134.401 7.41461 131.842 7.28502C131.636 7.37557 131.431 7.46614 131.226 7.55674C132.576 7.49917 133.926 7.44267 135.276 7.38722C135.274 7.38727 135.273 7.3873 135.271 7.38734ZM118.402 7.72309C117.948 7.06678 112.254 7.73905 109.679 7.70965C109.22 8.0629 112.951 7.77379 113.834 7.77861C114.275 7.78016 116.644 8.0425 118.429 7.79058C118.42 7.76808 118.411 7.74558 118.402 7.72309ZM311.88 7.76301C311.463 7.76709 311.047 7.77126 310.631 7.77551C311.668 7.88786 312.705 8.00076 313.741 8.11422C312.085 8.00372 310.428 7.89463 308.772 7.78696C309.086 7.65921 309.4 7.53151 309.714 7.40386C310.436 7.52331 311.158 7.64302 311.88 7.76301ZM306.497 7.63928C309.402 7.69028 306.358 7.95391 305.639 7.7635C305.209 7.64917 306.2 7.63438 306.497 7.63928ZM298.949 7.14311C300.312 6.94311 303.051 7.01908 302.061 7.47329C300.604 7.19585 299.654 7.35378 297.536 7.15389C297.849 7.0705 298.162 6.98717 298.475 6.90389C298.476 6.90394 298.478 6.90399 298.479 6.90403C298.636 6.98371 298.793 7.06341 298.949 7.14311ZM307.833 7.39169C309.725 7.73904 304.223 7.44802 305.96 7.32527C306.041 7.31953 307.759 7.37817 307.833 7.39169ZM35.1503 10.9967C34.9322 11.171 36.3931 11.0693 36.8798 11.0476C38.9897 10.9535 41.6876 10.7071 43.8806 10.5888C43.7122 10.5471 43.5439 10.5054 43.3754 10.4637C40.6333 10.6367 37.8917 10.8144 35.1503 10.9967ZM50.737 10.1602C52.243 10.068 53.7492 9.97715 55.2555 9.88771C55.3958 9.87936 56.0463 9.70397 55.5546 9.69976C53.9485 9.85165 52.3426 10.0051 50.737 10.1602ZM144.767 6.19013C143.608 6.12809 146.929 5.59297 146.79 6.08648C146.116 6.12077 145.441 6.15532 144.767 6.19013ZM155.526 5.76294C154.802 5.82361 154.077 5.88458 153.353 5.94585C153.351 5.88957 153.349 5.83328 153.347 5.777C154.073 5.77201 154.8 5.76732 155.526 5.76294ZM29.224 11.2928C30.0041 11.431 31.8311 11.2742 32.9722 11.2C32.1751 11.0885 30.3079 11.2995 29.224 11.2928ZM127.434 6.4606C127.474 6.51249 126.746 6.56078 125.969 6.582C124.824 6.61322 123.571 6.58571 124.516 6.41801C124.999 6.42478 125.482 6.43169 125.965 6.43874C126.455 6.44588 126.944 6.45317 127.434 6.4606ZM118.085 6.56722C119.07 6.50493 119.836 6.52463 119.64 6.73754C119.116 6.74624 118.593 6.7551 118.07 6.76413C118.075 6.69849 118.08 6.63286 118.085 6.56722ZM293.805 6.58659C292.141 6.55368 290.478 6.52221 288.815 6.49219C288.878 6.4377 288.941 6.38321 289.005 6.32873C290.608 6.35744 292.212 6.38749 293.816 6.41889C293.812 6.47479 293.808 6.53069 293.805 6.58659ZM28.2499 10.8542C27.1127 10.9714 25.9755 11.0893 24.8385 11.2081C25.9818 11.1636 27.1252 11.1199 28.2685 11.0771C28.2633 11.0024 28.258 10.9277 28.2527 10.853C28.2518 10.8534 28.2509 10.8538 28.2499 10.8542ZM316.604 6.6514C311.534 6.19419 318.028 6.16419 319.352 6.60472C319.353 6.60446 319.355 6.60419 319.356 6.60392C319.472 6.64265 319.218 6.79764 319.41 6.87188C318.896 6.77689 318.383 6.68202 317.869 6.58729C317.394 6.66153 316.918 6.73586 316.443 6.81032C316.289 6.76787 316.136 6.72545 315.982 6.68304C316.189 6.67247 316.397 6.66192 316.604 6.6514ZM337.104 7.37007C341.707 7.61275 336.977 7.80604 334.713 7.37917C334.733 7.30444 336.68 7.34768 337.104 7.37007ZM325.034 6.9324C324.307 6.93962 323.58 6.9471 322.853 6.95486C322.762 6.90391 322.671 6.85296 322.58 6.80203C323.139 6.7779 323.698 6.75393 324.257 6.73013C324.516 6.79751 324.775 6.86494 325.034 6.9324ZM301.192 5.30817C300.026 5.21756 298.518 5.69201 302.274 5.67971C302.274 5.62336 302.274 5.56702 302.274 5.51067C302.124 5.51459 301.683 5.55259 301.66 5.5476C301.591 5.53121 301.679 5.34597 301.192 5.30817ZM345.7 6.28972C345.832 6.27472 345.933 5.68465 347.267 6.36511C347.681 6.34793 348.095 6.33083 348.509 6.31382C348.609 6.44978 348.709 6.58575 348.809 6.72172C347.219 6.54152 347.037 6.79803 346.921 6.79792C346.389 6.79676 346.789 6.6799 346.446 6.66134C345.563 6.61355 343.551 6.60854 344.481 6.26406C344.815 6.14074 345.568 6.30473 345.7 6.28972ZM342.596 5.80255C342.788 5.86125 342.156 6.00526 342.3 6.06124C342.426 6.10991 344.34 6.3788 343.806 6.64719C343.491 6.61972 343.176 6.5923 342.86 6.56493C342.757 6.47954 342.654 6.39414 342.551 6.30876C342.242 6.36838 341.932 6.42806 341.623 6.48778C341.118 6.26532 340.033 5.95719 341.343 5.85672C340.863 5.85111 340.384 5.84561 339.904 5.84021C339.651 5.92361 339.399 6.00704 339.147 6.0905C339.283 5.95182 339.42 5.81316 339.557 5.6745C340.57 5.71668 341.584 5.75937 342.596 5.80255ZM357.434 6.59884C357.371 6.67055 357.309 6.74226 357.247 6.81398C359.012 6.76656 361.752 6.86042 360.173 7.24614C357.79 7.15832 355.407 7.0733 353.025 6.9911C352.869 6.92682 352.714 6.86253 352.559 6.79826C354.324 7.10542 353.822 6.15532 355.354 6.49946C355.612 6.55783 354.84 6.84096 356.488 6.7196C356.433 6.64147 356.379 6.56336 356.325 6.48523C356.694 6.52303 357.064 6.5609 357.434 6.59884ZM372.537 7.53948C369.534 7.25976 372.864 7.17577 373.407 7.4349C373.406 7.43484 373.405 7.43479 373.404 7.43473C374.891 8.14291 371.634 7.65461 371.434 7.64765C371.168 7.63808 370.525 8.04694 369.117 7.31806C370.257 7.39122 371.397 7.46503 372.537 7.53948ZM362.719 6.88114C362.973 6.88019 362.827 6.98545 362.936 6.9897C362.937 6.98975 362.938 6.9898 362.939 6.98985C364.552 7.05217 368.387 7.16362 368.782 7.55159C367.589 7.51363 362.25 7.30035 361.94 7.03665C362.2 6.98478 362.459 6.93294 362.719 6.88114ZM351.368 6.56009C350.39 6.27446 352.62 6.3552 353.198 6.49441C353.307 6.5237 352.381 6.85596 351.368 6.56009ZM275.465 3.09822C273.282 3.18711 276.142 3.39855 275.145 3.5964C275.562 3.58769 275.978 3.57906 276.395 3.57053C276.085 3.41305 275.775 3.25561 275.465 3.09822ZM176.085 1.98699C175.576 1.96669 175.819 2.09943 175.775 2.10195C175.441 2.10209 175.125 1.99544 174.997 2.00866C172.631 2.26068 174.207 2.35514 174.232 2.38129C174.283 2.51478 173.663 2.67937 174.527 2.82201C175.05 2.76809 175.573 2.71433 176.096 2.66072C176.356 2.73223 176.617 2.80378 176.878 2.87538C177.915 2.70376 176.554 2.67516 176.398 2.46483C176.337 2.3821 177.314 2.271 176.085 1.98699ZM271.571 2.55605C271.212 2.78337 270.34 3.06067 271.185 3.31683C271.186 3.31686 271.186 3.31688 271.187 3.3169C271.344 3.36379 271.983 3.40245 272.179 3.46786C273.588 3.18714 273.059 2.84995 271.571 2.55605ZM185.472 1.47249C186.317 1.52066 187.162 1.56923 188.007 1.6182C187.993 1.75957 187.98 1.90094 187.967 2.04231C187.515 2.00747 187.063 1.97274 186.61 1.93812C186.453 2.00379 186.295 2.06947 186.137 2.13516C186.699 2.29188 187.261 2.44877 187.823 2.60585C188.077 2.58283 188.331 2.55986 188.585 2.53692C189.006 2.49886 189.427 2.4609 189.848 2.42304C189.537 2.3505 189.226 2.27803 188.915 2.2056C190.566 2.11235 190.209 2.45825 191.576 2.58137C192.043 2.44779 192.51 2.31434 192.978 2.181C193.656 2.30892 194.334 2.43709 195.012 2.56552C196.15 2.49903 196.25 2.39858 195.483 2.2519C196.048 2.07811 196.669 2.34505 197.351 2.27272C197.407 2.26688 197.301 2.10591 197.35 2.10378C200.876 1.98304 200.689 2.40897 201.252 2.42529C201.649 2.43663 203.234 2.14792 203.259 2.05049C203.29 1.9193 199.989 1.40544 205.156 1.38528C202.484 1.02861 199.448 1.40206 201.413 1.923C200.568 1.87107 196.839 2.01434 196.602 2.00019C196.255 1.97776 196.376 1.77778 195.942 1.77437C195.685 1.77276 195.008 2.23104 192.976 1.84313C192.717 1.91937 192.458 1.99565 192.199 2.07196C191.955 2.0118 191.712 1.95167 191.469 1.89157C191.968 1.66925 192.467 1.44707 192.967 1.22502C191.218 1.44458 189.73 1.13048 188.576 1.31831C188.422 1.34341 188.274 1.37748 188.132 1.42298C187.087 1.38651 186.579 1.34713 187.027 1.15078C186.713 1.15314 186.4 1.15555 186.086 1.15802C185.881 1.26282 185.677 1.36765 185.472 1.47249ZM265.159 2.75177C264.127 2.51114 263.744 2.97615 263.905 3.00615C264.812 3.17176 265.697 2.87704 265.159 2.75177ZM177.971 2.2167C179.117 2.32593 180.263 2.43591 181.408 2.54662C181.407 2.39722 181.405 2.24781 181.404 2.09841C180.26 2.1371 179.115 2.17653 177.971 2.2167ZM275.792 2.77023C275.894 2.88476 275.997 2.9993 276.099 3.11385C277.363 2.73594 278.592 3.35443 279.214 3.24931C279.349 3.22632 279.083 3.02164 278.828 2.97267C278.669 2.94175 276.015 2.73759 275.792 2.77023ZM327.95 4.57933C327.48 4.6346 327.01 4.68998 326.54 4.74547C326.571 4.6207 326.602 4.49593 326.633 4.37115C326.865 4.35744 327.096 4.34375 327.328 4.33009C327.535 4.41315 327.742 4.49623 327.95 4.57933ZM322.632 4.55818C321.8 4.51418 320.968 4.47053 320.136 4.42723C323.315 4.43941 320.712 4.27806 322.647 4.19228C322.642 4.31425 322.637 4.43622 322.632 4.55818ZM314.217 3.97214C314.322 3.90088 314.427 3.82962 314.532 3.75838C315.365 3.79002 316.198 3.82202 317.03 3.85438C316.514 3.57305 315.997 3.29187 315.481 3.01081C315.175 2.99847 314.87 2.98617 314.565 2.97392C314.449 3.30665 314.333 3.63939 314.217 3.97214ZM153.569 1.78353C153.065 1.78899 151.317 2.05353 151.394 2.13604C152.124 2.22389 152.854 2.31204 153.584 2.40051C153.584 2.25074 153.585 2.10097 153.585 1.9512C153.689 2.02365 153.794 2.0961 153.898 2.16856C154.311 2.10428 154.724 2.04009 155.136 1.976C155.348 2.10274 155.559 2.22951 155.77 2.3563C155.977 2.20286 156.183 2.04945 156.39 1.89606C154.386 1.66975 154.46 1.93366 154.044 1.93903C153.833 1.94199 153.698 1.85199 153.622 1.80687C153.604 1.79909 153.587 1.79131 153.569 1.78353ZM178.752 1.25514C176.365 1.24353 175.005 1.65427 173.274 1.34635C174.391 2.03185 181.533 1.22687 184.06 1.79388C184.321 1.679 184.582 1.56415 184.843 1.44935C183.471 1.56111 182.517 1.33801 181.847 1.31096C181.315 1.28953 181.372 1.40705 181.331 1.40574C181.329 1.40576 181.327 1.40578 181.326 1.4058C180.08 1.36946 179.694 1.25989 178.752 1.25514ZM277.578 2.26386C276.941 2.0697 275.819 2.05973 275.8 2.31914C276.422 2.40969 277.045 2.50045 277.667 2.59141C277.541 2.52168 277.687 2.29705 277.578 2.26386ZM313.276 3.21055C312.779 3.10719 311.594 3.13734 312.095 3.38044C312.186 3.42357 313.368 3.31003 312.663 3.6889C313.81 3.7256 313.558 3.26983 313.276 3.21055ZM219.543 1.66415C219.965 1.65856 220.386 1.65307 220.807 1.64768C220.906 1.54335 221.004 1.43903 221.103 1.33472C220.583 1.44438 220.063 1.55419 219.543 1.66415ZM282.994 2.22606C283.54 2.75401 284.51 2.28118 285.548 2.73224C285.936 2.74637 286.324 2.76058 286.712 2.77487C286.713 2.7749 286.714 2.77492 286.715 2.77495C286.729 2.63534 286.744 2.49573 286.758 2.35611C285.503 2.31194 284.249 2.26859 282.994 2.22606ZM193.281 1.41966C193.541 1.48342 193.8 1.54721 194.06 1.61104C194.522 1.53294 194.983 1.45496 195.445 1.37709C195.195 1.32382 194.945 1.27059 194.694 1.2174C194.223 1.2847 193.752 1.35212 193.281 1.41966ZM289.816 2.37539C288.46 2.27128 287.937 2.70219 289.672 2.75413C290.404 2.77572 291.236 2.48469 289.816 2.37539ZM127.639 2.60314C128.105 2.62714 128.571 2.65126 129.038 2.67552C129.193 2.57711 129.349 2.47871 129.504 2.38033C128.883 2.45437 128.261 2.52864 127.639 2.60314ZM319.707 3.51005C319.649 3.60155 319.591 3.69306 319.533 3.78457C319.119 3.74925 318.705 3.71401 318.291 3.67887C318.399 3.58994 318.507 3.50101 318.615 3.4121C318.979 3.44467 319.343 3.47733 319.707 3.51005ZM130.77 2.568C131.142 2.57511 131.514 2.5823 131.887 2.58957C132.135 2.53688 132.384 2.48422 132.632 2.4316C132.283 2.39621 131.934 2.3609 131.585 2.32566C131.313 2.4064 131.041 2.48718 130.77 2.568ZM302.678 2.82661C302.159 2.69606 300.062 2.97729 301.938 3.12988C303.133 3.22722 302.756 2.84645 302.678 2.82661ZM305.496 2.8113C303.515 2.52784 304.969 3.66785 307.365 3.04622C304.974 3.05853 305.612 2.8285 305.496 2.8113ZM323.002 2.91181C323.052 2.91442 323.087 3.07267 323.486 3.09485C324.923 3.17397 326.819 3.31544 327.847 3.36885C330.319 3.49378 337.903 3.54998 338.768 4.04649C338.948 4.15015 338.511 4.41488 338.585 4.43299C338.803 4.48387 340.076 4.40471 339.832 4.60316C338.59 4.54372 337.347 4.48507 336.104 4.42719C336.416 4.29337 336.728 4.15959 337.04 4.02587C333.94 3.96434 334.965 4.00208 334.06 4.28353C333.542 4.13562 333.023 3.98784 332.505 3.8402C331.359 3.91514 330.213 3.99075 329.067 4.067C329.329 3.98477 329.592 3.90256 329.855 3.82039C328.143 3.57358 328.616 3.70755 327.665 3.89381C327.667 3.8004 327.669 3.70698 327.672 3.61356C326.002 3.77076 325.69 3.47788 325.328 3.45931C324.584 3.42305 323.591 4.48725 320.799 3.27412C319.581 3.75478 319.651 2.68072 318.927 3.1996C316.925 2.52474 320.768 2.89114 322.589 2.98587C322.59 2.98591 322.591 2.98595 322.592 2.98599C322.73 2.99328 322.515 2.88415 323.002 2.91181ZM312.578 3.05247C313.822 2.61242 308.979 2.3881 310.557 3.14775C310.794 3.17926 311.032 3.21082 311.27 3.24239C311.707 3.17902 312.144 3.11575 312.58 3.05258C312.58 3.05254 312.578 3.0525 312.578 3.05247ZM267.063 1.38761C262.569 1.4923 265.116 1.82506 266.642 1.58467C266.946 1.53707 267.114 1.46651 267.063 1.38761ZM175.337 0.920557C175.272 0.9796 175.207 1.03865 175.142 1.09769C176.648 1.02456 179.561 1.21836 179.517 0.826206C178.124 0.85656 176.731 0.888003 175.337 0.920557ZM187.248 0.548547C186.924 0.527144 185.602 0.481585 185.763 0.627381C186.336 0.726966 186.91 0.826734 187.483 0.926687C187.75 0.859627 188.016 0.792606 188.282 0.725628C187.91 0.706093 187.335 0.55408 187.248 0.548547Z" fill="#FFC727"/>
</svg>
