<svg width="31" height="30" viewBox="0 0 31 30" fill="none" xmlns="http://www.w3.org/2000/svg">
<path d="M26.75 12.4999C26.75 21.2499 15.5 28.7499 15.5 28.7499C15.5 28.7499 4.25 21.2499 4.25 12.4999C4.25 9.51619 5.43526 6.65471 7.54505 4.54493C9.65483 2.43514 12.5163 1.24988 15.5 1.24988C18.4837 1.24988 21.3452 2.43514 23.455 4.54493C25.5647 6.65471 26.75 9.51619 26.75 12.4999Z" stroke="white" stroke-width="2" stroke-linecap="round" stroke-linejoin="round"/>
<path d="M15.5 16.2499C17.5711 16.2499 19.25 14.5709 19.25 12.4999C19.25 10.4288 17.5711 8.74988 15.5 8.74988C13.4289 8.74988 11.75 10.4288 11.75 12.4999C11.75 14.5709 13.4289 16.2499 15.5 16.2499Z" stroke="white" stroke-width="2" stroke-linecap="round" stroke-linejoin="round"/>
</svg>
