<svg width="31" height="31" viewBox="0 0 31 31" fill="none" xmlns="http://www.w3.org/2000/svg">
<g clip-path="url(#clip0_592_1363)">
<path d="M19.3123 6.75C20.5332 6.98821 21.6553 7.58532 22.5349 8.46492C23.4145 9.34452 24.0116 10.4666 24.2498 11.6875M19.3123 1.75C21.8489 2.0318 24.2143 3.16772 26.0201 4.97126C27.8259 6.7748 28.9648 9.13876 29.2498 11.675M27.9998 21.65V25.4C28.0012 25.7481 27.9299 26.0927 27.7904 26.4117C27.651 26.7307 27.4464 27.017 27.1899 27.2523C26.9334 27.4877 26.6305 27.6669 26.3007 27.7784C25.9709 27.8899 25.6215 27.9313 25.2748 27.9C21.4283 27.4821 17.7335 26.1677 14.4873 24.0625C11.4671 22.1433 8.90646 19.5827 6.98729 16.5625C4.87477 13.3015 3.5601 9.58874 3.14979 5.725C3.11856 5.37933 3.15964 5.03095 3.27042 4.70203C3.3812 4.37311 3.55926 4.07086 3.79325 3.81453C4.02725 3.55819 4.31205 3.35339 4.62953 3.21315C4.94702 3.07292 5.29022 3.00033 5.63729 3H9.38729C9.99393 2.99403 10.582 3.20885 11.042 3.60442C11.502 3.99998 11.8024 4.54931 11.8873 5.15C12.0456 6.35008 12.3391 7.52841 12.7623 8.6625C12.9305 9.1099 12.9669 9.59614 12.8672 10.0636C12.7675 10.5311 12.5359 10.9601 12.1998 11.3L10.6123 12.8875C12.3917 16.0169 14.9829 18.6081 18.1123 20.3875L19.6998 18.8C20.0397 18.4639 20.4687 18.2323 20.9362 18.1326C21.4037 18.0329 21.8899 18.0693 22.3373 18.2375C23.4714 18.6607 24.6497 18.9542 25.8498 19.1125C26.457 19.1982 27.0115 19.504 27.408 19.9719C27.8044 20.4397 28.015 21.037 27.9998 21.65Z" stroke="white" stroke-width="2" stroke-linecap="round" stroke-linejoin="round"/>
</g>
<defs>
<clipPath id="clip0_592_1363">
<rect width="30" height="30" fill="white" transform="translate(0.5 0.5)"/>
</clipPath>
</defs>
</svg>
