<svg width="52" height="51" viewBox="0 0 52 51" fill="none" xmlns="http://www.w3.org/2000/svg">
<path d="M25.9941 50.3144C39.798 50.3144 50.9883 39.1885 50.9883 25.464C50.9883 11.7395 39.798 0.613647 25.9941 0.613647C12.1903 0.613647 1 11.7395 1 25.464C1 39.1885 12.1903 50.3144 25.9941 50.3144Z" stroke="#B7B7B7"/>
<path d="M24.6945 32.8112L24.674 26.5519H21.9961V23.8694H24.674V22.081C24.674 19.6674 26.1661 18.5043 28.3155 18.5043C29.3451 18.5043 30.2299 18.5811 30.4878 18.6154V21.1377L28.9971 21.1384C27.8281 21.1384 27.6018 21.6948 27.6018 22.5113V23.8694H30.9226L30.0299 26.5519H27.6018V32.8112H24.6945Z" fill="#1E2532"/>
</svg>
