<svg width="1440" height="677" viewBox="0 0 1440 677" fill="none" xmlns="http://www.w3.org/2000/svg">
<circle cx="1334.65" cy="233.65" r="285.804" transform="rotate(15 1334.65 233.65)" stroke="white"/>
<circle cx="1335.03" cy="234.028" r="261.618" transform="rotate(15 1335.03 234.028)" stroke="white"/>
<circle cx="1335.03" cy="234.028" r="235.056" transform="rotate(15 1335.03 234.028)" stroke="white"/>
<circle cx="1335.5" cy="234.496" r="202.293" transform="rotate(15 1335.5 234.496)" stroke="white"/>
<circle cx="1335.37" cy="234.37" r="167.24" transform="rotate(15 1335.37 234.37)" stroke="white"/>
<circle cx="1335.44" cy="234.438" r="135.722" transform="rotate(15 1335.44 234.438)" stroke="white"/>
<circle cx="1335.84" cy="233.838" r="97.9744" transform="rotate(15 1335.84 233.838)" stroke="white"/>
<circle cx="1335.61" cy="233.606" r="58.9275" transform="rotate(15 1335.61 233.606)" stroke="white"/>
<circle cx="719.65" cy="24.6496" r="285.804" transform="rotate(15 719.65 24.6496)" stroke="white"/>
<circle cx="720.028" cy="25.0282" r="261.618" transform="rotate(15 720.028 25.0282)" stroke="white"/>
<circle cx="720.028" cy="25.0283" r="235.056" transform="rotate(15 720.028 25.0283)" stroke="white"/>
<circle cx="720.496" cy="25.496" r="202.293" transform="rotate(15 720.496 25.496)" stroke="white"/>
<circle cx="720.37" cy="25.3697" r="167.24" transform="rotate(15 720.37 25.3697)" stroke="white"/>
<circle cx="720.438" cy="25.4385" r="135.722" transform="rotate(15 720.438 25.4385)" stroke="white"/>
<circle cx="720.838" cy="24.8376" r="97.9744" transform="rotate(15 720.838 24.8376)" stroke="white"/>
<circle cx="720.606" cy="24.606" r="58.9275" transform="rotate(15 720.606 24.606)" stroke="white"/>
<circle cx="220.65" cy="400.65" r="285.804" transform="rotate(15 220.65 400.65)" stroke="white"/>
<circle cx="221.028" cy="401.028" r="261.618" transform="rotate(15 221.028 401.028)" stroke="white"/>
<circle cx="221.028" cy="401.028" r="235.056" transform="rotate(15 221.028 401.028)" stroke="white"/>
<circle cx="221.496" cy="401.496" r="202.293" transform="rotate(15 221.496 401.496)" stroke="white"/>
<circle cx="221.37" cy="401.37" r="167.24" transform="rotate(15 221.37 401.37)" stroke="white"/>
<circle cx="221.438" cy="401.438" r="135.722" transform="rotate(15 221.438 401.438)" stroke="white"/>
<circle cx="221.838" cy="400.838" r="97.9744" transform="rotate(15 221.838 400.838)" stroke="white"/>
<circle cx="221.606" cy="400.606" r="58.9275" transform="rotate(15 221.606 400.606)" stroke="white"/>
<circle cx="921.434" cy="479.434" r="164.183" transform="rotate(15 921.434 479.434)" stroke="white" stroke-width="0.574461"/>
<circle cx="921.652" cy="479.652" r="150.29" transform="rotate(15 921.652 479.652)" stroke="white" stroke-width="0.574461"/>
<circle cx="921.652" cy="479.652" r="135.03" transform="rotate(15 921.652 479.652)" stroke="white" stroke-width="0.574461"/>
<circle cx="921.921" cy="479.921" r="116.209" transform="rotate(15 921.921 479.921)" stroke="white" stroke-width="0.574461"/>
<circle cx="921.848" cy="479.848" r="96.0727" transform="rotate(15 921.848 479.848)" stroke="white" stroke-width="0.574461"/>
<circle cx="921.888" cy="479.888" r="77.9672" transform="rotate(15 921.888 479.888)" stroke="white" stroke-width="0.574461"/>
<circle cx="922.117" cy="479.542" r="56.2825" transform="rotate(15 922.117 479.542)" stroke="white" stroke-width="0.574461"/>
<circle cx="921.984" cy="479.409" r="33.8516" transform="rotate(15 921.984 479.409)" stroke="white" stroke-width="0.574461"/>
<circle cx="91.5" cy="-57.5656" r="140.6" transform="rotate(15 91.5 -57.5656)" stroke="white" stroke-width="0.491944"/>
<circle cx="91.6863" cy="-57.3793" r="128.702" transform="rotate(15 91.6863 -57.3793)" stroke="white" stroke-width="0.491944"/>
<circle cx="91.6864" cy="-57.3793" r="115.634" transform="rotate(15 91.6864 -57.3793)" stroke="white" stroke-width="0.491944"/>
<circle cx="91.9164" cy="-57.1491" r="99.5168" transform="rotate(15 91.9164 -57.1491)" stroke="white" stroke-width="0.491944"/>
<circle cx="91.8543" cy="-57.2113" r="82.2726" transform="rotate(15 91.8543 -57.2113)" stroke="white" stroke-width="0.491944"/>
<circle cx="91.8881" cy="-57.1775" r="66.7678" transform="rotate(15 91.8881 -57.1775)" stroke="white" stroke-width="0.491944"/>
<circle cx="92.0845" cy="-57.4731" r="48.1979" transform="rotate(15 92.0845 -57.4731)" stroke="white" stroke-width="0.491944"/>
</svg>
