<svg width="52" height="52" viewBox="0 0 52 52" fill="none" xmlns="http://www.w3.org/2000/svg">
<path d="M25.9941 51.0152C39.798 51.0152 50.9883 39.8893 50.9883 26.1648C50.9883 12.4404 39.798 1.31445 25.9941 1.31445C12.1903 1.31445 1 12.4404 1 26.1648C1 39.8893 12.1903 51.0152 25.9941 51.0152Z" stroke="#B7B7B7"/>
<g clip-path="url(#clip0_45_2218)">
<path d="M29.7435 18.7129H22.2452C20.1746 18.7129 18.4961 20.3818 18.4961 22.4404V29.8956C18.4961 31.9542 20.1746 33.6231 22.2452 33.6231H29.7435C31.814 33.6231 33.4926 31.9542 33.4926 29.8956V22.4404C33.4926 20.3818 31.814 18.7129 29.7435 18.7129Z" stroke="#1E2532" stroke-width="2" stroke-linecap="round" stroke-linejoin="round"/>
<path d="M28.9935 25.6989C29.086 26.3194 28.9794 26.953 28.6889 27.5098C28.3983 28.0665 27.9386 28.518 27.3751 28.8C26.8116 29.082 26.173 29.1802 25.5501 29.0805C24.9273 28.9809 24.3519 28.6885 23.9058 28.245C23.4597 27.8015 23.1657 27.2294 23.0654 26.6101C22.9652 25.9908 23.0639 25.3559 23.3476 24.7956C23.6312 24.2354 24.0853 23.7783 24.6453 23.4894C25.2052 23.2005 25.8426 23.0946 26.4666 23.1866C27.1031 23.2804 27.6924 23.5753 28.1475 24.0277C28.6025 24.4801 28.8991 25.066 28.9935 25.6989Z" stroke="#1E2532" stroke-width="2" stroke-linecap="round" stroke-linejoin="round"/>
<ellipse cx="30.1172" cy="22.0655" rx="1.125" ry="1.11827" fill="white"/>
</g>
<defs>
<clipPath id="clip0_45_2218">
<rect width="17.9958" height="17.8923" fill="white" transform="translate(16.9961 17.2207)"/>
</clipPath>
</defs>
</svg>
