<svg width="333" height="28" viewBox="0 0 333 28" fill="none" xmlns="http://www.w3.org/2000/svg">
<path d="M7.85817 4.92373C14.7171 2.98485 19.5894 4.12497 26.0652 3.92942C33.011 3.72157 41.0166 3.26189 49.0883 2.8035C57.591 2.31835 66.1665 1.83467 73.6398 1.57878C81.6516 1.30322 89.7595 1.11808 97.7979 0.989505C100.822 0.941078 103.835 0.900561 106.83 0.865824C107.393 0.859154 107.731 1.00627 107.986 1.00353C110.385 0.976622 114.405 0.773171 116.786 0.761392C121.792 0.729261 130.502 0.625726 135.087 0.750561C137.034 0.801274 139.031 0.81995 139.788 1.18274C140.499 1.19924 140.886 0.868619 141.072 0.85022C141.074 0.850541 141.076 0.850861 141.079 0.851181C141.677 0.793928 143.187 1.02253 143.521 1.00785C143.57 1.00555 143.263 0.767035 144.072 0.838268C144.144 0.844412 144.078 1.00679 144.759 1.00856C144.864 1.0088 145.705 0.920997 146.509 0.846737C147.063 0.795587 147.598 0.750801 147.864 0.744774C150.03 0.695003 155.201 0.904067 157.79 0.915158C158.186 0.917119 158.414 0.823304 158.832 0.823846C159.048 0.824016 159.372 0.928919 159.438 0.928733C159.729 0.926593 161.005 0.466062 160.542 1.38734C161.871 1.33701 161.481 1.0292 161.513 0.830944C162.955 0.811729 163.647 1.25231 164.027 0.793874C171.118 0.902907 178.208 1.04295 185.296 1.21115C185.299 1.136 185.302 1.06086 185.306 0.985705C187.39 1.31943 188.116 0.824008 189.301 1.28065C190.038 1.19741 190.775 1.11447 191.513 1.03182C192.738 1.07327 193.963 1.11281 195.188 1.15071C211.469 1.65423 227.713 1.86625 243.828 2.38759C245.198 2.4319 246.566 2.47844 247.935 2.5276C248.723 2.55593 248.914 2.72282 250.213 2.77124C251.647 2.82462 253.672 2.71346 255.562 2.78728C257.22 2.85158 259.661 3.09709 261.509 3.19357C261.926 3.21504 262.232 3.12571 262.279 3.12813C262.555 3.143 262.563 3.30386 262.83 3.31901C263.151 3.33679 263.543 3.23342 263.913 3.25551C265.295 3.33707 266.806 3.35733 266.981 3.36724C267.824 3.41672 268.004 3.58117 268.074 3.58572C269.012 3.64327 268.666 3.48738 268.899 3.50517C270.111 3.59841 270.954 3.987 272.629 3.71749C272.578 3.84665 272.527 3.97582 272.477 4.105C273.745 4.23202 272.92 3.84857 273.182 3.7964C273.289 3.77725 276.024 3.93559 276.234 3.95103C276.968 4.00493 276.98 4.17998 277.044 4.18504C277.198 4.19722 279.056 4.07905 279.996 4.27239C281.11 4.50133 279.774 4.79817 280.05 4.87682C280.096 4.89008 281.271 4.90495 281.424 5.02278C281.593 5.14969 280.578 5.10281 280.591 5.15356C280.601 5.18831 282.274 5.50802 281.944 5.65944C281.677 5.81393 279.401 5.50138 278.914 5.55868C278.833 5.56814 278.975 5.77958 278.904 5.78404C278.619 5.7985 273.35 5.58009 273.111 5.53707C273.389 5.45526 273.667 5.37346 273.946 5.2917C273.581 5.26688 273.217 5.24211 272.853 5.21738C273.375 5.16433 273.896 5.11136 274.418 5.0585C273.68 4.25717 271.325 4.93921 271.214 5.319C271.165 5.49463 272.565 6.01016 271.233 6.22094C271.432 6.27482 271.631 6.32872 271.829 6.38262C272.246 6.32508 272.663 6.2676 273.08 6.21017C272.806 6.15145 272.533 6.09274 272.259 6.03406C272.363 5.98497 272.467 5.93588 272.57 5.88679C273.347 5.83365 274.124 5.78069 274.901 5.72796C275.297 5.78425 275.208 5.93821 275.48 5.98027C278.872 6.50937 276.67 5.92623 278.898 6.09265C279.213 6.19098 279.527 6.28935 279.842 6.38774C279.745 6.03319 280.724 6.29559 281.925 6.1972C281.778 6.3041 281.63 6.41101 281.482 6.51792C283.215 6.53304 286.699 7.26033 285.78 6.59368C286.174 6.66473 286.568 6.73581 286.963 6.80695C287.302 6.71988 287.642 6.63284 287.981 6.54584C288.443 6.57842 288.906 6.61106 289.368 6.64376C289.368 6.69914 289.367 6.75451 289.367 6.80989C288.998 6.79347 288.629 6.77709 288.26 6.76075C288.529 6.94171 288.798 7.12267 289.068 7.30366C289.341 7.28804 289.615 7.27243 289.888 7.25685C288.753 7.04566 290.271 6.85382 290.646 6.64813C291.412 6.61782 291.949 6.81047 292.299 6.90563C292.393 6.9307 292.472 6.94905 292.541 6.95496C292.69 6.96591 294.539 6.55205 293.795 7.07422C294.734 7.05577 295.693 7.04523 296.643 7.04364C297.007 7.11223 297.38 7.18289 297.745 7.25461C297.309 7.35951 297.75 7.54681 298.003 7.69743C298.167 7.794 298.254 7.87471 297.986 7.90662C297.883 7.91911 297.728 7.9245 297.502 7.92141C296.221 7.90648 295.924 7.64623 295.32 7.60936C294.773 7.57717 294.474 7.72449 293.885 7.69998C293.324 7.67642 292.796 7.6555 292.266 7.63468C289.067 7.50984 286.275 7.35295 283.094 7.14986C282.363 7.10299 281.695 7.1543 281.204 7.12155C280.65 7.08433 281.354 6.90878 280.645 6.92803C279.9 6.94865 279.733 7.10976 279.536 7.10462C279.414 7.10123 279.035 6.93329 278.679 6.91792C277.217 6.85461 275.068 6.90965 274.86 6.90008C274.625 6.8879 270.496 6.57826 270.299 6.54577C270.195 6.52793 270.435 5.97857 269.499 6.5362C269.214 6.53554 268.93 6.53491 268.645 6.53431C268.695 6.42464 268.746 6.31498 268.797 6.20531C267.095 6.55928 267.684 6.34629 266.058 6.31368C262.167 6.23576 256.434 5.9186 252.179 5.80144C251.229 5.77538 250.862 5.89564 249.738 5.86432C248.694 5.83445 245.982 5.33867 246.555 5.91207C245.027 5.5406 244.335 5.77206 243.709 5.80892C243.39 5.82771 243.088 5.79611 242.702 5.60908C242.559 5.67905 242.415 5.74902 242.272 5.81901C241.021 5.45467 240.622 5.72356 239.242 5.71611C238.647 5.71314 239.343 5.39446 238.132 5.73475C237.904 5.69883 237.676 5.66294 237.447 5.62707C237.503 5.54619 237.559 5.46532 237.615 5.38444C236.282 5.4081 236.197 5.36243 236.339 5.67661C235.698 5.5993 235.057 5.52216 234.416 5.4452C234.333 5.54414 234.25 5.64307 234.167 5.74202C234.339 5.85825 239.196 5.96604 243.701 6.0445C247.067 6.10224 250.238 6.14201 251.108 6.13427C253.483 6.45067 258.281 6.34553 260.205 6.47599C260.974 6.52806 261.306 6.77087 262.425 6.84276C263.545 6.9146 264.963 6.76267 265.561 6.77933C267.551 6.83085 276.968 7.27109 270.55 7.28918C270.729 7.4087 270.909 7.52822 271.088 7.64775C273.65 7.37225 272.718 7.56867 274.828 7.69728C275.717 7.75163 277.842 7.59252 277.702 8.09564C276.047 8.1192 274.3 7.88233 272.864 7.82944C272.722 7.8242 271.012 7.98512 270.14 7.88602C269.354 7.79592 269.917 7.33372 268.177 7.80722C266.924 7.22373 266.166 7.67604 265.828 7.71367C265.242 7.77904 265.189 7.51423 264.608 7.46035C263.975 7.40121 263.532 7.55793 263.445 7.55562C262.576 7.52417 258.047 7.37128 257.844 7.25822C258.028 7.21871 258.211 7.1792 258.395 7.13972C257.222 7.01956 257.458 7.29727 257.147 7.31749C256.917 7.30771 256.687 7.29794 256.457 7.28819C256.55 7.23604 256.643 7.1839 256.737 7.13176C255.347 7.09076 256.403 7.32422 254.432 7.24476C253.18 7.19425 251.895 6.93415 251.773 6.94537C251.737 6.94856 252.126 7.10627 251.614 7.10664C250.769 7.10693 249.308 7.05014 249.152 6.84951C248.737 6.8621 248.765 7.05398 248.71 7.05633C248.476 7.06541 244.578 6.98823 243.669 6.97125C243.64 6.9707 243.615 6.97021 243.593 6.96978C241.54 6.92943 239.257 6.81129 237.033 6.77024C236.804 6.76593 236.954 6.6484 236.725 6.64482C236.357 6.63885 234.463 6.76956 234.18 6.77421C233.475 6.78467 231.626 6.65003 231.333 6.69666C231.291 6.70325 231.896 6.88767 231.182 6.91664C230.389 6.94869 230.822 6.7396 230.779 6.73603C229.171 6.60995 228.15 6.73366 227.05 6.73051C226.693 6.72939 226.041 6.54241 225.537 6.57702C225.479 6.58093 225.589 6.73898 225.532 6.74491C224.77 6.80359 224.068 6.49587 223.74 6.46775C222.937 6.39903 223.369 6.62354 223.327 6.62383C222.791 6.61512 222.072 6.51802 221.257 6.50514C217.624 6.44803 214.66 6.38173 210.798 6.27118C210.313 6.2574 209.741 6.09385 209.667 6.09184C209.438 6.08736 209.499 6.26453 208.836 6.24449C207.439 6.20163 206.143 6.17961 204.759 6.14457C204.48 6.1375 204.365 5.97208 204.153 5.96375C203.44 5.93713 201.001 6.30996 200.973 5.77917C199.548 6.21809 198.617 5.79405 197.479 5.77534C196.772 5.76362 195.96 5.75593 195.099 5.74919C192.673 5.72999 189.854 5.7196 187.87 5.64145C187.305 5.61887 187.041 5.47865 186.727 5.46614C186.162 5.44276 182.932 5.46835 182.764 5.44496C182.433 5.39898 182.64 4.80323 180.928 5.29998C179.927 5.32297 180.049 5.07919 179.842 5.06305C178.232 4.94204 176.658 5.47047 176.957 4.97201C175.079 5.08457 173.86 5.34835 173.1 4.8702C173.107 5.09946 172.223 5.22691 171.161 5.12853C172.254 4.75534 172.122 4.50701 174.755 4.60803C174.796 4.60964 174.715 4.7744 174.757 4.77602C175.133 4.79165 175.918 4.71748 176.559 4.73455C177.2 4.75166 176.843 4.86043 177.099 4.86151C177.334 4.86227 177.328 4.7036 177.668 4.70575C178.771 4.71386 179.748 4.6836 180.375 4.68959C180.771 4.6935 181.211 4.83914 181.518 4.84358C182.704 4.8593 185.218 4.78902 186.727 4.82936C187.041 4.8381 186.907 4.99219 187.594 5.01662C187.675 5.01949 187.97 4.86136 188.573 4.83786C189.176 4.81438 189.642 4.90349 190.029 4.89345C190.352 4.88509 190.22 4.73785 190.883 4.74066C191.191 4.74202 193.275 4.81041 195.116 4.87842C196.576 4.93214 197.884 4.98515 198.034 4.99845C198.522 5.0418 198.75 5.24999 199.049 5.23143C199.102 5.22721 199.195 5.03267 199.377 5.02243C202.384 4.85127 209.02 5.27269 212.449 5.36027C219.616 5.54015 226.231 5.61517 233.462 5.79958C233.592 5.76953 233.722 5.73949 233.852 5.70945C233.121 5.68476 232.39 5.66031 231.659 5.63608C231.658 5.54354 231.656 5.45099 231.654 5.35845C230.667 5.31289 230.791 5.5356 230.814 5.6683C230.451 5.60097 230.087 5.53369 229.723 5.46646C229.397 5.77856 226.966 5.4901 225.709 5.45371C224.891 5.42948 223.914 5.52392 223.484 5.50195C222.573 5.45596 222.603 5.25803 222.531 5.25279C222.41 5.24477 221.133 5.38376 220.216 5.35149C218.86 5.30421 218.722 4.99485 216.858 5.20391C214.483 4.9817 211.845 4.99359 209.28 4.95708C209.775 4.68682 207.47 4.89793 206.434 4.86954C202.947 4.77254 199.019 4.64374 195.123 4.51324C191.955 4.40698 188.808 4.29946 185.935 4.20312C185.112 4.17576 184.492 3.99987 184.033 3.99829C183.784 3.99728 183.673 4.19154 183.327 4.16037C183.267 4.15448 183.227 3.97057 182.584 3.93338C180.984 3.83927 176.993 4.09161 175.988 3.72837C170.513 3.71521 165.038 3.71961 159.563 3.74288C159.426 3.66723 159.289 3.59159 159.152 3.51597C158.11 3.8919 153.999 3.64895 151.994 3.66321C150.302 3.67442 148.386 3.70714 146.509 3.74116C144.471 3.778 142.479 3.8164 140.87 3.82719C140.198 3.83168 139.647 3.72476 139.011 3.72906C138.737 3.7311 138.398 3.87301 138.113 3.87481C134.916 3.89667 130.586 3.77849 127.363 3.81088C120.047 3.88297 113.156 3.95695 105.744 4.10691C103.119 4.16037 100.497 4.22117 97.8758 4.28891C81.6152 4.70911 65.418 5.39551 49.266 6.24797C43.2482 6.56558 37.2369 6.90623 31.2298 7.26489C30.8983 7.28469 30.9046 7.12218 30.6477 7.13734C29.1306 7.22466 25.7532 7.57952 24.0407 7.68946C22.6763 7.77588 20.4938 7.68024 20.042 7.96219C24.9136 7.99634 30.0307 7.63198 35.0831 7.43167C35.4423 7.41736 35.4962 7.56824 35.5405 7.56838C36.3606 7.57265 35.832 7.39197 37.0161 7.31184C37.4121 7.28381 41.0971 7.56266 40.6341 7.10037C41.5211 7.24209 47.7008 7.0027 48.889 6.87999C49.2499 6.84155 48.9862 6.71019 49.0577 6.69915C49.1456 6.68553 49.2207 6.6912 49.2896 6.7061C49.4639 6.74381 49.5982 6.84065 49.7982 6.83409C50.5419 6.80801 52.4241 6.55151 52.7834 6.53518C53.61 6.49552 56.0957 6.53834 57.1851 6.44966C58.1837 6.36818 57.9868 6.16853 58.8509 6.10968C59.532 6.06413 58.7974 6.27285 60.3218 6.25714C61.0772 6.24856 63.7109 6.00816 64.3525 5.98153C64.9937 5.95433 65.7122 6.04907 66.5961 6.00312C67.8694 5.93658 70.6382 5.75748 71.9334 5.66886C72.0107 5.66366 72.1932 5.49436 72.3841 5.49055C72.7795 5.48246 72.6683 5.68717 72.9674 5.69632C73.2666 5.70333 78.4351 5.49355 79.3135 5.46851C79.9187 5.4492 80.3327 5.31604 80.6673 5.30604C80.9298 5.29851 80.9634 5.46441 81.2312 5.45752C81.3141 5.4548 82.015 5.28683 82.7201 5.26777C83.3863 5.24936 85.9196 5.30947 86.2126 5.30249C86.4034 5.29737 86.1907 5.185 86.7548 5.17106C87.2689 5.15874 87.611 5.30286 87.904 5.29661C88.584 5.2819 89.3401 5.12901 90.0615 5.10832C92.1351 5.04943 92.0335 5.24391 92.158 5.24656C92.5034 5.25459 92.637 5.07626 92.7501 5.06967C93.2278 5.04231 94.3987 4.97984 94.8248 4.96241C95.3555 4.94059 95.5845 5.10102 96.1485 5.08771C96.4966 5.07907 97.1359 4.9524 97.89 4.89194C98.0466 4.87939 98.208 4.86969 98.3729 4.86448C100.535 4.79517 103.105 4.7093 105.229 4.67374C105.862 4.66295 105.962 4.8127 106.156 4.81289C107.174 4.81411 107.74 4.63427 108.03 4.63114C110.102 4.60747 113.8 4.81326 115.722 4.80896C116.505 4.80597 119.929 4.63697 121.862 4.63783C122.083 4.63759 121.878 4.75879 122.123 4.73741C122.711 4.68621 122.654 4.44486 122.953 4.44891C123.097 4.45162 123.427 4.58449 123.847 4.59368C126.023 4.64148 127.519 4.52275 128.512 4.52184C134.521 4.51676 140.604 4.53483 146.509 4.56532C149.974 4.58312 153.377 4.60499 156.669 4.6276C157.661 4.63429 158.893 4.49637 160.39 4.64517C160.436 4.72064 160.482 4.79611 160.527 4.87158C160.58 4.79801 160.633 4.72444 160.686 4.65087C162.383 4.62155 163.026 4.53092 164.758 4.63835C164.907 4.6474 165.36 4.99428 165.646 4.57028C167.36 4.89356 166.42 4.57418 167.695 4.55669C168.97 4.53948 170.207 4.64682 171.442 4.68128C172.118 4.8409 169.273 5.1639 169.088 5.16147C168.789 5.15725 168.481 4.94236 168.194 4.92844C167.343 4.88685 166.519 5.04803 166.33 4.85723C165.228 5.04804 166.598 4.95956 166.459 5.13861C165.726 5.05781 164.992 4.97733 164.259 4.89719C163.88 5.5061 159.829 4.68025 160.108 5.14934C159.786 5.05401 159.464 4.95875 159.142 4.86355C157.724 5.44134 156.894 5.02491 155.007 4.84343C155.143 4.9188 155.279 4.99419 155.415 5.06959C155.376 5.10053 153.71 5.21436 154.306 4.89754C152.597 5.31221 152.671 4.61352 151.139 5.11533C150.23 5.17844 150.777 4.88564 149.149 4.88842C148.36 4.88975 147.416 4.99202 146.509 5.03537C146.306 5.04505 146.105 5.05179 145.908 5.05379C145.66 5.05582 145.552 4.88592 145.331 4.88602C145.11 4.8862 145.003 5.05289 144.735 5.05728C144.182 5.06668 143.465 4.95058 143.12 4.96238C142.81 4.97246 142.368 5.12007 141.622 5.14476C139.016 5.23276 139.803 5.02145 139.391 4.95144C138.948 4.87735 138.631 5.15484 137.75 5.12616C137.661 5.12313 137.889 4.94991 137.602 4.9578C137.37 4.96405 137.254 5.15173 136.486 5.19005C136.18 5.20407 131.433 5.27108 130.71 5.2813C129.602 5.29391 127.132 5.15579 125.984 5.16815C125.542 5.17235 125.071 5.32732 124.602 5.33106C123.045 5.3431 120.554 5.35849 118.58 5.37717C116.803 5.39276 113.678 5.10736 112.71 5.42313C110.215 5.50229 109.605 5.25815 109.416 5.25768C108.908 5.2571 108.675 5.43092 108.034 5.45052C104.928 5.54426 101.454 5.62318 97.9092 5.70249C91.9777 5.83411 85.8496 5.97042 80.9272 6.14165C70.4164 6.50617 59.8761 6.98492 49.3329 7.54513C41.5777 7.95717 33.8208 8.41325 26.0718 8.89972C26.0278 8.97801 25.9838 9.0563 25.9399 9.13459C28.1035 9.03872 30.6503 9.00575 32.785 8.90328C35.6344 8.7642 39.8417 8.20406 41.9598 8.601C41.1153 8.69344 39.7238 8.57601 39.7638 8.83853C41.2791 8.7701 42.7944 8.70386 44.3099 8.63979C44.2581 8.52038 44.2062 8.40097 44.1543 8.28156C45.7341 8.15936 47.3532 8.09965 48.9395 7.99994C49.215 7.98278 49.0141 7.88222 49.2541 7.86925C49.2959 7.86703 49.3269 7.86811 49.3497 7.8715C49.4734 7.88995 49.3543 7.97675 49.3968 7.97531C50.0758 7.94147 50.275 7.81719 50.3579 7.81458C50.5708 7.80828 50.411 7.92508 51.0254 7.92444C52.1651 7.92376 52.9651 7.59565 52.7218 8.0889C53.0888 8.07073 53.4558 8.05268 53.8228 8.03476C53.9115 7.89942 54.0001 7.76409 54.0888 7.62876C56.3721 8.04697 57.3697 7.07336 58.6517 7.75035C59.0579 7.61928 59.4643 7.48837 59.8707 7.3576C60.1086 7.47785 60.3464 7.59815 60.5842 7.7185C60.6243 7.60429 60.6645 7.49008 60.7047 7.37587C62.9256 7.3595 65.2809 7.12432 67.4024 7.0511C68.8802 7.0003 69.2359 7.03067 70.5443 6.97115C73.4548 6.84032 70.5725 7.17323 73.0003 7.32216C72.8692 7.18927 72.7381 7.0564 72.607 6.92355C73.0058 6.85805 73.4046 6.79269 73.8033 6.72747C74.0864 6.82939 74.3694 6.93137 74.6524 7.03343C75.8685 6.40624 76.6872 6.84807 76.8555 6.84211C76.9915 6.83641 77.4468 6.46905 78.9215 6.71587C78.2978 6.25732 80.0386 6.67514 80.1768 6.6736C80.3081 6.67098 81.9835 6.50877 82.6652 6.49178C83.2014 6.478 84.3479 6.54525 85.146 6.51591C85.8507 6.48995 85.7742 6.32953 85.8256 6.32626C86.6928 6.2867 86.153 6.42939 86.7803 6.41691C87.4076 6.4045 87.8901 6.25178 88.0259 6.26025C88.0942 6.26489 87.8709 6.42302 88.1831 6.42863C89.0214 6.44423 90.5317 6.26909 91.4905 6.24724C91.8304 6.23926 92.2621 6.35637 92.6405 6.35032C93.2207 6.3406 93.4873 6.16283 93.8246 6.15918C93.9419 6.15839 94.6969 6.40284 95.626 6.33923C95.8026 6.32671 96.309 5.75555 97.0187 6.52983C97.0693 6.41725 97.1198 6.30468 97.1705 6.19211C97.4356 6.16226 97.6846 6.14142 97.9192 6.12774C100.439 5.98133 101.288 6.65821 102.542 5.89692C104.809 5.93927 103.26 6.28427 103.51 6.32694C103.671 6.35384 104.408 6.25286 104.489 6.25616C104.633 6.26285 104.61 6.36367 104.768 6.35996C107.654 6.28467 106.369 6.12067 107.281 5.98309C109.451 5.65732 111.159 6.26163 107.373 6.13961C107.374 6.19558 107.375 6.25156 107.376 6.30754C108.306 6.23616 110.671 6.22047 109.886 6.51817C109.269 6.75049 103.659 6.71217 106.841 6.96517C107.563 7.02261 107.932 6.8054 109.188 7.17701C110.014 7.18384 110.124 6.67135 111.245 6.85735C111.059 6.68239 110.872 6.50746 110.685 6.33255C112.206 6.07441 114.092 6.35637 115.262 6.23959C115.66 6.19958 117.082 5.33063 116.759 6.18399C117.428 6.12099 120.582 6.23696 121.167 6.15473C121.307 6.1349 121.485 5.6801 123.526 5.81584C123.668 5.87097 123.81 5.92612 123.952 5.98128C122.09 6.16537 125.384 6.29833 124.494 6.73647C124.188 6.54667 122.709 6.44488 122.47 6.35076C122.062 6.18851 123.269 5.95987 121.728 6.03589C120.765 6.76347 123.539 6.40236 123.122 7.08777C125.142 6.74863 125.348 7.05049 125.806 7.05854C127.764 7.09143 128.996 7.0092 130.844 7.07526C131.293 6.93175 127.947 6.75543 127.533 6.82017C129.054 6.31175 126.428 6.31139 125.323 6.61689C125.229 6.46807 125.135 6.31926 125.04 6.17045C126.483 6.23736 127.89 6.26662 129.318 6.13257C129.411 6.18783 129.504 6.24309 129.598 6.29836C129.278 6.38513 128.958 6.47198 128.639 6.5589C129.827 6.68752 129.112 6.25626 130.697 6.62709C130.745 6.45813 130.793 6.28917 130.841 6.12021C132.358 6.16539 133.876 6.21221 135.394 6.26063C136.182 5.91791 139.103 6.03275 138.57 6.47269C139.749 6.49961 138.293 6.27149 139.397 6.16135C139.878 6.11355 140.817 6.09807 141.049 6.21536C140.95 6.63234 139.545 6.68788 139.121 6.97569C139.379 7.06443 145.915 6.75634 145.332 7.2463C145.845 7.30374 145.622 7.06191 146.509 6.99262C146.524 6.99144 146.54 6.99031 146.555 6.98923C149.193 6.80924 153.277 7.31496 155.403 6.70135C152.91 6.34545 152.171 6.71105 150.26 6.72202C149.741 6.72514 148.099 6.73577 146.509 6.71562C144.357 6.68802 142.301 6.60393 143.257 6.34886C142.984 6.40523 142.711 6.46165 142.437 6.51812C142.161 6.38743 141.884 6.25679 141.607 6.1262C142.386 6.10565 143.165 6.08552 143.944 6.06578C144.13 6.19644 144.317 6.32711 144.503 6.45781C144.588 6.36432 144.674 6.27083 144.76 6.17734C145.088 6.15855 145.416 6.13983 145.744 6.12118C145.652 6.23351 145.56 6.34584 145.468 6.45818C145.815 6.47123 146.162 6.48436 146.509 6.49756C146.667 6.50359 146.826 6.50963 146.984 6.51568C146.848 6.36559 146.712 6.2155 146.576 6.06543C148.957 6.02855 148.15 6.12237 149.47 6.40442C150.456 6.43463 148.791 6.14342 150.877 6.07376C153.303 5.99443 151.711 6.44812 154.852 6.36039C154.897 6.28569 154.943 6.21099 154.988 6.13629C155.679 6.21375 156.369 6.29151 157.059 6.36957C156.968 6.27605 156.878 6.18254 156.787 6.08903C158.212 6.1313 160.178 5.96496 160.648 6.33324C159.204 6.14871 159.215 6.78679 159.59 6.90607C160.364 7.14359 171.818 7.01397 174.039 7.03235C176.878 7.04519 179.021 7.27785 181.618 7.00145C179.865 6.71615 173.682 6.84935 172.513 6.66063C172.397 6.6419 172.436 6.05763 171.683 6.70732C169.282 6.57013 166.408 6.72961 163.406 6.68867C163.499 6.52105 163.592 6.35344 163.684 6.18583C165.527 6.55727 167.242 5.78657 166.996 6.43818C167.363 6.4414 167.73 6.4447 168.098 6.44808C168.099 6.33546 168.1 6.22284 168.101 6.11021C168.654 6.11531 169.208 6.1206 169.762 6.12606C169.761 6.23869 169.76 6.35131 169.759 6.46393C170.217 6.46846 170.676 6.47311 171.134 6.4779C171.183 6.3661 171.232 6.2543 171.281 6.14251C172.652 6.38874 177.34 5.82207 175.274 6.46783C175.919 6.47561 176.564 6.48364 177.209 6.49191C177.208 6.40953 177.207 6.32716 177.206 6.24478C177.483 6.23727 177.761 6.2298 178.038 6.22238C177.946 6.29572 177.854 6.36906 177.761 6.4424C179.034 6.3254 180.233 6.73455 181.07 6.48863C180.521 6.42445 179.971 6.36044 179.422 6.29661C180.476 6.41776 182.423 6.22455 182.597 6.22672C183.128 6.23352 183.405 6.40422 183.979 6.4215C184.498 6.43674 184.428 6.30774 184.525 6.31375C187.321 6.48843 186.243 7.16414 187.563 6.36585C187.7 6.48014 187.837 6.59444 187.974 6.70875C188.161 6.61847 188.348 6.52821 188.534 6.43797C189.36 6.46089 190.186 6.4842 191.012 6.50787C190.739 6.36296 190.466 6.21809 190.193 6.07326C191.433 6.03279 192.005 6.32421 192.125 6.33281C192.464 6.35539 192.623 6.18218 192.728 6.1838C193.889 6.20896 194.62 6.2341 195.089 6.26597C196.658 6.37308 195.283 6.55489 197.215 7.10322C198.119 6.86189 197.215 6.5831 197.092 6.31643C198.286 6.46461 198.66 6.39917 199.922 6.44044C200.25 6.45139 200.6 6.60143 200.808 6.60782C200.987 6.61336 201.551 6.47406 201.982 6.48289C202.7 6.49749 203.654 6.60901 204.638 6.62922C205.455 6.64539 207.96 6.59685 209.706 6.63883C210.451 6.65715 210.275 6.77957 210.467 6.78458C210.547 6.78656 211.131 6.64927 211.609 6.66071C215.507 6.7553 219.497 6.95943 223.413 7.06985C226.172 7.14788 228.978 7.1105 231.742 7.20971C232.33 7.23103 232.015 7.33258 232.272 7.34461C232.36 7.34842 232.472 7.15738 233.379 7.26446C233.707 7.30311 233.325 7.42692 233.648 7.444C233.805 7.45228 233.877 7.284 234.797 7.27478C236.47 7.25783 237.36 7.51478 237.509 7.5129C237.791 7.50914 237.714 7.36546 238.086 7.37276C239.909 7.40856 241.431 7.43641 243.057 7.48081C243.169 7.48384 243.376 7.4897 243.65 7.49766C245.245 7.5433 249.095 7.66375 249.339 7.69473C249.98 7.77442 249.371 8.04691 250.196 8.06696C250.43 8.0009 250.664 7.93487 250.897 7.86885C250.532 7.79878 250.167 7.72877 249.802 7.6588C250.809 7.79018 251.96 7.69859 252.708 7.73149C252.846 7.73773 254.113 7.91863 254.762 7.92857C254.485 7.97347 254.207 8.01841 253.929 8.06337C254.025 8.11419 254.12 8.16502 254.216 8.21585C255.516 8.19304 256.888 8.2471 258.218 8.30853C258.698 8.33049 258.531 8.43881 259.017 8.46155C261.844 8.59592 261.149 8.09147 263.835 9.09378C262.919 8.97559 259.563 8.95778 259.077 8.90951C258.738 8.87545 257.451 8.0691 257.904 8.86323C255.188 8.7559 257.563 8.41809 255.023 8.41529C255.07 8.51186 255.117 8.60843 255.164 8.705C254.277 8.73121 253.621 8.75459 253.089 8.5675C252.892 9.01976 249.893 8.63976 248.242 8.6117C246.767 8.58576 245.173 8.58252 243.613 8.56964C242.649 8.56166 241.697 8.54999 240.794 8.52684C239.98 8.50586 239.525 8.31042 239.423 8.30754C239.273 8.30381 238.849 8.44739 238.551 8.43858C237.438 8.40543 234.062 8.02879 233.206 8.44016C236.672 8.55054 240.139 8.66617 243.605 8.78668C246.757 8.89627 249.91 9.00995 253.062 9.12741C252.238 8.88008 258.933 9.11246 259.272 9.13795C259.586 9.15977 259.316 9.30051 259.409 9.3133C260.102 9.40508 260.704 9.20941 260.925 9.21807C261.093 9.22471 261.429 9.34075 262.028 9.36214C262.138 9.36616 262.172 9.25872 262.29 9.26306C263.071 9.29395 263.842 9.32619 264.626 9.35705C264.673 9.36002 264.865 9.52664 265.063 9.53488C265.261 9.54285 265.464 9.39221 265.514 9.39373C266.14 9.42008 267.21 9.5668 267.806 9.59231C268.013 9.60071 267.874 9.47865 268.106 9.48924C268.818 9.52123 268.574 9.73905 269.456 9.71672C269.752 9.70917 269.74 9.53441 270.304 9.58073C270.704 9.61364 270.648 9.92185 270.711 9.93575C270.798 9.95294 272.189 9.76565 272.632 9.98755C271.622 10.4818 273.71 10.0608 273.62 9.83071C274.165 9.91068 274.71 9.99076 275.254 10.0709C275.443 10.0216 275.633 9.97234 275.822 9.92306C278.018 10.2752 279.371 10.1786 281.539 10.3531C281.644 10.3615 283.467 10.5693 283.378 10.6462C282.277 10.7362 281.184 10.6947 280.495 10.4081C279.32 10.8461 279.318 10.456 277.452 10.4405C276.828 10.4357 276.778 10.5663 276.706 10.5649C274.278 10.5264 270.393 10.4212 268.775 9.96723C268.313 10.0531 269.957 10.1624 269.314 10.2132C268.963 10.2388 260.556 10.0258 263.258 9.68747C262.979 9.68875 262.7 9.69005 262.421 9.69138C262.125 10.1015 260.743 9.95071 260.917 9.53735C260.783 9.61807 260.648 9.69879 260.513 9.77952C260.251 9.84203 259.943 9.86895 259.511 9.87531C257.859 9.89523 248.059 9.38464 247.535 9.42961C247.52 9.52873 247.504 9.62784 247.489 9.72696C251.817 9.99496 256.028 9.90487 260.741 10.3748C260.607 10.2761 260.474 10.1774 260.34 10.0787C262.22 10.2831 264.099 10.4888 265.979 10.6957C263.977 10.7838 260.799 10.8 258.71 10.5801C258.339 10.5409 258.617 10.4213 258.532 10.4022C258.31 10.3526 258.061 10.5692 257.258 10.5603C256.454 10.5513 254.443 10.3149 254.258 10.3126C253.901 10.3085 252.93 10.5309 252.323 10.5052C251.526 10.4711 252.067 10.331 251.907 10.3217C251.245 10.2815 250.649 10.3389 250.131 10.3082C249.362 10.2624 247.772 9.92335 247.219 10.3173C247.768 10.3558 248.318 10.3945 248.867 10.4332C246.934 10.4593 245.283 10.2134 243.559 10.1195C242.618 10.0684 241.656 10.0625 240.614 10.171C239.929 10.6485 242.359 10.6635 240.299 10.8072C240.672 10.8127 241.045 10.8182 241.418 10.8238C241.509 10.722 241.6 10.6203 241.691 10.5185C242.306 10.6116 242.921 10.7049 243.535 10.7983C243.56 10.802 243.585 10.8057 243.609 10.8095C243.585 10.796 243.561 10.7826 243.536 10.7692C243.381 10.6829 243.225 10.5966 243.069 10.5103C243.228 10.5109 243.387 10.5113 243.545 10.5119C245.661 10.5193 247.703 10.5423 248.426 11.0358C248.477 10.9162 248.528 10.7966 248.579 10.6769C250.687 10.9003 253.878 10.5046 253.26 11.1576C253.362 11.1256 253.463 11.0935 253.564 11.0615C254.836 11.2474 254.301 10.9478 254.782 10.9343C254.92 10.9304 257.397 11.1691 256.289 11.3276C258.705 11.5734 257.982 10.9141 258.65 10.912C260.189 11.2843 262.995 10.9258 261.804 11.3734C262.034 11.401 262.264 11.4287 262.494 11.4564C263.268 11.0978 263.998 11.5673 264.814 11.7473C265.092 11.7673 265.37 11.7873 265.648 11.8073C265.84 11.6841 266.032 11.5609 266.224 11.4377C268.818 12.1665 268.059 10.4311 269.197 11.91C269.007 11.9878 268.817 12.0657 268.627 12.1436C268.183 12.1661 267.739 12.1887 267.295 12.2113C269.077 12.3217 270.859 12.4332 272.64 12.5457C274.886 13.0416 276.193 12.6616 278.694 13.0872C278.931 13.0594 279.168 13.0315 279.405 13.0037C279.151 13.3171 278.24 13.2298 279.934 13.449C280.069 13.6842 278.919 13.6638 278.403 13.4656C278.279 13.4173 279.361 13.2884 278.154 13.2301C277.333 13.1903 278.811 13.5294 276.357 13.3219C276.446 13.3818 276.534 13.4416 276.623 13.5014C276.357 13.4884 276.09 13.4754 275.824 13.4624C275.592 13.3228 275.361 13.1833 275.129 13.0438C274.512 13.2049 274.158 13.4522 272.769 13.3379C273.15 13.2727 272.648 12.9912 271.959 12.9668C271.955 13.0605 271.951 13.1541 271.948 13.2478C270.277 13.2385 270.864 12.9877 269.469 13.1449C269.333 13.0647 269.198 12.9845 269.062 12.9043C268.294 13.1798 265.504 13.2756 266.03 12.8362C265.232 13.2517 263.601 12.9843 263.006 12.6025C262.956 12.6937 262.905 12.7849 262.855 12.876C262.53 12.882 262.204 12.888 261.879 12.8941C261.701 12.8307 261.522 12.7673 261.343 12.7039C261.111 12.7511 260.879 12.7983 260.647 12.8456C260.512 12.7468 260.376 12.648 260.241 12.5492C259.867 12.6467 259.494 12.7442 259.12 12.8417C258.896 12.7585 258.673 12.6752 258.45 12.592C258.419 12.7857 256.177 12.743 255.556 12.5916C255.368 12.6412 255.179 12.6907 254.99 12.7402C254.903 12.6441 254.815 12.548 254.728 12.4518C254.586 12.5207 254.444 12.5897 254.303 12.6586C253.986 12.5724 253.669 12.4863 253.352 12.4002C252.031 12.806 252.004 12.4059 251.706 12.3976C251.153 12.3823 249.263 12.5982 248.949 12.5723C248.636 12.5462 248.49 12.3776 248.237 12.3531C244.069 11.9474 245.771 12.447 244.93 12.4865C244.477 12.5083 244.162 12.345 243.762 12.3479C243.694 12.3483 243.598 12.3495 243.481 12.3513C242.422 12.367 239.601 12.4329 239.423 12.4093C239.135 12.3712 239.839 11.6763 238.894 11.8298C238.85 12.2139 236.853 11.7583 237.775 12.3269C236.949 12.2523 236.123 12.1779 235.298 12.1039C235.377 12.5638 234.366 12.2368 233.254 12.2267C231.678 12.2114 228.124 12.4028 228.268 11.9385C227.888 12.0347 227.507 12.131 227.127 12.2273C224.551 12.0022 222.015 12.0836 219.454 12.0182C211.852 11.8243 203.607 11.5245 196.042 11.2826C195.679 11.2708 195.734 11.1187 195.472 11.1101C195.334 11.1057 195.173 11.1021 194.995 11.0992C193.394 11.0726 190.324 11.1007 188.591 11.041C187.974 11.0197 187.676 10.8653 187.48 10.8552C186.816 10.8199 186.969 11.0193 186.663 11.0086C186.181 10.9913 183.63 10.7681 182.75 10.7362C182.315 10.7202 181.797 10.869 181.288 10.8134C181.244 10.8088 181.328 10.6488 181.291 10.6454C180.362 10.6124 180.919 10.7597 180.604 10.7479C178.363 10.6638 175.967 10.6296 173.535 10.5687C172.931 10.5533 172.008 10.4295 171.489 10.4134C171.292 10.4075 171.645 10.5335 170.962 10.5162C170.728 10.5103 170.649 10.3505 170.385 10.3375C169.246 10.2826 168.86 10.7901 167.886 10.37C165.996 10.3792 162.707 10.4853 160.983 10.4779C160.575 10.4758 160.377 10.3806 159.989 10.38C159.713 10.3795 159.227 10.5223 158.797 10.5217C158.367 10.5211 157.688 10.379 156.861 10.3803C155.99 10.3813 154.906 10.4596 154.71 10.4584C154.473 10.4575 154.363 10.2821 154.126 10.2835C153.409 10.2865 151.489 10.4533 150.565 10.4705C149.572 10.4884 148.976 10.403 148.637 10.4043C148.323 10.4063 147.957 10.5538 147.813 10.555C147.59 10.5571 147.537 10.3844 147.254 10.3858C147.018 10.3871 146.779 10.4159 146.509 10.4442C146.248 10.4715 145.96 10.4985 145.619 10.5C133.111 10.558 120.849 10.5713 108.681 10.665C107.325 10.6757 106.561 10.8107 104.562 10.7955C103.751 10.7894 104.089 10.6044 103.459 10.6511C103.178 10.6721 103.252 10.8107 102.897 10.8249C101.326 10.8871 99.4927 10.7984 98.8119 10.8166C98.605 10.8219 98.3776 10.9208 98.0336 10.9737C97.9287 10.9898 97.8129 11.0017 97.6834 11.0053C93.5584 11.1209 88.6764 11.2087 84.2388 11.3751C81.8891 11.4623 78.3338 11.6617 75.6378 11.7702C68.1881 12.0667 60.174 12.374 53.3845 12.7258C52.1256 12.7906 50.8677 12.8587 49.6106 12.9293C40.6289 13.4339 31.6882 14.0648 22.715 14.5311C27.5215 14.5829 34.0282 14.1348 39.3559 13.8694C42.7387 13.6992 46.1701 13.5206 49.6319 13.3413C61.9153 12.7036 74.5948 12.0617 86.9117 11.7042C90.2658 11.6063 94.1544 11.4987 98.0443 11.425C100.525 11.3779 103.006 11.3442 105.349 11.3326C105.622 11.3312 106.185 11.1977 106.775 11.1995C106.901 11.1999 108.458 11.3942 108.982 11.3873C108.478 10.9993 110.535 11.3165 111.169 11.2966C111.968 11.2707 113.632 11.0451 115.505 11.13C117.204 11.207 116.738 11.3666 116.832 11.3747C117.433 11.4283 117.639 11.1795 118.099 11.1485C119.977 11.0176 129.649 11.0623 132.347 11.0611C133.045 11.059 133.065 11.2153 133.222 11.2149C133.638 11.2134 134.23 11.0556 134.897 11.0531C136.099 11.049 137.484 11.1908 138.145 11.189C139.727 11.1843 142.729 11.0028 144.786 10.9985C145.364 10.9971 145.329 11.1598 145.591 11.1592C145.828 11.1585 146.144 11.1498 146.509 11.1365C147.914 11.085 150.04 10.9665 151.176 10.9678C153.5 10.9698 155.891 11.0837 158.254 11.0423C158.403 11.1157 158.552 11.189 158.702 11.2624C158.938 11.1875 159.175 11.1126 159.412 11.0378C163.406 11.1183 167.474 10.9881 171.447 11.0409C171.905 11.0465 174.17 11.2108 174.548 11.2162C174.862 11.2199 175.173 11.0438 175.639 11.076C176.291 11.1208 175.673 11.4555 176.74 11.3709C177.027 11.3481 176.751 11.198 177.328 11.1597C177.518 11.1462 181.212 11.1373 181.41 11.1511C181.74 11.173 182.031 11.4913 182.116 11.4993C182.559 11.5413 182.544 11.3001 182.842 11.2826C183.722 11.2299 184.867 11.41 185.01 11.4088C186.736 11.3911 189.967 11.2538 191.776 11.4013C192.026 11.4218 191.993 11.6007 192.037 11.6073C192.32 11.6497 192.5 11.4487 192.77 11.449C193.399 11.4508 194.182 11.4858 194.986 11.5303C196.039 11.5886 197.129 11.6634 197.957 11.7002C198.125 11.7075 198.483 11.6166 198.783 11.6323C200.48 11.7232 199.926 11.8695 200.022 11.8782C200.25 11.8998 200.657 11.7345 201.266 11.7369C202.835 11.7418 205.843 11.8352 207.525 11.8892C208.784 11.9301 208.76 12.129 208.843 12.1349C209.019 12.1463 209.514 11.9992 210.344 12.0017C211.941 12.006 211.755 12.1581 212.411 12.168C212.467 12.1694 212.375 12.0138 213.103 12.0166C214.51 12.0219 217.665 12.2566 219.17 12.2907C219.749 12.3039 219.889 12.1601 220.482 12.1739C221.422 12.1949 223.538 12.4156 223.705 12.4202C223.752 12.4216 223.862 12.2548 224.138 12.2628C224.441 12.2717 224.737 12.3679 224.963 12.374C226.25 12.4092 228.477 12.1802 227.843 12.7677C228.259 12.6305 228.677 12.4934 229.094 12.3564C231.789 12.469 234.411 12.4925 237.083 12.5502C237.684 12.5633 238.182 12.6948 238.689 12.7062C239.197 12.7173 241.44 12.6033 241.814 12.6128C242.057 12.6188 242.712 12.6373 243.471 12.66C244.799 12.6997 246.445 12.7532 246.745 12.7726C247.665 12.8313 248.549 13.114 248.926 13.0786C249.228 13.0501 248.955 12.8989 249.53 12.8797C250.525 12.8465 252.205 13.0902 252.509 13.0987C252.638 13.1024 252.4 12.9833 253.613 13.0207C254.266 13.0406 254.612 13.1751 254.849 13.1835C254.923 13.1857 254.82 12.9848 256.112 13.0603C257.005 13.113 257.38 13.2793 257.474 13.2834C257.615 13.2898 257.96 13.1411 258.525 13.1686C259.845 13.2336 262.253 13.514 263.506 13.5782C263.748 13.5908 263.674 13.3919 264.64 13.4487C265.332 13.4894 265.204 13.6401 265.463 13.6568C265.874 13.6829 266.493 13.5172 267.4 13.5604C268.541 13.6123 277.005 14.1661 277.442 14.2384C277.735 14.2854 278.077 14.3023 278.219 14.3931C278.091 14.4687 277.962 14.5442 277.833 14.6198C276.548 14.2798 277.057 14.6272 276.712 14.6332C276.212 14.6415 274.334 14.5201 273.876 14.5731C273.713 14.5923 274.076 14.7808 273.202 14.833C272.264 14.8888 271.862 14.5637 271.472 14.9687C270.166 14.4465 268.873 14.8896 270.402 15.0854C271.255 15.1925 279.653 15.7168 281.368 15.8204C282.758 15.9021 285.372 15.8927 287.082 16.002C288.088 16.0662 290.565 16.2007 290.45 16.4196C291.342 16.4885 290.407 16.2228 290.596 16.2004C290.749 16.1822 291.265 16.2137 291.869 16.2602C292.811 16.332 293.935 16.4499 294.242 16.4648C295.183 16.5084 296.235 16.5356 297.286 16.587C299.025 16.6705 300.789 16.828 302.221 17.2022C302.104 17.2467 301.988 17.2915 301.871 17.3366C301.34 17.3652 298.882 16.9413 298.571 17.2103C299.893 17.3334 301.195 17.481 302.482 17.6623C304.195 17.9032 305.876 18.2041 307.52 18.5802C308.039 18.699 308.555 18.8252 309.068 18.9594C309.068 18.7721 311.178 19.2929 312.416 19.758C312.922 19.941 313.286 20.0984 313.331 20.1484C313.22 20.2341 313.109 20.3202 312.999 20.4066C312.746 20.259 312.52 20.1398 312.319 20.0428C310.836 19.3442 310.709 19.7574 309.41 19.1058C308.77 18.9311 308.914 19.1727 308.589 19.1278C308.034 19.0532 307.669 18.9998 307.435 18.9528C306.295 18.7349 308.217 18.6331 306.15 18.3424C306.834 18.7695 304.803 18.461 303.876 18.3587C303.779 18.3465 303.125 18.226 302.419 18.1119C301.617 17.9803 300.74 17.8575 300.562 17.8398C299.666 17.7474 298.449 17.6667 297.205 17.5907C295.836 17.5056 294.442 17.4245 293.432 17.2888C292.815 17.2482 292.312 17.2516 291.823 17.268C291.086 17.293 290.42 17.347 289.552 17.3357C288.456 17.3214 288.777 17.1937 288.262 17.1686C287.181 17.1158 286.806 17.5322 286.142 16.8981C285.406 16.9404 284.67 16.9829 283.934 17.0255C283.938 16.9318 283.942 16.8382 283.947 16.7445C283.487 16.7241 283.026 16.7037 282.566 16.6834C282.427 16.7708 282.287 16.8582 282.148 16.9455C280.694 16.7536 281.313 16.5549 281.052 16.2777C280.738 16.2457 280.423 16.2137 280.109 16.1817C279.856 16.3747 279.603 16.5676 279.35 16.7606C277.943 16.6828 276.536 16.6057 275.129 16.5292C275.042 16.432 274.954 16.3348 274.867 16.2376C274.86 16.3308 274.854 16.424 274.847 16.5172C272.462 16.4352 270.078 16.355 267.694 16.2767C267.054 16.4002 270.868 16.6708 271.156 16.6923C272.762 16.8082 277.041 16.8402 277.032 17.1736C278.043 16.968 281.052 17.1606 281.975 17.5C280.554 17.4195 279.133 17.3397 277.713 17.2606C277.754 17.3741 277.795 17.4876 277.836 17.6011C276.084 17.075 275.824 17.0887 273.985 17.4366C273.99 17.287 273.995 17.1373 273.999 16.9876C272.708 17.4539 270.502 16.4781 270.411 17.1177C269.737 17.0376 269.063 16.9577 268.39 16.8779C266.927 16.897 269.173 17.4815 263.467 17.0579C263.074 17.0287 263.163 16.8683 262.57 16.856C262.399 16.8527 261.412 17.0516 259.542 16.9539C259.251 16.9386 259.234 16.7958 258.932 16.766C258.234 16.696 256.83 16.9232 257.48 16.49C254.714 16.2505 255.848 16.6701 254.983 16.7867C254.407 16.8641 254.532 16.5977 254.034 16.6405C253.418 16.6937 253.858 16.983 251.406 16.7664C251.683 16.758 251.959 16.7497 252.235 16.7414C252.099 16.662 251.963 16.5827 251.828 16.5034C250.419 16.6296 250.561 16.3746 249.885 16.7672C248.872 16.5441 247.991 16.4974 246.596 16.4814C244.311 16.456 244.929 16.8066 243.338 16.4892C243.042 16.4303 242.671 16.3485 242.19 16.2371C241.686 16.3047 241.183 16.3725 240.679 16.4404C239.863 16.2339 240.536 16.033 239.309 15.9465C240.255 16.4198 237.669 16.1719 237.218 16.5509C237.175 16.4557 237.133 16.3605 237.09 16.2653C236.815 16.2562 236.541 16.2472 236.267 16.2382C236.264 16.3133 236.26 16.3884 236.257 16.4636C235.893 16.3953 235.53 16.3271 235.167 16.2589C234.889 16.3245 234.612 16.3901 234.335 16.4558C233.889 16.2841 233.442 16.1125 232.995 15.9409C232.712 15.9212 232.429 15.9014 232.145 15.8817C232.232 15.9965 232.318 16.1112 232.404 16.226C232.041 16.177 231.677 16.1281 231.314 16.0793C231.733 16.2763 231.459 16.4831 230.325 16.4421C229.389 16.4087 230.455 16.0577 228.437 16.1554C228.296 16.1626 228.039 16.4279 226.136 16.4133C223.853 16.3963 224.967 16.2312 224.56 16.2123C224.481 16.2088 223.78 16.326 223.126 16.3269C222.756 16.3274 222.402 16.2061 222.353 16.205C222.125 16.2035 222.053 16.3587 221.737 16.3554C220.933 16.346 219.855 16.2387 219.068 16.2248C218.71 16.2183 218.37 16.3022 218.211 16.299C217.963 16.2933 217.653 16.1425 217.402 16.1363C216.477 16.1141 215.06 16.5487 214.648 15.8821C213.743 16.4613 211.899 15.6851 212.025 16.0929C209.651 15.8777 203.302 16.2264 203.503 15.5528C202.144 16.1034 202.274 15.6857 201.71 15.682C201.079 15.6778 201.403 15.7976 200.902 15.7816C199.733 15.7445 198.616 15.6727 197.451 15.6466C197.636 15.5573 197.821 15.468 198.005 15.3786C196.784 15.3238 197.2 15.5489 195.952 15.5657C195.478 15.572 195.143 15.5705 194.908 15.562C194.003 15.5292 194.558 15.3911 194.293 15.1923C194.38 15.4293 191.676 15.3417 191.401 15.3061C191.237 15.2843 191.962 14.9936 190.304 15.0617C190.393 15.1567 190.482 15.2518 190.571 15.3468C189.819 15.2053 187.767 15.3321 187.419 15.2951C187.26 15.2778 186.418 14.5102 185.627 15.0938C185.534 14.9988 185.441 14.9039 185.348 14.809C184.478 14.9074 183.608 15.0063 182.738 15.1055C182.602 14.9352 182.466 14.7648 182.33 14.5945C182.054 14.5904 181.779 14.5864 181.503 14.5824C181.684 14.7344 181.865 14.8865 182.045 15.0386C180.345 14.9457 178.264 15.1535 177.92 14.6451C177.554 14.7337 177.189 14.8225 176.823 14.9112C176.588 14.7406 176.353 14.57 176.118 14.3994C174.43 14.421 174.401 14.5329 173.245 14.6983C173.292 14.568 173.338 14.4377 173.385 14.3073C172.532 14.4813 170.977 14.6355 169.748 14.6466C169.165 14.6514 168.164 14.4617 168.026 14.4768C167.887 14.4926 166.512 15.1889 166.369 14.5744C164.351 14.8291 163.466 14.5456 162.648 14.5465C162.117 14.5474 161.874 14.6929 161.274 14.7043C160.415 14.7207 159.551 14.6445 159.055 14.652C158.772 14.6566 158.718 14.7999 158.522 14.8034C157.598 14.8206 158.14 14.6765 157.166 14.6814C157.076 14.6827 156.363 14.8544 155.561 14.8287C155.112 14.8144 153.952 14.6133 153.85 14.6135C153.395 14.6155 153.757 15.0102 152.206 14.5511C152.251 14.6261 152.296 14.7011 152.341 14.7761C150.419 14.9613 150.117 14.6276 149.728 14.6038C149.679 14.6018 149.211 14.7302 148.931 14.7121C148.458 14.6812 148.268 14.5044 148.163 14.4965C147.899 14.477 147.189 14.5107 146.509 14.4693C146.238 14.4528 145.971 14.4244 145.74 14.3758C145.91 14.8781 143.066 15.0591 142.435 14.4915C141.931 14.6047 141.428 14.7181 140.925 14.8316C140.697 14.7384 140.469 14.6453 140.241 14.5522C140.102 14.646 139.964 14.7398 139.826 14.8336C139.092 14.6301 138.357 14.4269 137.622 14.2241C137.576 14.4303 137.53 14.6366 137.484 14.8428C137.279 14.8202 137.073 14.7976 136.868 14.7751C136.707 14.612 136.545 14.449 136.384 14.286C136.127 14.3184 135.871 14.3509 135.614 14.3834C135.551 14.5022 135.488 14.621 135.425 14.7398C134.045 14.8838 134.748 13.749 132.123 14.7588C131.714 14.6681 131.304 14.5775 130.894 14.487C130.435 14.9449 129.567 14.676 128.868 14.7328C128.376 14.7729 128.405 14.9533 127.734 14.963C127.062 14.9728 127.085 14.7999 127.032 14.7993C126.485 14.7935 126.074 14.9497 125.672 14.9232C125.612 14.9193 125.458 14.7156 124.946 14.7077C124.434 14.6998 124.128 14.9211 123.366 14.8881C122.975 14.8714 122.86 14.6999 122.514 14.6884C120.861 14.6324 119.211 15.5283 117.959 14.507C117.682 14.642 115.664 15.1305 114.798 15.1173C113.45 15.0954 113.966 14.884 113.43 14.855C113.353 14.8507 112.944 14.9256 111.813 14.9318C111.611 14.9329 111.66 15.0471 111.631 15.0491C110.314 15.0682 107.754 15.0232 106.306 15.0352C106.177 15.0361 105.507 15.3693 104.351 14.9616C102.88 15.2681 100.257 14.8435 98.1306 15.0792C97.8113 15.1145 97.5032 15.1647 97.212 15.2345C96.9016 15.2521 96.5216 15.1467 96.3841 15.154C95.1997 15.2191 95.6431 15.555 92.9518 15.1154C93.1733 15.2871 92.5511 15.4636 91.6657 15.4741C90.3345 15.4902 91.2706 15.1334 90.2017 15.19C90.2043 15.2834 90.2069 15.3768 90.2096 15.4702C87.7421 15.2885 87.2641 15.7021 84.7964 15.7798C83.9087 15.8076 82.5909 15.6426 82.3791 15.6489C82.2972 15.6521 81.3337 15.9088 81.241 15.9137C80.7191 15.9376 80.4208 15.8437 79.9701 15.8582C78.4804 15.9058 76.7138 16.2616 77.0164 15.7186C76.6109 15.8453 76.2054 15.9721 75.8 16.0991C74.2323 15.587 73.1044 16.4133 72.7595 15.8741C72.4872 15.9984 72.2149 16.1227 71.9427 16.2471C65.3067 16.4432 58.6722 16.6776 52.0401 16.9529C51.8836 17.0699 50.7305 17.1463 49.8301 17.1843C49.2653 17.2081 48.8 17.2165 48.7423 17.2089C48.0552 17.1196 48.7538 16.695 47.3694 16.8568C47.2247 17.0343 47.08 17.2119 46.9354 17.3894C45.193 17.5383 46.0234 17.3247 45.3283 17.2472C45.0416 17.2838 45.1417 17.4101 44.7526 17.441C42.6422 17.6075 38.3113 17.8624 36.0023 18.0143C35.5368 18.0447 35.5996 17.9177 35.4549 17.9261C35.0573 17.9514 34.2821 18.1541 33.4843 18.2037C28.5507 18.5056 21.5571 18.8907 16.5856 19.1284C16.2479 19.1442 16.1954 19.001 15.9674 19.0104C15.6514 19.0242 14.9562 19.1948 14.6238 19.2072C14.3107 19.2193 14.1024 19.1232 13.7673 19.1354C12.2336 19.1897 10.1933 19.5359 8.53206 19.3378C8.3925 19.3207 6.63179 18.8685 6.58973 18.8333C6.34361 18.6225 7.8389 18.1393 5.3085 18.0061C7.52226 17.5332 6.78264 17.07 3.85325 17.055C5.30657 16.8699 6.76033 16.6871 8.2145 16.5064C8.21175 16.4449 8.209 16.3834 8.20625 16.3219C6.85358 16.1232 5.52679 16.1274 3.50422 16.2656C3.56254 16.2036 3.62087 16.1417 3.67921 16.0797C5.44056 15.6489 7.59008 15.4242 8.91985 14.9306C6.90246 14.8006 4.88427 14.675 2.86528 14.5536C2.96123 14.5006 3.0572 14.4476 3.15317 14.3946C4.10011 14.1989 6.18459 13.9613 6.97077 13.7898C9.97385 13.1344 4.28891 13.6926 5.20367 13.3667C8.41018 13.116 11.6175 12.8762 14.8255 12.6469C14.9245 12.4386 2.54603 12.8942 2.62591 12.3374C3.63107 12.2163 4.6364 12.0962 5.6419 11.9773C5.18091 11.8711 4.71981 11.7651 4.25858 11.6594C4.37879 11.6042 4.499 11.549 4.61923 11.4938C6.31235 11.2447 8.00613 10.9987 9.70055 10.7556C4.53166 11.2711 2.12173 11.3965 0.787355 10.378C0.924842 10.3377 1.06326 10.2973 1.20123 10.257C2.38184 10.8622 7.65734 10.2034 10.4628 9.84937C9.87303 9.68739 7.40625 10.0407 6.87268 9.95946C6.72138 9.93585 7.22777 9.75195 6.87799 9.70629C5.96391 9.58626 2.11243 9.65572 2.64991 9.37815C2.99553 9.19554 9.14742 8.49492 10.3527 8.42201C7.51074 8.37104 4.5979 8.52626 1.74157 8.43535C3.48959 7.83248 5.02724 7.14445 8.28898 6.86267C9.26534 6.54228 2.32915 6.76497 2.15785 6.65268C3.34212 6.41386 4.52686 6.17653 5.71206 5.94067C4.70309 6.0592 3.69427 6.17879 2.68562 6.29946C2.67881 6.25299 2.672 6.20651 2.66519 6.16004C5.26819 5.72759 7.63606 5.13758 10.6405 4.93369C10.5247 4.69362 8.72998 4.85699 7.85817 4.92373ZM294.555 17.9224C294.598 18.1305 293.565 18.0353 292.96 18.0013C293.049 18.0433 293.137 18.0854 293.225 18.1276C292.822 18.0939 292.317 18.0524 291.788 18.0242C290.633 17.9623 289.459 17.958 289.385 18.2284C288.443 18.2352 288.874 17.9074 288.573 17.8543C288.455 17.8331 287.219 17.9793 286.249 17.6899C286.016 17.6804 285.783 17.6709 285.549 17.6615C285.498 17.7902 285.447 17.9189 285.396 18.0476C285.078 17.8744 284.76 17.7012 284.442 17.528C286.894 17.6169 289.347 17.7076 291.798 17.8C292.738 17.8354 293.651 17.8753 294.55 17.9221C294.552 17.9222 294.553 17.9223 294.555 17.9224ZM260.78 16.6202C259.546 16.4977 257.656 16.3082 258.025 16.6811C258.807 16.6923 259.589 16.7038 260.371 16.7156C260.507 16.6838 260.644 16.652 260.78 16.6202ZM137.765 13.8886C136.731 13.5399 135.781 13.8491 134.184 13.7942C134.187 13.8688 134.189 13.9433 134.192 14.0178C134.844 13.835 136.571 13.9455 137.765 13.8886ZM321.678 23.8424C321.682 23.8455 321.687 23.8487 321.691 23.8517C321.391 23.7037 321.76 23.9696 321.862 24.0761C321.621 24.0517 321.265 23.8997 321.549 24.0976C321.155 23.9394 320.973 23.6834 320.365 23.3816C320.313 23.356 320.286 23.4459 320.268 23.4368C320.059 23.3304 319.925 23.1333 319.744 23.0389C319.384 22.8534 319.062 22.8098 318.418 22.4841C317.924 22.2363 317.997 22.0783 317.818 21.9968C317.755 21.9687 317.429 21.9049 317.01 21.8035C316.409 21.6559 315.621 21.439 315.1 21.0941C314.327 20.5925 315.535 20.9214 317.117 21.5702C319.04 22.3434 321.329 23.6096 321.678 23.8424ZM331.084 17.5744C319.624 34.7701 327.95 24.4072 325.696 27.1206C325.688 27.1142 325.665 27.0965 325.646 27.0812C325.701 27.0812 325.733 27.0688 325.752 27.0524C325.77 27.0377 325.783 27.0229 325.79 27.0076C325.854 26.9575 325.553 26.7094 325.119 26.3967C324.973 26.2907 324.818 26.1816 324.67 26.0762C324.731 26.0125 324.938 26.1056 325.209 26.2741C325.456 26.4251 325.82 26.6926 325.959 26.8027C318.383 30.6414 337.698 12.3952 331.395 18.1275C331.436 18.0212 332.33 18.1825 331.084 17.5744ZM303.636 17.2682C304.429 17.368 304.243 17.6685 304.195 17.7573C303.945 17.7156 303.698 17.6758 303.447 17.6369C303.51 17.5139 303.573 17.391 303.636 17.2682ZM309.475 18.3722C309.27 18.4761 308.389 18.3419 307.604 18.2137C307.272 18.1587 306.957 18.1029 306.721 18.0584C306.686 18.0515 306.929 17.9781 306.366 17.873C306.196 17.8342 304.449 17.9587 304.903 17.5374C305.829 17.6676 306.745 17.8179 307.654 17.9913C308.264 18.1076 308.87 18.2341 309.473 18.3716C309.474 18.3718 309.474 18.372 309.475 18.3722ZM311.086 18.9669C310.76 18.94 310.436 18.9168 310.112 18.8966C309.982 18.7525 309.851 18.609 309.718 18.466C310.076 18.5365 310.434 18.6112 310.79 18.6895C310.889 18.7816 310.988 18.8741 311.086 18.9669ZM48.1136 14.5732C48.201 14.6791 48.2884 14.785 48.3758 14.891C48.5964 14.9261 49.3849 14.6703 49.6909 14.4864C49.8282 14.4039 49.8683 14.3357 49.7161 14.3147C49.7048 14.3166 49.6936 14.3184 49.6824 14.3202C49.1594 14.4043 48.6365 14.4886 48.1136 14.5732ZM41.6103 14.6966C41.2875 14.6592 40.9647 14.6218 40.6419 14.5845C40.285 14.7925 39.9282 15.0005 39.5716 15.2087C41.1751 15.2419 42.8816 15.2923 42.5769 14.7566C42.9423 14.7361 43.3078 14.7157 43.6733 14.6955C43.3781 14.9405 43.4238 15.013 44.3881 15.105C44.5798 14.7764 45.5777 14.8836 46.7061 14.7534C45.8816 14.7789 45.0571 14.8051 44.2326 14.8318C44.2295 14.7759 44.2265 14.72 44.2234 14.6641C46.0603 14.584 43.759 14.3535 42.5756 14.6432C42.4772 14.574 42.3788 14.5049 42.2804 14.4358C42.057 14.5227 41.8336 14.6096 41.6103 14.6966ZM174.517 12.1875C174.29 12.1285 174.062 12.0696 173.835 12.0106C172.942 12.734 174.75 12.0585 176.024 12.655C175.607 12.2087 177.56 12.2517 177.672 12.2238C177.449 12.0724 177.226 11.9211 177.003 11.7698C176.174 11.9087 175.346 12.0479 174.517 12.1875ZM168.055 11.6138C168.843 11.9864 164.957 11.974 163.654 11.8848C163.337 11.8626 162.773 11.6578 162.544 11.6815C162.405 11.7548 162.266 11.828 162.127 11.9013C161.964 11.6434 159.416 11.9157 158.413 12.049C158.319 11.9551 158.225 11.8612 158.131 11.7673C157.765 11.8025 157.4 11.8378 157.034 11.8732C157.08 11.7804 157.127 11.6875 157.173 11.5946C156.896 11.7053 156.619 11.816 156.342 11.9268C155.255 12.0468 155.927 11.542 155.11 11.6972C154.203 11.8696 155.688 12.1774 155.659 12.3741C156.395 12.3262 158.069 12.2205 158.816 12.2191C159.244 12.2185 158.756 12.5678 160.607 12.1737C161.011 12.2706 161.416 12.3676 161.821 12.4647C162.565 12.3196 163.31 12.1748 164.055 12.0304C164.193 12.162 164.33 12.2936 164.468 12.4252C164.547 12.446 166.27 12.1637 166.179 12.065C166.873 12.3203 168.303 12.3773 169.81 12.405C169.956 12.3355 170.101 12.266 170.247 12.1965C168.788 12.3352 169.784 12.1168 169.351 11.9766C169.101 11.8958 168.335 11.7347 168.055 11.6138ZM58.2315 13.7867C55.804 14.2191 57.304 13.8848 54.6639 14.0115C54.8564 14.171 55.0488 14.3305 55.2412 14.49C56.524 14.1194 58.6692 14.2251 58.2341 13.7865C58.2332 13.7866 58.2324 13.7866 58.2315 13.7867ZM32.4435 15.7501C33.8324 15.5614 33.1159 15.3428 34.8799 15.1504C34.8807 15.1503 34.8815 15.1503 34.8824 15.1502C33.9664 15.1872 33.0504 15.225 32.1345 15.2636C32.2375 15.4258 32.3405 15.588 32.4435 15.7501ZM114.124 12.4486C115.467 12.5016 115.201 12.3743 116.422 12.6189C118.23 12.2758 116.696 12.342 116.692 12.0535C116.279 12.1439 115.866 12.2345 115.453 12.3252C114.444 12.0701 115.395 11.9202 115.395 11.8943C115.394 11.8943 115.393 11.8944 115.392 11.8944C115.391 11.8078 115.423 11.789 115.037 11.7424C114.733 11.9777 114.428 12.2131 114.124 12.4486ZM119.861 12.0126C119.403 12.21 119.2 12.4584 120.41 12.5664C120.411 12.5664 120.412 12.5664 120.413 12.5664C120.504 12.1369 121.668 12.4687 122.196 12.4341C122.334 12.386 122.473 12.3379 122.611 12.2898C121.694 12.1968 120.778 12.1044 119.861 12.0126ZM140.094 11.4658C140.101 11.9389 139.086 11.9868 140.516 12.4187C140.793 12.4095 141.07 12.4003 141.348 12.3912C141.529 12.287 141.711 12.1828 141.893 12.0786C145.413 12.9299 146.46 11.4688 140.515 12.0251C140.514 12.0255 140.513 12.0258 140.512 12.0261C140.373 11.8393 140.234 11.6525 140.094 11.4658ZM133.896 11.5322C133.853 11.7808 133.809 12.0294 133.766 12.2781C132.986 11.6835 131.985 12.2611 130.459 11.8495C130.322 11.926 130.184 12.0026 130.047 12.0791C129.477 11.9149 123.882 11.9188 125.098 12.2901C125.629 12.4516 126.779 12.2143 126.878 12.2186C127.214 12.2343 127.654 12.4438 128.221 12.4266C128.549 12.4164 129.238 12.16 129.907 12.1554C131.404 12.1448 134.137 12.8007 136.101 12.1546C136.243 12.2288 136.385 12.303 136.527 12.3772C137.987 12.3253 137.499 12.09 138.858 12.368C139.792 11.1832 133.398 12.4496 134.726 11.4876C134.725 11.4876 134.724 11.4876 134.723 11.4876C134.447 11.5024 134.172 11.5173 133.896 11.5322ZM93.7127 12.5117C93.6191 12.302 91.9355 12.6735 92.3196 12.1556C91.772 12.3471 91.2243 12.5387 90.677 12.7307C90.6825 12.7777 90.688 12.8248 90.6935 12.8719C91.2413 12.8196 91.7893 12.7676 92.3371 12.7159C92.3412 12.7907 92.3453 12.8655 92.3494 12.9402C93.1599 12.6466 96.5767 12.6786 96.4792 12.947C96.6588 12.8306 96.8385 12.7142 97.0182 12.5978C97.3798 12.6563 97.7296 12.6846 98.0743 12.696C99.2931 12.7361 100.45 12.5639 101.841 12.7658C101.977 12.6701 102.113 12.5744 102.249 12.4787C102.34 12.5516 102.431 12.6245 102.523 12.6975C103.171 12.6931 103.819 12.6891 104.467 12.6855C106.573 12.3415 102.461 12.0339 101.964 12.0902C101.898 12.0978 101.913 12.2913 101.5 12.3307C101.079 12.3706 99.5395 12.3537 98.0665 12.3642C96.9789 12.3719 95.9277 12.3943 95.3897 12.4621C95.3756 12.3338 95.3614 12.2055 95.3472 12.0773C94.8023 12.2218 94.2574 12.3666 93.7127 12.5117ZM147.948 11.9632C148.04 12.0942 148.133 12.2251 148.226 12.356C149.826 12.2267 150.834 12.3433 150.424 11.9097C150.423 11.9097 150.423 11.9096 150.422 11.9096C149.597 11.9271 148.772 11.9449 147.948 11.9632ZM266.924 14.7842C266.893 14.5226 266.131 14.3942 265.135 14.5407C265.18 14.6181 265.224 14.6955 265.269 14.7728C265.793 14.5723 266.421 14.9839 268.013 14.9977C268.018 14.8669 268.023 14.7362 268.029 14.6054C267.66 14.665 267.292 14.7246 266.924 14.7842ZM146.566 11.9061C146.548 11.9004 146.529 11.8955 146.509 11.8914C145.98 11.7857 144.743 12.2212 145.61 12.2431C145.998 12.2528 146.335 12.1712 146.509 12.0831C146.644 12.0147 146.681 11.9423 146.566 11.9061ZM26.9396 15.8514C27.3019 15.8548 27.6643 15.8583 28.0266 15.862C28.2072 15.7386 28.3878 15.6152 28.5684 15.4919C28.5676 15.4919 28.5667 15.492 28.5659 15.492C28.0237 15.6115 27.4816 15.7313 26.9396 15.8514ZM109.54 12.5455C110.766 12.5076 111.991 12.4709 113.217 12.4353C113.229 12.3625 113.24 12.2897 113.251 12.217C112.026 12.5012 111.528 12.2242 111.241 12.2115C111.242 12.2115 111.244 12.2115 111.245 12.2115C110.324 12.1694 109.447 12.1424 108.575 12.0714C108.897 12.2294 109.218 12.3874 109.54 12.5455ZM105.328 12.1662C105.545 12.6751 105.815 12.7287 107.692 12.3328C107.616 12.271 107.541 12.2093 107.465 12.1475C106.489 12.2035 105.922 12.3332 106.088 12.0624C105.835 12.0969 105.581 12.1315 105.328 12.1662ZM124.537 12.0438C124.309 11.8826 122.516 12.0658 122.614 12.1472C122.653 12.1791 124.981 12.3592 124.537 12.0438ZM280.557 15.2463C280.145 15.1908 279.733 15.1354 279.321 15.0801C279.874 15.0484 280.427 15.0167 280.979 14.9852C280.839 15.0723 280.698 15.1593 280.557 15.2463ZM285.132 14.7181C285.424 14.7966 284.444 15.2144 286.202 15.4121C284.919 15.3643 283.634 15.317 282.351 15.2703C282.956 15.2223 283.561 15.1745 284.166 15.1267C284.067 14.9897 283.968 14.8527 283.869 14.7157C284.29 14.7165 284.711 14.7173 285.132 14.7181ZM286.495 15.1173C285.819 14.7359 289.461 14.8737 289.798 14.9323C289.873 14.9459 290.22 15.2277 290.349 15.2908C289.8 15.266 289.25 15.2414 288.7 15.2168C288.881 15.3087 289.061 15.4006 289.241 15.4925C288.596 15.4919 287.952 15.4914 287.307 15.4911C287.586 15.4196 287.865 15.3481 288.144 15.2766C287.594 15.2234 287.044 15.1703 286.495 15.1173ZM271.892 14.5689C272.351 14.5969 272.811 14.625 273.27 14.6531C273.184 14.5185 273.098 14.3839 273.011 14.2493C272.736 14.2377 272.461 14.2262 272.185 14.2146C272.088 14.3327 271.99 14.4508 271.892 14.5689ZM281.273 14.8016C280.575 15.4016 278.811 13.9461 280.921 14.5487C281.134 14.6099 281.339 14.7436 281.273 14.8016ZM291.158 15.0697C291.528 14.9695 291.78 14.9596 291.927 14.9946C292.157 15.0492 292.134 15.2126 291.913 15.313C291.718 15.4013 291.369 15.441 290.904 15.3161C290.836 15.2972 291.049 15.0987 291.158 15.0697ZM301.556 15.8488C301.66 15.866 301.797 16.1705 302.706 16.0727C302.766 16.0664 302.83 16.0583 302.897 16.0484C303.064 16.11 303.228 16.1721 303.394 16.2349C303.293 16.2561 303.029 16.2492 302.685 16.2255C301.575 16.1415 299.633 15.9283 300.026 15.7216C300.558 15.7736 301.011 15.7705 301.556 15.8488ZM298.284 14.282C298.016 14.2631 297.747 14.245 297.476 14.2278C297.211 14.2109 296.944 14.1949 296.676 14.1795C296.846 14.2953 297.015 14.4113 297.182 14.5276C296.918 14.535 296.653 14.5431 296.386 14.5519C295.952 14.3428 295.507 14.1351 295.068 13.9299C295.878 13.961 296.688 13.9985 297.491 14.0437C297.855 14.0642 298.214 14.0861 298.574 14.1098C298.476 14.167 298.38 14.2245 298.284 14.282ZM283.822 13.2542C284.872 13.43 286.173 13.3504 287.887 13.4498C287.888 13.4501 287.889 13.4505 287.889 13.4509C287.975 13.4562 288.12 13.6042 288.395 13.6223C288.553 13.6324 290.708 13.6607 291.984 13.747C292.607 13.7889 293.01 13.8462 292.891 13.9184C292.548 13.9427 292.245 13.9496 291.975 13.9484C290.85 13.9437 290.352 13.7911 289.986 14.2048C289.903 14.0886 289.821 13.9725 289.739 13.8563C288.024 13.5837 287.515 13.9501 286.541 14.049C286.548 13.9646 286.556 13.8802 286.564 13.7959C285.918 13.7584 285.272 13.7211 284.626 13.6838C284.714 13.7435 284.803 13.8032 284.891 13.8628C284.663 13.8526 284.434 13.8425 284.205 13.8323C283.66 13.557 282.956 13.4674 283.822 13.2542ZM300.679 14.6617C300.904 14.4292 301.795 14.4437 302.916 14.5846C304.6 14.7877 306.773 15.3197 308.051 15.5344C306.865 15.6572 305.196 15.0691 303.959 14.8773C303.426 14.7927 303.095 14.7568 302.893 14.7468C302.192 14.7144 303.098 15.0024 302.771 15.0384C302.568 15.0584 301.26 14.4739 300.679 14.6617ZM279.959 13.1969C281.203 13.303 281.907 13.186 282.975 13.4689C282.883 13.5118 282.79 13.5546 282.698 13.5975C282.331 13.538 279.327 13.2713 279.959 13.1969ZM311.066 16.4809C308.916 15.6491 309.862 16.5128 308.812 15.7971C309.583 15.9545 310.35 16.1282 311.112 16.3196C311.097 16.3734 311.081 16.4272 311.066 16.4809ZM143.81 9.49259C142.795 9.47902 141.661 9.36415 141.055 9.60783C141.745 9.64361 142.434 9.67971 143.124 9.71614C143.353 9.64159 143.581 9.56707 143.81 9.49259ZM172.78 7.27394C172.549 7.21327 171.63 7.37469 171.533 7.37371C171.353 7.37181 171.403 7.28794 171.401 7.26587C170.225 7.26893 171.307 7.5419 170.437 7.58988C170.288 7.59757 168.246 7.44817 167.415 7.45167C166.137 7.45653 164.86 7.42949 164.383 7.43036C163.576 7.43146 162.078 7.61699 160.753 7.61902C160.206 7.61952 160.017 7.46119 159.467 7.462C156.164 7.4659 149.864 7.63835 146.509 7.58261C146.282 7.57869 146.069 7.57366 145.871 7.56739C145.098 7.54276 144.361 7.33756 143.952 7.3548C143.63 7.43034 143.308 7.50596 142.985 7.58164C141.993 6.90638 141.662 7.50906 140.594 7.57486C139.915 7.61654 139.597 7.41704 139.506 7.41781C138.902 7.42365 138.604 7.52018 138.129 7.53774C137.596 7.55716 136.83 7.46996 136.64 7.48717C136.523 7.49882 136.897 7.76303 134.83 7.76837C132.723 7.7742 130.643 7.75996 128.5 7.76511C129.222 8.56399 129.832 8.00841 130.707 7.97272C130.941 7.96315 130.793 8.09198 130.998 8.0849C131.575 8.06552 132.678 7.93281 133.156 7.96044C133.672 7.9902 133.497 8.28734 134.151 8.17439C134.184 8.16857 134.078 8.04684 134.232 8.0255C135.777 7.81492 136.284 8.025 138.239 8.02366C139.244 8.02197 144.213 7.9378 146.509 7.94462C147.169 7.94606 147.608 7.95414 147.668 7.97197C148.132 8.11352 147.542 8.20789 146.509 8.27047C144.407 8.39663 140.47 8.39867 139.821 8.37875C139.482 8.36788 139.837 8.23176 139.528 8.20679C139.397 8.19682 138.22 8.45798 137.056 8.48437C135.648 8.51571 132.819 8.35576 131.477 8.37161C120.256 8.50061 109.184 8.51757 97.9816 8.77072C97.6734 8.7777 97.3651 8.78485 97.0567 8.79219C96.8112 8.79814 96.4915 8.96009 95.6916 8.97994C80.7606 9.34637 65.2842 9.79554 50.1812 10.6426C49.9522 10.6554 49.7234 10.6689 49.4947 10.6829C46.4353 10.8705 43.3994 11.154 40.3022 11.2246C39.8964 11.3607 39.4908 11.4969 39.0852 11.6333C40.1342 11.4822 42.0805 11.6271 42.2565 11.6212C42.3199 11.6188 42.7125 11.4695 43.3574 11.4405C44.2642 11.3993 44.6677 11.4877 44.7421 11.4836C44.9726 11.4714 44.8152 11.3627 45.0354 11.3513C46.6777 11.2671 47.9462 11.1668 49.4533 11.0878C49.4742 11.0867 49.4949 11.0856 49.5155 11.0846C51.1773 11.0032 52.0447 11.1702 53.2578 10.8734C53.4028 10.9598 53.5477 11.0462 53.6927 11.1326C54.5993 10.6812 60.119 10.4661 62.3556 10.3927C63.0613 10.3688 62.9446 10.5382 63.1816 10.5279C63.3329 10.5213 63.264 10.3085 65.1113 10.2725C66.0413 10.2549 66.2914 10.4013 66.757 10.377C67.01 10.3636 66.9625 10.2102 67.3262 10.1954C69.4296 10.1098 71.1492 10.0931 73.2099 10.0447C73.7892 10.0309 73.8005 10.1602 73.9299 10.1537C74.4067 10.1303 75.2285 9.88053 76.4414 9.83801C78.4377 9.76693 82.4175 9.6359 84.0534 9.69265C84.2938 9.70094 84.4973 9.85012 84.6737 9.84242C84.9408 9.83021 85.0407 9.66494 85.0876 9.66263C85.981 9.63257 85.448 9.79963 86.0453 9.74492C86.3673 9.7155 86.6982 9.5205 87.4475 9.47758C88.4369 9.42108 88.2483 9.64628 88.6614 9.61238C88.705 9.60771 88.7136 9.45472 89.1201 9.4381C90.6615 9.37599 92.8974 9.28054 94.3564 9.24411C94.7756 9.23341 95.09 9.32822 95.6745 9.31541C96.0375 9.30743 96.9238 9.28001 97.9929 9.24841C100.394 9.17651 103.716 9.08838 104.097 9.12203C104.155 9.12706 103.564 9.36427 104.513 9.33824C104.787 9.23895 105.061 9.13971 105.334 9.04054C105.798 9.18147 106.262 9.32256 106.726 9.46382C106.699 8.94525 109.41 8.81543 109.392 9.34651C109.689 9.36275 109.986 9.37906 110.283 9.39543C110.895 9.01861 111.309 9.14668 112.499 8.9122C112.687 9.02149 112.875 9.13081 113.063 9.24015C113.109 9.16455 113.155 9.08896 113.2 9.01336C113.844 9.40891 114.883 8.98589 115.01 8.98181C115.498 8.96557 115.866 9.06343 116.095 9.05684C116.95 9.03369 118.8 8.86672 119.8 8.92042C119.846 8.92322 119.802 9.0972 120.087 9.11511C120.6 9.14753 120.647 8.89298 121.334 9.18316C121.471 9.10668 121.608 9.03022 121.745 8.95377C121.892 8.99082 122.039 9.02788 122.186 9.06497C123.05 9.03536 123.915 9.0063 124.779 8.97778C123.996 9.27941 124.902 9.43401 125.755 9.1948C126.044 9.11369 125.785 8.93739 125.882 8.90941C126.014 8.87053 129.895 8.92851 130.152 9.04318C130.335 8.9855 130.519 8.92784 130.702 8.87021C130.795 8.98216 130.889 9.09413 130.983 9.20609C131.084 9.16599 131.185 9.1259 131.286 9.08581C132.297 9.27666 134.915 8.80668 135.39 8.84068C135.644 8.85864 135.418 9.33958 136.635 9.285C136.677 9.15299 136.718 9.02097 136.76 8.88896C137.038 8.86886 137.317 8.84882 137.596 8.82883C138.119 8.83846 138.88 9.06431 138.905 9.22049C139.068 9.12619 139.231 9.03191 139.394 8.93765C139.834 9.24138 142.173 9.12722 143.114 8.93297C143.389 9.02469 143.665 9.11645 143.94 9.20827C144.31 9.09589 144.68 8.9836 145.049 8.87141C145.906 8.83725 145.001 9.02385 145.184 9.03929C145.379 9.05543 145.98 8.98266 146.509 8.95789C147.025 8.93369 147.473 8.95513 147.409 9.14856C147.677 9.14966 147.946 9.15081 148.214 9.152C148.352 9.04013 148.49 8.92828 148.629 8.81644C149.089 9.20304 149.887 9.06732 151.522 9.21175C151.659 9.12319 151.797 9.03465 151.934 8.94612C152.44 9.07365 152.945 9.20134 153.45 9.3292C153.555 9.18239 153.659 9.03559 153.763 8.88879C153.983 8.86834 154.203 8.84793 154.423 8.82754C154.869 9.15865 155.673 8.80562 156.081 8.94331C156.676 9.14432 156.214 9.37849 155.108 9.41987C155.19 9.65963 158.485 9.56408 159.245 9.55155C159.195 9.5044 159.145 9.45725 159.095 9.4101C158.318 9.44293 157.541 9.47615 156.764 9.50976C156.115 8.90315 158.225 9.07453 159.194 9.00244C159.282 8.99551 159.786 8.76947 160.762 8.7968C161.14 8.80745 162.612 9.15155 162.894 9.17228C165.165 9.3417 163.498 8.85128 165.718 9.28769C165.257 8.96324 166.533 9.23991 167.863 9.1901C168.09 9.18135 170.012 8.93985 170.142 8.93459C170.951 8.9011 170.068 9.1755 171.238 9.11381C171.38 9.04075 171.521 8.9677 171.663 8.89466C171.935 8.89756 172.207 8.9005 172.48 8.90349C174.125 9.58606 174.514 9.1018 175.103 9.04595C175.34 9.02345 175.033 9.19304 175.648 9.16389C175.88 9.15311 176.139 9.01205 176.763 9.00978C178.714 9.00328 179.367 9.62955 181.17 9.0127C181.444 9.10974 181.718 9.20682 181.992 9.30395C182.179 9.19504 182.366 9.08614 182.554 8.97727C183.97 9.32257 183.462 8.98313 183.975 8.99491C185.33 9.02547 188.102 9.13512 188.34 9.40668C189.521 8.81298 190.907 9.53022 191.369 9.51472C191.644 9.44516 191.919 9.37565 192.195 9.30618C192.515 9.38699 192.836 9.46785 193.157 9.54876C193.011 8.9432 194.669 9.56744 194.828 9.57975C194.853 9.58145 194.922 9.58057 195.024 9.57785C195.678 9.56019 197.711 9.46795 198.537 9.48817C199.491 9.51116 201.149 9.71012 201.296 9.71371C201.464 9.7173 203.091 9.58898 204.36 9.61968C205.471 9.64438 212.044 10.0373 211.636 9.75994C211.208 9.67471 210.597 9.59495 210.068 9.54696C208.426 9.39477 198.776 9.03937 196.309 8.95253C195.887 8.93684 195.463 8.92194 195.037 8.90774C190.482 8.75562 185.777 8.68419 181.232 8.56532C180.94 8.55774 180.897 8.40094 180.646 8.39387C180.266 8.38391 179.297 8.52685 178.921 8.51846C177.52 8.48588 175.814 8.43915 175.063 8.42631C173.385 8.39836 172.235 8.29176 170.966 8.2633C170.569 8.25451 168.557 8.42797 167.181 8.33436C166.931 8.28821 166.682 8.2421 166.433 8.19602C167.143 8.15059 169.006 8.03496 169.87 8.02854C171.156 8.01941 171.825 8.15346 172.3 8.15639C172.698 8.15882 174.731 8.03763 175.656 8.04577C175.943 8.04816 176 8.21268 176.245 8.21516C177.579 8.22771 179.335 8.2468 180.493 8.10262C180.021 8.14805 182.967 8.2911 183.122 8.29335C183.386 8.29731 183.676 8.1484 184.217 8.15679C185.258 8.17315 185.121 8.4915 186.426 8.19196C186.746 8.29063 187.066 8.38935 187.387 8.48813C187.414 8.06071 191.47 8.71199 192.636 8.21557C192.667 8.15621 187.385 7.89631 186.949 7.88217C184.333 7.78702 180.458 7.83435 177.919 7.72677C177.155 7.69384 174.755 7.40476 174.573 7.40775C174.281 7.41163 174.543 7.56325 174.417 7.56704C171.829 7.6478 173.123 7.36427 172.78 7.27394ZM286.584 13.0959C285.8 13.0431 285.016 12.9905 284.232 12.9381C284.293 12.847 284.354 12.7558 284.415 12.6647C284.773 12.7171 285.131 12.7696 285.489 12.822C285.768 12.7785 286.047 12.7349 286.326 12.6914C286.412 12.8262 286.498 12.961 286.584 13.0959ZM288.536 12.7909C289.218 12.7746 289.243 12.9736 289.399 12.9904C289.867 13.041 290.276 12.9796 290.731 13.0031C290.185 13.4483 289.079 13.1825 288.536 12.7909ZM274.486 12.0059C274.639 12.0348 275.641 12.5833 276.827 12.1633C277.692 12.3499 278.557 12.5368 279.422 12.7239C277.952 12.4314 275.892 12.5808 275.167 12.5411C274.892 12.5259 274.846 12.3687 274.626 12.3568C273.358 12.2906 272.11 12.5904 272.002 12.0714C273.195 12.2707 274.292 11.97 274.486 12.0059ZM282.134 12.5189C282.332 12.6351 282.53 12.7514 282.728 12.8676C281.995 12.8353 281.262 12.8031 280.528 12.7711C280.732 12.6711 280.935 12.5712 281.138 12.4713C281.47 12.4871 281.802 12.503 282.134 12.5189ZM225.723 10.0605C226.176 10.0752 226.628 10.09 227.08 10.1049C227.058 10.0259 226.54 10.0107 226.351 9.95217C226.352 9.9522 226.353 9.95222 226.354 9.95225C226.143 9.8862 226.237 9.78814 225.852 9.73216C225.809 9.84161 225.766 9.95106 225.723 10.0605ZM38.5182 11.3299C37.7604 11.3638 30.7674 11.7931 31.3816 12.044C31.6906 12.1668 34.0736 11.8938 34.7789 11.8536C35.7296 11.7979 38.3144 11.9538 38.5182 11.3299ZM26.1316 12.0491C26.0295 12.3394 30.4005 12.0991 30.8246 12.0245C30.7313 11.9897 30.5858 11.9085 30.4636 11.8958C29.868 11.8348 27.0785 12.0631 26.1316 12.0491ZM200.399 8.59066C200.749 8.74205 201.098 8.8935 201.448 9.04502C201.36 8.85587 201.271 8.66673 201.182 8.4776C200.921 8.51525 200.66 8.55293 200.399 8.59066ZM166.149 8.28053C160.267 8.22189 154.386 8.18445 148.504 8.16986C149.021 8.09254 149.539 8.01541 150.056 7.93844C155.125 7.97385 160.529 8.08004 165.425 8.00012C165.666 8.09356 165.907 8.18702 166.149 8.28053ZM272.866 11.094C271.361 11.028 270.097 11.1131 268.468 10.8274C270.038 10.6798 270.797 11.0395 272.328 10.7909C272.328 10.791 272.329 10.791 272.33 10.791C272.509 10.892 272.688 10.993 272.866 11.094ZM239.242 9.76123C239.704 9.64583 240.167 9.53051 240.629 9.41529C240.078 9.39658 239.527 9.37799 238.976 9.35954C239.065 9.49343 239.153 9.62733 239.242 9.76123ZM114.836 7.69913C113.264 8.00691 109.223 7.55773 107.948 7.92608C107.865 7.95018 108.629 8.08105 107.403 8.38448C108.332 8.30965 108.988 8.2394 109.053 8.0174C109.331 8.08733 109.608 8.15732 109.886 8.22737C110.343 8.16276 110.8 8.09832 111.257 8.03403C111.211 8.25467 111.247 8.24225 111.949 8.08022C112.271 8.13063 112.592 8.18111 112.914 8.23167C113.049 8.13643 113.183 8.0412 113.318 7.94599C113.598 8.07182 113.878 8.19772 114.157 8.32367C115.238 8.16607 114.575 7.92378 114.836 7.69913ZM120.356 7.67817C120.099 7.62937 112.792 7.89085 116.12 8.28202C116.983 8.25571 117.846 8.22996 118.709 8.20476C117.984 7.488 120.345 8.10702 120.538 8.12031C121.464 8.17997 122.64 7.99411 123.311 7.99592C123.888 7.99764 124.232 8.12435 124.637 8.11689C126.019 8.09131 128.202 8.06773 128.5 7.76511C127.426 7.76771 126.334 7.77428 125.217 7.79276C124.036 7.81244 122.993 7.53919 120.778 7.95433C120.229 7.91914 120.422 7.68977 120.356 7.67817ZM242.008 9.49265C241.971 9.65862 242.811 9.7399 243.572 9.75961C244.184 9.77545 244.745 9.7513 244.755 9.69842C244.763 9.62874 243.855 9.59864 243.726 9.56768C243.725 9.56765 243.724 9.56762 243.723 9.56759C243.672 9.55485 243.92 9.45914 243.584 9.4092C243.565 9.40643 243.545 9.4038 243.522 9.40133C243.017 9.43167 242.512 9.4621 242.008 9.49265ZM49.3633 10.0569C48.9779 9.90071 40.3785 10.4311 40.1305 10.5331C40.063 10.5595 40.1632 10.6282 40.1385 10.6725C42.1311 10.3182 44.9997 10.4429 46.9052 10.3608C47.4363 10.3376 47.2714 10.2263 47.3013 10.2224C47.3026 10.2223 47.3038 10.2223 47.3051 10.2222C47.6065 10.2058 48.9818 10.4272 49.3633 10.0569ZM105.192 8.11645C105.559 8.15638 105.926 8.19642 106.293 8.23656C106.384 8.14137 106.475 8.04618 106.566 7.951C106.566 7.95102 106.565 7.95104 106.564 7.95105C106.106 8.00602 105.649 8.06115 105.192 8.11645ZM92.4992 8.10266C92.5901 8.16603 92.6809 8.2294 92.7717 8.29278C93.6937 8.27756 94.6157 8.26303 95.5378 8.24918C95.4458 8.28859 95.3538 8.32801 95.2619 8.36743C96.6551 8.43168 97.2272 8.18823 97.9682 8.20271C97.9698 8.20274 97.9714 8.20278 97.9729 8.20281C97.9721 8.20283 97.9713 8.20285 97.9704 8.20287C98.0504 8.20485 98.1503 8.33952 98.4476 8.33721C99.1293 8.33165 101.084 8.3389 101.317 8.19619C101.706 7.95531 99.3401 8.04523 97.9657 8.09793C97.599 8.11185 97.3028 8.12292 97.1484 8.1238C96.817 8.12555 96.4156 8.01542 96.214 8.01756C95.9932 8.02036 95.6965 8.18959 95.1587 8.1981C95.0014 8.20016 93.2522 8.05428 92.4992 8.10266ZM76.236 8.80367C76.5255 8.94166 77.1137 8.77767 77.3325 8.79429C77.3848 8.79819 76.9841 8.93636 77.4764 8.95636C77.6123 8.86693 77.7482 8.77752 77.8842 8.68812C77.3348 8.72638 76.7854 8.7649 76.236 8.80367ZM246.697 9.51402C246.618 9.47929 245.121 9.43795 245.048 9.45566C244.142 9.69432 247.243 9.77459 246.697 9.51402ZM284.482 10.7244C283.898 10.3552 289.997 10.877 292.109 11.0318C292.427 11.0549 292.653 11.0701 292.756 11.0724C292.735 11.1698 292.418 11.1742 292.103 11.1694C291.631 11.1624 291.17 11.1325 291.773 11.3646C290.811 11.1335 288.123 11.1106 287.493 11.0283C287.111 10.9783 287.024 10.7608 286.967 10.7514C286.74 10.7171 284.719 10.8736 284.482 10.7244ZM299.479 11.7112C298.886 11.6175 298.298 11.5293 297.701 11.4449C297.524 11.4199 297.348 11.3953 297.171 11.3709C297.349 11.3791 297.527 11.3875 297.705 11.3964C298.445 11.4335 299.182 11.4772 299.918 11.529C299.77 11.5893 299.626 11.6502 299.479 11.7112ZM300.462 11.6985C300.46 11.4935 302.292 11.7936 303.287 11.9446C303.481 11.9727 303.644 11.9936 303.757 12.0011C303.606 12.0535 303.443 12.0782 303.268 12.0833C302.481 12.1058 301.466 11.7317 300.462 11.6985ZM256.65 9.26276C255.442 9.05823 254.893 9.76815 256.381 9.50657C256.426 9.49778 256.701 9.27308 256.65 9.26276ZM114.446 6.67756C114.238 6.67569 111.657 6.47983 111.51 6.59999C111.044 6.98167 112.733 6.8038 113.302 6.93638C114.22 7.15112 112.878 7.3599 115.108 7.18823C115.017 7.26443 114.927 7.34065 114.837 7.41687C116.143 7.42241 115.708 6.91025 115.942 6.84012C116.013 6.81878 116.83 6.85085 116.977 6.81577C118.813 6.37241 114.638 6.67696 114.446 6.67756ZM226.589 8.18022C224.177 7.88884 225.208 8.24167 222.727 8.15013C222.64 8.31175 226.27 8.31444 226.589 8.18022ZM138.009 6.75306C135.508 6.82747 133.448 6.62354 131.116 6.9288C131.271 7.36942 138.659 6.86265 138.009 6.75306ZM20.489 10.4065C29.5133 10.5034 39.7463 9.70982 49.4169 9.17386C50.2166 9.12933 51.0123 9.08648 51.8031 9.04591C52.9315 8.9884 53.0484 9.15966 53.4557 9.12039C53.7226 9.09488 53.6689 8.95513 54.0243 8.93712C66.8712 8.28882 79.175 7.65015 91.4964 7.40079C92.2727 7.38424 96.0547 7.59272 96.8501 7.11413C97.4518 6.74989 94.7459 7.08855 94.294 7.09761C93.9542 7.10405 93.9356 6.94034 93.7091 6.94561C93.4688 6.95127 93.6702 7.05823 93.3913 7.06717C92.2097 7.10579 90.9187 7.09691 89.8502 7.13642C79.3722 7.52198 69.178 7.86783 58.7582 8.32906C57.497 8.3854 57.7502 8.2423 57.6867 8.2446C57.6858 8.24497 57.685 8.24533 57.6842 8.2457C55.0361 8.36392 52.2424 8.54265 49.3943 8.73614C44.9694 9.0365 40.4116 9.37331 36.0536 9.5665C31.0083 9.77881 25.9638 10.0157 20.9199 10.2783C20.7763 10.321 20.6326 10.3637 20.489 10.4065ZM119.795 7.06784C119.16 6.58001 119.025 7.0809 116.763 6.90957C116.581 6.99676 116.398 7.08397 116.215 7.1712C117.41 7.13567 118.605 7.10121 119.799 7.0678C119.798 7.06781 119.797 7.06783 119.795 7.06784ZM104.872 7.12851C104.517 6.53373 100.422 6.93758 97.9393 6.9775C97.6544 6.98191 97.3907 6.98142 97.1562 6.9739C97.002 7.10457 97.3761 7.15304 97.9437 7.16397C98.8806 7.18185 100.345 7.09848 100.831 7.10993C101.221 7.11861 103.314 7.41928 104.895 7.19642C104.887 7.17379 104.879 7.15115 104.872 7.12851ZM275.979 9.36872C275.611 9.37256 275.242 9.37644 274.874 9.38037C275.79 9.49352 276.706 9.60694 277.622 9.72062C276.158 9.60975 274.693 9.49953 273.229 9.39005C273.508 9.26267 273.787 9.13532 274.066 9.00799C274.704 9.1281 275.341 9.24835 275.979 9.36872ZM271.218 9.23945C273.788 9.2944 271.092 9.55401 270.458 9.3623C270.079 9.24729 270.956 9.23414 271.218 9.23945ZM264.548 8.72749C265.756 8.53144 268.177 8.61336 267.297 9.06529C266.012 8.7846 265.169 8.94025 263.298 8.73426C263.576 8.65181 263.854 8.56939 264.132 8.487C264.133 8.48705 264.134 8.4871 264.135 8.48715C264.273 8.56726 264.411 8.64737 264.548 8.72749ZM272.404 8.99376C274.074 9.34368 269.209 9.04495 270.747 8.92468C270.819 8.91914 272.338 8.98021 272.404 8.99376ZM31.201 9.18648C31.0085 9.35813 32.3013 9.2737 32.7321 9.25782C34.5995 9.18884 36.9872 8.9756 38.9279 8.88498C38.7788 8.84116 38.6297 8.79736 38.4805 8.75358C36.0539 8.89218 33.6271 9.03645 31.201 9.18648ZM44.9958 8.54468C46.3289 8.47226 47.6617 8.40154 48.9948 8.33247C49.0636 8.3289 49.2707 8.27625 49.3681 8.22814C49.4283 8.1984 49.4466 8.17038 49.3644 8.15673C49.3394 8.15257 49.305 8.14975 49.2597 8.14862C47.8381 8.27876 46.4171 8.41075 44.9958 8.54468ZM128.208 6.02534C127.184 5.94452 130.127 5.46331 129.998 5.95449C129.402 5.97785 128.805 6.00147 128.208 6.02534ZM137.729 5.77174C137.088 5.82079 136.446 5.87013 135.805 5.91976C135.803 5.86345 135.802 5.80714 135.801 5.75083C136.444 5.75751 137.087 5.76448 137.729 5.77174ZM25.956 9.4144C26.6473 9.56125 28.2641 9.42516 29.2738 9.36427C28.5678 9.24362 26.9156 9.43318 25.956 9.4144ZM112.874 6.01335C112.959 6.14226 108.888 6.17802 110.293 5.92317C111.154 5.95267 112.014 5.98273 112.874 6.01335ZM104.602 5.96769C105.475 5.92141 106.152 5.95357 105.977 6.16325C105.513 6.16344 105.05 6.1638 104.587 6.16432C104.592 6.09878 104.597 6.03324 104.602 5.96769ZM260.005 8.15497C258.534 8.11621 257.064 8.07823 255.593 8.04107C255.65 7.98686 255.706 7.93265 255.763 7.87844C257.181 7.91399 258.598 7.95029 260.016 7.98733C260.012 8.04321 260.008 8.09908 260.005 8.15497ZM25.0916 8.96527C24.0851 9.06977 23.0789 9.17528 22.0727 9.2818C23.0849 9.24959 24.097 9.2184 25.1091 9.18823C25.1041 9.11353 25.0991 9.03883 25.094 8.96413C25.0932 8.96451 25.0924 8.96489 25.0916 8.96527ZM280.169 8.25812C275.69 7.80126 281.432 7.77153 282.599 8.21009C282.6 8.20982 282.601 8.20956 282.602 8.20929C282.705 8.24793 282.478 8.40306 282.648 8.47715C282.194 8.38256 281.741 8.28803 281.287 8.19356C280.866 8.268 280.445 8.34249 280.024 8.41704C279.889 8.37465 279.753 8.33226 279.618 8.28988C279.801 8.27928 279.985 8.2687 280.169 8.25812ZM298.377 9.03934C301.545 9.35954 299.784 9.42821 297.879 9.23801C297.3 9.18152 296.695 9.10164 296.225 8.99306C296.238 8.9363 297.246 8.96672 297.898 9.00586C298.109 9.01824 298.284 9.03078 298.377 9.03934ZM287.621 8.53058C286.978 8.53909 286.335 8.54772 285.692 8.55647C285.612 8.50566 285.532 8.45485 285.452 8.40404C285.947 8.37918 286.441 8.3544 286.936 8.32968C287.164 8.39663 287.392 8.4636 287.621 8.53058ZM266.553 6.89858C265.522 6.80508 264.183 7.27597 267.505 7.27251C267.505 7.21618 267.506 7.15984 267.507 7.10351C267.374 7.1071 266.984 7.14411 266.963 7.13905C266.903 7.12251 266.982 6.93752 266.553 6.89858ZM306.327 8.54571C306.449 8.54766 306.627 7.96626 307.771 8.81354C308.159 8.85194 308.546 8.89358 308.935 8.93919C309.005 9.08833 309.075 9.23757 309.145 9.38691C307.702 8.971 307.493 9.21444 307.388 9.19644C306.898 9.1283 307.282 9.06266 306.969 9.00191C306.159 8.83884 304.302 8.64304 305.199 8.39088C305.521 8.30004 306.204 8.54495 306.327 8.54571ZM303.498 7.765C303.669 7.83809 303.073 7.93301 303.201 7.99991C303.243 8.02179 303.517 8.09392 303.816 8.19006C304.307 8.34779 304.858 8.57242 304.533 8.70769C304.276 8.6577 304.021 8.60932 303.764 8.56193C303.733 8.55629 303.702 8.55066 303.672 8.54506C303.585 8.45173 303.497 8.35853 303.41 8.26546C303.12 8.301 302.831 8.33802 302.541 8.37641C302.096 8.11971 301.118 7.74755 302.333 7.72862C301.893 7.69178 301.447 7.65757 301.008 7.62717C300.771 7.69714 300.534 7.76792 300.297 7.83947C300.43 7.70742 300.565 7.57561 300.699 7.44405C301.628 7.53648 302.564 7.64268 303.498 7.765ZM317.114 11.1442C317.036 11.1951 316.958 11.2459 316.88 11.2969C318.503 11.7295 320.906 12.7388 319.366 12.582C318.045 12.0476 316.703 11.5609 315.344 11.1263C314.56 10.8753 313.77 10.6414 312.976 10.4248C312.848 10.329 312.721 10.2337 312.592 10.1387C314.14 10.8177 313.914 9.78546 315.239 10.4922C315.406 10.5838 315 10.6502 315.453 10.8063C315.599 10.8574 315.84 10.9192 316.216 10.9986C316.189 10.9092 316.161 10.8199 316.134 10.7305C316.461 10.865 316.788 11.0032 317.114 11.1442ZM329.789 17.9923C329.772 17.9789 329.755 17.9656 329.738 17.9526C328.246 16.8042 329.139 17.2373 329.877 17.7575C330.172 17.9665 330.444 18.1926 330.527 18.3326C330.526 18.332 330.526 18.3315 330.525 18.331C331.037 19.2032 330.249 18.6417 329.605 18.1395C329.248 17.8606 328.93 17.5923 328.876 17.5558C328.814 17.5147 328.708 17.4915 328.566 17.4409C328.316 17.3535 327.952 17.1776 327.574 16.684C327.464 16.5437 327.355 16.3804 327.245 16.1871C327.394 16.2907 327.546 16.396 327.698 16.5028C328.039 16.7415 328.378 16.981 328.718 17.2228C329.057 17.4643 329.396 17.7074 329.737 17.9542C329.754 17.9669 329.772 17.9796 329.789 17.9923ZM321.747 13.1019C321.971 13.1916 321.802 13.2367 321.896 13.2797C321.897 13.2801 321.898 13.2805 321.899 13.2809C323.048 13.7856 325.58 15.0511 326.361 15.7385C326.827 16.068 326.805 16.126 326.851 16.2248C326.749 16.1634 326.684 16.1101 326.284 15.8718C325 15.1235 321.48 13.3983 321.045 13.0224C321.025 13.0038 321.011 12.9875 321.005 12.9738C321.024 12.977 321.043 12.9803 321.063 12.9836C321.291 13.0218 321.518 13.0607 321.747 13.1019ZM311.544 9.66862C310.694 9.20173 312.751 9.70577 313.252 9.97953C313.344 10.0319 312.417 10.1494 311.544 9.66862ZM243.831 4.57726C243.804 4.57832 243.777 4.57941 243.752 4.58053C241.971 4.6589 244.413 4.88452 243.542 5.07337C243.606 5.07231 243.67 5.07124 243.735 5.07018C244.039 5.06516 244.343 5.06018 244.647 5.05523C244.375 4.89588 244.103 4.73655 243.831 4.57726ZM155.965 2.31895C155.516 2.29086 155.728 2.42731 155.689 2.42915C155.394 2.42417 155.116 2.31268 155.003 2.32394C152.906 2.53952 154.299 2.65824 154.32 2.68475C154.364 2.81902 153.813 2.97405 154.575 3.12997C155.039 3.0841 155.502 3.03836 155.965 2.99276C156.195 3.06826 156.424 3.14379 156.654 3.21936C157.574 3.0636 156.371 3.01424 156.235 2.80152C156.183 2.71788 157.049 2.62174 155.965 2.31895ZM240.395 4.00988C240.075 4.23475 239.3 4.50603 240.043 4.76793C240.044 4.76796 240.045 4.76799 240.046 4.76802C240.183 4.81598 240.748 4.85895 240.92 4.92564C242.171 4.65427 241.707 4.31374 240.395 4.00988ZM164.276 1.94615C165.023 2.00686 165.769 2.06791 166.515 2.12931C166.501 2.27047 166.488 2.41162 166.474 2.55278C166.074 2.51129 165.675 2.46989 165.276 2.4286C165.135 2.49192 164.995 2.55525 164.854 2.6186C165.349 2.78363 165.843 2.9488 166.338 3.11413C166.936 3.06289 167.534 3.01186 168.132 2.96105C167.858 2.88399 167.584 2.80696 167.31 2.72999C168.772 2.66091 168.451 3.00154 169.658 3.14452C170.073 3.01774 170.488 2.89106 170.904 2.76448C171.502 2.90217 172.099 3.04006 172.697 3.17817C173.705 3.12795 173.794 3.02891 173.118 2.87132C173.621 2.70562 174.166 2.98136 174.77 2.91868C174.82 2.91364 174.728 2.75118 174.772 2.74975C177.891 2.67874 177.72 3.10171 178.217 3.12593C178.568 3.14282 179.975 2.87602 179.998 2.77893C180.027 2.64813 177.116 2.08905 181.686 2.13977C179.329 1.74681 176.637 2.07767 178.367 2.62594C177.62 2.56243 174.322 2.65321 174.112 2.63557C173.805 2.60821 173.915 2.40997 173.531 2.40038C173.304 2.3951 172.699 2.84377 170.907 2.42662C170.677 2.49911 170.447 2.57164 170.217 2.6442C170.002 2.58052 169.788 2.51687 169.573 2.45325C170.018 2.2382 170.463 2.02327 170.908 1.80845C169.152 2.02873 167.7 1.56773 166.629 1.93594C165.706 1.88412 165.257 1.83721 165.656 1.6475C165.378 1.64522 165.101 1.643 164.823 1.64082C164.641 1.74258 164.459 1.84435 164.276 1.94615ZM234.724 4.15956C233.814 3.91111 233.47 4.37302 233.611 4.40428C234.411 4.5769 235.197 4.28887 234.724 4.15956ZM157.63 2.57743C158.642 2.7041 159.654 2.83141 160.666 2.95936C160.667 2.80996 160.668 2.66055 160.669 2.51114C159.656 2.5326 158.643 2.55469 157.63 2.57743ZM244.124 4.25135C244.213 4.3665 244.302 4.48165 244.391 4.59681C245.513 4.22672 246.592 4.85225 247.144 4.75068C247.264 4.72845 247.031 4.5223 246.806 4.47187C246.666 4.44017 244.322 4.22023 244.124 4.25135ZM290.217 6.17208C289.802 6.22843 289.386 6.28483 288.97 6.34128C288.999 6.21647 289.028 6.09166 289.056 5.96685C289.261 5.95266 289.465 5.93848 289.67 5.92431C289.852 6.00689 290.035 6.08948 290.217 6.17208ZM285.518 6.16067C284.783 6.11778 284.048 6.07505 283.313 6.03248C286.123 6.0414 283.824 5.8829 285.534 5.79484C285.529 5.91678 285.523 6.03872 285.518 6.16067ZM278.085 5.57958C278.178 5.50836 278.272 5.43713 278.366 5.36591C279.101 5.39765 279.837 5.42955 280.573 5.46162C280.119 5.18054 279.665 4.89951 279.211 4.61855C278.942 4.60623 278.672 4.59392 278.403 4.58164C278.297 4.91428 278.191 5.24693 278.085 5.57958ZM136.05 1.76145C135.604 1.75884 134.055 1.99521 134.122 2.07894C134.766 2.17854 135.411 2.27842 136.056 2.3786C136.058 2.22885 136.06 2.07911 136.062 1.92936C136.154 2.00347 136.245 2.0776 136.337 2.15172C136.703 2.09407 137.069 2.03651 137.435 1.97905C137.62 2.10915 137.805 2.23929 137.99 2.36944C138.175 2.21933 138.36 2.06925 138.545 1.91918C136.775 1.66084 136.837 1.92586 136.469 1.92457C136.282 1.92414 136.164 1.83198 136.097 1.78564C136.082 1.77758 136.066 1.76951 136.05 1.76145ZM158.335 1.62786C156.223 1.57997 155.015 1.96975 153.488 1.63518C154.466 2.33812 160.796 1.64222 163.023 2.24648C163.255 2.1355 163.487 2.02456 163.72 1.91365C162.505 2.00497 161.665 1.76758 161.072 1.73046C160.602 1.70103 160.651 1.81938 160.615 1.81746C160.613 1.81745 160.611 1.81744 160.609 1.81743C159.508 1.76232 159.168 1.6469 158.335 1.62786ZM245.71 3.75587C245.15 3.55799 244.157 3.54114 244.137 3.80037C244.687 3.89476 245.236 3.98927 245.785 4.0839C245.674 4.01343 245.806 3.7897 245.71 3.75587ZM277.26 4.81792C276.822 4.71445 275.774 4.74392 276.215 4.98725C276.294 5.03045 277.341 4.91744 276.714 5.29592C277.727 5.33308 277.51 4.87726 277.26 4.81792ZM194.405 2.60661C194.657 2.60639 194.908 2.6062 195.16 2.60605C195.281 2.60597 195.402 2.60591 195.523 2.60585C195.611 2.50276 195.7 2.39967 195.789 2.29659C195.581 2.34325 195.372 2.38994 195.163 2.43665C194.911 2.49327 194.658 2.54992 194.405 2.60661ZM250.499 3.74811C250.975 4.2788 251.838 3.81096 252.75 4.26691C253.093 4.2829 253.436 4.29893 253.779 4.315C253.779 4.31503 253.78 4.31507 253.781 4.3151C253.796 4.17557 253.81 4.03605 253.825 3.89652C252.716 3.84658 251.607 3.79711 250.499 3.74811ZM171.183 2.0076C171.412 2.07509 171.641 2.14261 171.87 2.21017C172.279 2.1387 172.688 2.06733 173.098 1.99606C172.877 1.93924 172.657 1.88243 172.437 1.82566C172.019 1.8862 171.601 1.94685 171.183 2.0076ZM256.527 3.92918C255.33 3.81938 254.863 4.24795 256.396 4.30726C257.043 4.33188 257.782 4.04425 256.527 3.92918ZM113.098 2.15985C113.51 2.19145 113.922 2.22318 114.334 2.25504C114.473 2.15919 114.612 2.06334 114.751 1.96752C114.2 2.0314 113.649 2.09551 113.098 2.15985ZM282.942 5.11588C282.89 5.20741 282.838 5.29894 282.785 5.39047C282.42 5.35548 282.055 5.32052 281.689 5.28561C281.785 5.19664 281.882 5.10767 281.978 5.01871C282.299 5.05107 282.621 5.08346 282.942 5.11588ZM115.869 2.1758C116.198 2.18898 116.527 2.20224 116.857 2.21558C117.077 2.16695 117.298 2.11836 117.518 2.0698C117.21 2.02872 116.901 1.98772 116.592 1.94678C116.351 2.02308 116.11 2.09942 115.869 2.1758ZM267.893 4.42083C267.436 4.28928 265.579 4.56549 267.236 4.72242C268.291 4.82237 267.962 4.44081 267.893 4.42083ZM270.385 4.41086C268.637 4.12388 269.909 5.26669 272.036 4.64856C269.92 4.65738 270.488 4.42817 270.385 4.41086ZM285.86 4.51418C285.904 4.51672 285.934 4.67489 286.286 4.69648C287.555 4.77352 289.229 4.91118 290.137 4.96212C290.668 4.99195 291.468 5.01585 292.385 5.04228C294.199 5.09198 296.574 5.19158 298.19 5.38511C299.141 5.49638 299.846 5.63417 300.062 5.78197C300.224 5.89331 299.803 6.13859 299.872 6.15996C300.067 6.21758 301.262 6.20288 301.021 6.38907C300.052 6.28419 299.091 6.19435 298.131 6.11546C297.947 6.1004 297.765 6.08579 297.581 6.07149C297.772 5.98885 297.963 5.90655 298.154 5.82474C298.256 5.78193 298.357 5.73923 298.458 5.69665C298.356 5.69098 298.259 5.68572 298.166 5.68083C295.667 5.56198 296.518 5.63409 295.709 5.88916C295.241 5.73454 294.757 5.58112 294.291 5.43062C293.636 5.47254 293.002 5.51882 292.36 5.56723C291.976 5.59715 291.592 5.62713 291.208 5.65714C291.441 5.57425 291.673 5.49139 291.906 5.40853C290.396 5.16624 290.813 5.29891 289.972 5.48738C289.974 5.39398 289.977 5.30058 289.979 5.20718C288.503 5.36807 288.231 5.07564 287.91 5.05779C287.253 5.02279 286.367 6.08893 283.909 4.87903C282.829 5.36072 282.901 4.2868 282.255 4.80608C280.493 4.13254 283.885 4.4969 285.495 4.58879C285.496 4.58883 285.496 4.58886 285.497 4.5889C285.619 4.59601 285.43 4.4872 285.86 4.51418ZM276.645 4.65959C277.749 4.22054 273.47 3.993 274.857 4.75355C275.067 4.78526 275.277 4.81698 275.487 4.84871C275.874 4.78566 276.26 4.72266 276.647 4.6597C276.646 4.65967 276.645 4.65963 276.645 4.65959ZM236.425 2.80982C232.451 2.88072 234.698 3.23272 236.051 3.00374C236.32 2.95841 236.47 2.88908 236.425 2.80982ZM155.319 1.24119C155.261 1.29923 155.203 1.35727 155.144 1.41531C156.477 1.36536 159.052 1.6034 159.018 1.21059C157.785 1.21982 156.552 1.23002 155.319 1.24119ZM165.86 1.04859C165.574 1.02244 164.406 0.957296 164.546 1.10545C165.051 1.21353 165.557 1.32177 166.063 1.43016C166.299 1.36704 166.535 1.30394 166.772 1.24088C166.443 1.21588 165.937 1.05542 165.86 1.04859Z" fill="#FFDF6B"/>
</svg>
