<svg width="52" height="52" viewBox="0 0 52 52" fill="none" xmlns="http://www.w3.org/2000/svg">
<path d="M25.9941 50.716C39.798 50.716 50.9883 39.5901 50.9883 25.8657C50.9883 12.1412 39.798 1.01526 25.9941 1.01526C12.1903 1.01526 1 12.1412 1 25.8657C1 39.5901 12.1903 50.716 25.9941 50.716Z" stroke="#B7B7B7"/>
<path d="M33.2785 21.2432C32.7429 21.5115 32.2073 21.6009 31.5824 21.6903C32.2073 21.3327 32.6536 20.7962 32.8321 20.0808C32.2966 20.4385 31.6717 20.6173 30.9576 20.7962C30.422 20.2596 29.6186 19.902 28.8152 19.902C27.2977 19.902 25.9587 21.2432 25.9587 22.8528C25.9587 23.121 25.9587 23.2999 26.048 23.4787C23.6379 23.3893 21.4062 22.2268 19.978 20.4385C19.7102 20.8856 19.6209 21.3327 19.6209 21.9586C19.6209 22.9422 20.1565 23.8364 20.9599 24.3729C20.5136 24.3729 20.0673 24.194 19.6209 24.0152C19.6209 25.4459 20.6029 26.6083 21.9418 26.8766C21.674 26.966 21.4062 26.966 21.1384 26.966C20.9599 26.966 20.7814 26.966 20.6029 26.8766C20.9599 28.039 22.0311 28.9332 23.3701 28.9332C22.3882 29.738 21.1384 30.1851 19.7102 30.1851C19.4424 30.1851 19.2639 30.1851 18.9961 30.1851C20.3351 30.9898 21.8526 31.5263 23.4593 31.5263C28.8152 31.5263 31.761 27.0554 31.761 23.2104C31.761 23.121 31.761 22.9422 31.761 22.8528C32.3858 22.4057 32.9214 21.8692 33.2785 21.2432Z" fill="#1E2532"/>
</svg>
